Rukiye-Regular.ufo
<glyph name="ampersand" format="1">
  <advance width="600"/>
  <unicode hex="0026"/>
  <outline>
    <contour>
      <point x="704" y="-4" type="line"/>
      <point x="582" y="39"/>
      <point x="426" y="132"/>
      <point x="310" y="226" type="curve" smooth="yes"/>
      <point x="183" y="329"/>
      <point x="115" y="424"/>
      <point x="115" y="507" type="curve" smooth="yes"/>
      <point x="115" y="541"/>
      <point x="125" y="585"/>
      <point x="149" y="620" type="curve"/>
      <point x="175" y="655"/>
      <point x="250" y="685"/>
      <point x="317" y="685" type="curve" smooth="yes"/>
      <point x="418" y="685"/>
      <point x="487" y="621"/>
      <point x="487" y="552" type="curve" smooth="yes"/>
      <point x="487" y="498"/>
      <point x="459" y="452"/>
      <point x="431" y="423" type="curve"/>
      <point x="410" y="403"/>
      <point x="362" y="373"/>
      <point x="336" y="366" type="curve"/>
      <point x="332" y="372" type="line"/>
      <point x="346" y="395"/>
      <point x="360" y="446"/>
      <point x="360" y="493" type="curve" smooth="yes"/>
      <point x="360" y="572"/>
      <point x="310" y="618"/>
      <point x="206" y="618" type="curve"/>
      <point x="210" y="635" type="line"/>
      <point x="210" y="529"/>
      <point x="275" y="466"/>
      <point x="383" y="370" type="curve" smooth="yes"/>
      <point x="464" y="306"/>
      <point x="630" y="215"/>
      <point x="807" y="152" type="curve"/>
    </contour>
    <contour>
      <point x="477" y="129"/>
      <point x="505" y="243"/>
      <point x="531" y="386" type="curve"/>
      <point x="480" y="387" type="line"/>
      <point x="480" y="422" type="line"/>
      <point x="706" y="422" type="line"/>
      <point x="706" y="387" type="line"/>
      <point x="657" y="386" type="line"/>
      <point x="558" y="99"/>
      <point x="471" y="-15"/>
      <point x="294" y="-15" type="curve" smooth="yes"/>
      <point x="155" y="-15"/>
      <point x="59" y="55"/>
      <point x="59" y="154" type="curve" smooth="yes"/>
      <point x="59" y="192"/>
      <point x="72" y="237"/>
      <point x="90" y="261" type="curve"/>
      <point x="124" y="295"/>
      <point x="169" y="324"/>
      <point x="213" y="343" type="curve"/>
      <point x="232" y="325" type="line"/>
      <point x="224" y="288"/>
      <point x="220" y="260"/>
      <point x="220" y="235" type="curve" smooth="yes"/>
      <point x="220" y="117"/>
      <point x="304" y="68"/>
      <point x="477" y="85" type="curve"/>
      <point x="453" y="67" type="line"/>
    </contour>
  </outline>
</glyph>
<glyph name="comma" format="1">
  <advance width="188"/>
  <unicode hex="002C"/>
  <outline>
    <contour>
      <point x="35" y="111" type="line"/>
      <point x="163" y="140" type="line"/>
      <point x="163" y="65" type="line" smooth="yes"/>
      <point x="163" y="-47"/>
      <point x="111" y="-95"/>
      <point x="43" y="-104" type="curve"/>
      <point x="36" y="-83" type="line"/>
      <point x="75" y="-72"/>
      <point x="97" y="-22"/>
      <point x="88" y="21" type="curve"/>
      <point x="134" y="12" type="line"/>
      <point x="35" y="-3" type="line"/>
    </contour>
  </outline>
</glyph>
<glyph name="zero" format="1">
  <advance width="751"/>
  <unicode hex="0030"/>
  <outline>
    <contour>
      <point x="564" y="685"/>
      <point x="696" y="574"/>
      <point x="696" y="341" type="curve" smooth="yes"/>
      <point x="696" y="262"/>
      <point x="661" y="156"/>
      <point x="602" y="85" type="curve"/>
      <point x="550" y="33"/>
      <point x="472" y="-15"/>
      <point x="362" y="-15" type="curve"/>
      <point x="189" y="-15"/>
      <point x="57" y="96"/>
      <point x="57" y="329" type="curve" smooth="yes"/>
      <point x="57" y="408"/>
      <point x="92" y="514"/>
      <point x="151" y="585" type="curve"/>
      <point x="203" y="637"/>
      <point x="281" y="685"/>
      <point x="391" y="685" type="curve"/>
    </contour>
    <contour>
      <point x="264" y="625" type="line"/>
      <point x="244" y="551"/>
      <point x="234" y="447"/>
      <point x="234" y="374" type="curve" smooth="yes"/>
      <point x="234" y="138"/>
      <point x="340" y="54"/>
      <point x="516" y="54" type="curve"/>
      <point x="489" y="45" type="line"/>
      <point x="509" y="119"/>
      <point x="519" y="223"/>
      <point x="519" y="296" type="curve" smooth="yes"/>
      <point x="519" y="532"/>
      <point x="413" y="616"/>
      <point x="237" y="616" type="curve"/>
    </contour>
  </outline>
</glyph>
<glyph name="one" format="1">
  <advance width="316"/>
  <unicode hex="0031"/>
  <outline>
    <contour>
      <point x="240" y="670" type="line"/>
      <point x="10" y="609" type="line"/>
      <point x="20" y="574" type="line"/>
      <point x="78" y="587" type="line"/>
      <point x="83" y="38" type="line"/>
      <point x="26" y="35" type="line"/>
      <point x="26" y="0" type="line"/>
      <point x="306" y="0" type="line"/>
      <point x="306" y="35" type="line"/>
      <point x="249" y="38" type="line"/>
      <point x="254" y="646" type="line"/>
    </contour>
  </outline>
</glyph>
<glyph name="two" format="1">
  <advance width="600"/>
  <unicode hex="0032"/>
  <outline>
    <contour>
      <point x="128" y="609"/>
      <point x="244" y="685"/>
      <point x="388" y="685" type="curve"/>
      <point x="484" y="675"/>
      <point x="554" y="582"/>
      <point x="554" y="493" type="curve" smooth="yes"/>
      <point x="554" y="330"/>
      <point x="330" y="151"/>
      <point x="120" y="102" type="curve"/>
      <point x="120" y="109" type="line"/>
      <point x="510" y="170" type="line"/>
      <point x="513" y="209" type="line"/>
      <point x="545" y="209" type="line"/>
      <point x="545" y="0" type="line"/>
      <point x="90" y="0" type="line"/>
      <point x="90" y="108" type="line"/>
      <point x="260" y="184"/>
      <point x="376" y="321"/>
      <point x="376" y="470" type="curve" smooth="yes"/>
      <point x="376" y="550"/>
      <point x="314" y="631"/>
      <point x="253" y="631" type="curve"/>
      <point x="279" y="640" type="line"/>
      <point x="160" y="450" type="line"/>
      <point x="59" y="519" type="line"/>
    </contour>
  </outline>
</glyph>
<glyph name="three" format="1">
  <advance width="600"/>
  <unicode hex="0033"/>
  <outline>
    <contour>
      <point x="386" y="271"/>
      <point x="309" y="349"/>
      <point x="215" y="358" type="curve"/>
      <point x="215" y="384" type="line"/>
      <point x="495" y="574" type="line"/>
      <point x="509" y="549" type="line"/>
      <point x="119" y="500" type="line"/>
      <point x="116" y="461" type="line"/>
      <point x="84" y="461" type="line"/>
      <point x="84" y="670" type="line"/>
      <point x="539" y="670" type="line"/>
      <point x="539" y="562" type="line"/>
      <point x="337" y="420" type="line"/>
      <point x="458" y="424"/>
      <point x="564" y="328"/>
      <point x="564" y="214" type="curve" smooth="yes"/>
      <point x="564" y="128"/>
      <point x="514" y="53"/>
      <point x="431" y="7" type="curve"/>
      <point x="397" y="-6"/>
      <point x="347" y="-15"/>
      <point x="302" y="-15" type="curve" smooth="yes"/>
      <point x="167" y="-15"/>
      <point x="62" y="68"/>
      <point x="44" y="189" type="curve"/>
      <point x="150" y="223" type="line"/>
      <point x="269" y="10" type="line"/>
      <point x="253" y="19" type="line"/>
      <point x="310" y="19"/>
      <point x="386" y="82"/>
      <point x="386" y="178" type="curve" smooth="yes"/>
    </contour>
  </outline>
</glyph>
<glyph name="four" format="1">
  <advance width="600"/>
  <unicode hex="0034"/>
  <outline>
    <contour>
      <point x="133" y="323"/>
      <point x="253" y="509"/>
      <point x="300" y="670" type="curve"/>
      <point x="488" y="670" type="line"/>
      <point x="398" y="509"/>
      <point x="215" y="323"/>
      <point x="29" y="187" type="curve"/>
      <point x="29" y="224" type="line"/>
      <point x="559" y="224" type="line"/>
      <point x="559" y="160" type="line"/>
      <point x="8" y="160" type="line"/>
      <point x="-10" y="187" type="line"/>
    </contour>
    <contour>
      <point x="484" y="424" type="line"/>
      <point x="479" y="38" type="line"/>
      <point x="536" y="35" type="line"/>
      <point x="536" y="0" type="line"/>
      <point x="236" y="0" type="line"/>
      <point x="236" y="35" type="line"/>
      <point x="313" y="38" type="line"/>
      <point x="308" y="370" type="line"/>
      <point x="472" y="445" type="line"/>
    </contour>
  </outline>
</glyph>
<glyph name="five" format="1">
  <advance width="600"/>
  <unicode hex="0035"/>
  <outline>
    <contour>
      <point x="93" y="346" type="line"/>
      <point x="93" y="685" type="line"/>
      <point x="545" y="685" type="line"/>
      <point x="545" y="476" type="line"/>
      <point x="513" y="476" type="line"/>
      <point x="510" y="515" type="line"/>
      <point x="120" y="564" type="line"/>
      <point x="181" y="583" type="line"/>
      <point x="181" y="387" type="line"/>
      <point x="231" y="405"/>
      <point x="316" y="423"/>
      <point x="406" y="428" type="curve" smooth="yes"/>
      <point x="507" y="428"/>
      <point x="580" y="348"/>
      <point x="580" y="237" type="curve" smooth="yes"/>
      <point x="580" y="105"/>
      <point x="473" y="0"/>
      <point x="329" y="0" type="curve" smooth="yes"/>
      <point x="205" y="0"/>
      <point x="99" y="77"/>
      <point x="64" y="184" type="curve"/>
      <point x="205" y="229" type="line"/>
      <point x="269" y="25" type="line"/>
      <point x="253" y="34" type="line"/>
      <point x="317" y="34"/>
      <point x="402" y="122"/>
      <point x="402" y="235" type="curve" smooth="yes"/>
      <point x="402" y="312"/>
      <point x="359" y="366"/>
      <point x="279" y="366" type="curve" smooth="yes"/>
      <point x="238" y="366"/>
      <point x="165" y="346"/>
      <point x="111" y="320" type="curve"/>
    </contour>
  </outline>
</glyph>
<glyph name="six" format="1">
  <advance width="600"/>
  <unicode hex="0036"/>
  <outline>
    <contour>
      <point x="304" y="669" type="line"/>
      <point x="323" y="671" type="line"/>
      <point x="271" y="639"/>
      <point x="230" y="509"/>
      <point x="230" y="316" type="curve" smooth="yes"/>
      <point x="230" y="113"/>
      <point x="295" y="39"/>
      <point x="396" y="39" type="curve"/>
      <point x="347" y="14" type="line"/>
      <point x="367" y="47"/>
      <point x="384" y="135"/>
      <point x="384" y="168" type="curve" smooth="yes"/>
      <point x="384" y="291"/>
      <point x="338" y="359"/>
      <point x="215" y="359" type="curve"/>
      <point x="201" y="383" type="line"/>
      <point x="244" y="398"/>
      <point x="286" y="408"/>
      <point x="338" y="408" type="curve" smooth="yes"/>
      <point x="466" y="408"/>
      <point x="562" y="342"/>
      <point x="562" y="225" type="curve" smooth="yes"/>
      <point x="562" y="157"/>
      <point x="530" y="100"/>
      <point x="479" y="53" type="curve"/>
      <point x="434" y="22"/>
      <point x="366" y="0"/>
      <point x="305" y="0" type="curve" smooth="yes"/>
      <point x="143" y="0"/>
      <point x="52" y="114"/>
      <point x="52" y="302" type="curve" smooth="yes"/>
      <point x="52" y="436"/>
      <point x="101" y="557"/>
      <point x="153" y="616" type="curve"/>
      <point x="201" y="660"/>
      <point x="263" y="685"/>
      <point x="323" y="685" type="curve" smooth="yes"/>
      <point x="429" y="685"/>
      <point x="502" y="642"/>
      <point x="540" y="598" type="curve"/>
      <point x="451" y="513" type="line"/>
    </contour>
  </outline>
</glyph>
<glyph name="seven" format="1">
  <advance width="600"/>
  <unicode hex="0037"/>
  <outline>
    <contour>
      <point x="155" y="0" type="line"/>
      <point x="155" y="180"/>
      <point x="394" y="533"/>
      <point x="539" y="568" type="curve"/>
      <point x="539" y="549" type="line"/>
      <point x="119" y="500" type="line"/>
      <point x="116" y="461" type="line"/>
      <point x="84" y="461" type="line"/>
      <point x="84" y="670" type="line"/>
      <point x="569" y="670" type="line"/>
      <point x="569" y="562" type="line"/>
      <point x="465" y="498"/>
      <point x="333" y="184"/>
      <point x="333" y="0" type="curve"/>
    </contour>
  </outline>
</glyph>
<glyph name="eight" format="1">
  <advance width="600"/>
  <unicode hex="0038"/>
  <outline>
    <contour>
      <point x="435" y="271"/>
      <point x="83" y="282"/>
      <point x="83" y="491" type="curve" smooth="yes"/>
      <point x="83" y="537"/>
      <point x="103" y="585"/>
      <point x="137" y="623" type="curve"/>
      <point x="178" y="659"/>
      <point x="237" y="685"/>
      <point x="322" y="685" type="curve" smooth="yes"/>
      <point x="442" y="685"/>
      <point x="507" y="619"/>
      <point x="507" y="544" type="curve" smooth="yes"/>
      <point x="507" y="505"/>
      <point x="482" y="445"/>
      <point x="452" y="419" type="curve"/>
      <point x="419" y="397"/>
      <point x="374" y="381"/>
      <point x="350" y="376" type="curve"/>
      <point x="346" y="383" type="line"/>
      <point x="358" y="403"/>
      <point x="366" y="445"/>
      <point x="366" y="488" type="curve" smooth="yes"/>
      <point x="366" y="568"/>
      <point x="311" y="622"/>
      <point x="185" y="622" type="curve"/>
      <point x="191" y="639" type="line"/>
      <point x="191" y="404"/>
      <point x="561" y="399"/>
      <point x="561" y="187" type="curve" smooth="yes"/>
      <point x="561" y="136"/>
      <point x="520" y="73"/>
      <point x="473" y="35" type="curve"/>
      <point x="437" y="8"/>
      <point x="378" y="-15"/>
      <point x="302" y="-15" type="curve" smooth="yes"/>
      <point x="138" y="-15"/>
      <point x="59" y="66"/>
      <point x="59" y="157" type="curve" smooth="yes"/>
      <point x="59" y="188"/>
      <point x="71" y="235"/>
      <point x="91" y="261" type="curve"/>
      <point x="124" y="294"/>
      <point x="171" y="322"/>
      <point x="215" y="341" type="curve"/>
      <point x="222" y="325" type="line"/>
      <point x="207" y="290"/>
      <point x="200" y="254"/>
      <point x="200" y="211" type="curve" smooth="yes"/>
      <point x="200" y="128"/>
      <point x="288" y="50"/>
      <point x="442" y="50" type="curve"/>
      <point x="435" y="36" type="line"/>
    </contour>
  </outline>
</glyph>
<glyph name="A" format="1">
  <advance width="702"/>
  <unicode hex="0041"/>
  <outline>
    <contour>
      <point x="443" y="191" type="line"/>
      <point x="428" y="228" type="line"/>
      <point x="221" y="228" type="line"/>
      <point x="197" y="191" type="line"/>
    </contour>
    <contour>
      <point x="17" y="26" type="line"/>
      <point x="17" y="-9" type="line"/>
      <point x="243" y="-9" type="line"/>
      <point x="243" y="26" type="line"/>
      <point x="192" y="27" type="line"/>
      <point x="306" y="589" type="line"/>
      <point x="284" y="585" type="line"/>
      <point x="441" y="27" type="line"/>
      <point x="392" y="26" type="line"/>
      <point x="392" y="-9" type="line"/>
      <point x="693" y="-9" type="line"/>
      <point x="693" y="26" type="line"/>
      <point x="644" y="27" type="line"/>
      <point x="414" y="670" type="line"/>
      <point x="290" y="653" type="line"/>
      <point x="66" y="27" type="line"/>
    </contour>
  </outline>
</glyph>
<glyph name="B" format="1">
  <advance width="642"/>
  <unicode hex="0042"/>
  <outline>
    <contour>
      <point x="237" y="347" type="line"/>
      <point x="384" y="347" type="line" smooth="yes"/>
      <point x="566" y="348"/>
      <point x="622" y="316"/>
      <point x="622" y="211" type="curve" smooth="yes"/>
      <point x="622" y="75"/>
      <point x="532" y="0"/>
      <point x="255" y="0" type="curve" smooth="yes"/>
      <point x="20" y="0" type="line"/>
      <point x="20" y="40" type="line"/>
      <point x="69" y="41" type="line"/>
      <point x="69" y="629" type="line"/>
      <point x="20" y="630" type="line"/>
      <point x="20" y="670" type="line"/>
      <point x="256" y="670" type="line"/>
      <point x="437" y="670" type="line"/>
      <point x="524" y="659"/>
      <point x="562" y="617"/>
      <point x="562" y="529" type="curve" smooth="yes"/>
      <point x="562" y="400"/>
      <point x="435" y="318"/>
      <point x="236" y="318" type="curve"/>
      <point x="232" y="347" type="line"/>
      <point x="328" y="347"/>
      <point x="374" y="393"/>
      <point x="374" y="488" type="curve" smooth="yes"/>
      <point x="374" y="581"/>
      <point x="334" y="628"/>
      <point x="255" y="628" type="curve"/>
      <point x="255" y="39" type="line"/>
      <point x="386" y="39"/>
      <point x="434" y="81"/>
      <point x="434" y="170" type="curve" smooth="yes"/>
      <point x="434" y="263"/>
      <point x="383" y="310"/>
      <point x="285" y="310" type="curve" smooth="yes"/>
      <point x="234" y="310" type="line"/>
    </contour>
  </outline>
</glyph>
<glyph name="C" format="1">
  <advance width="663"/>
  <unicode hex="0043"/>
  <outline>
    <contour>
      <point x="587" y="167" type="line"/>
      <point x="544" y="124"/>
      <point x="486" y="100"/>
      <point x="424" y="100" type="curve" smooth="yes"/>
      <point x="295" y="100"/>
      <point x="214" y="201"/>
      <point x="214" y="364" type="curve" smooth="yes"/>
      <point x="214" y="502"/>
      <point x="273" y="624"/>
      <point x="356" y="658" type="curve"/>
      <point x="340" y="670" type="line"/>
      <point x="475" y="457" type="line"/>
      <point x="598" y="560" type="line"/>
      <point x="549" y="637"/>
      <point x="462" y="683"/>
      <point x="363" y="683" type="curve" smooth="yes"/>
      <point x="290" y="683"/>
      <point x="212" y="659"/>
      <point x="144" y="615" type="curve"/>
      <point x="77" y="552"/>
      <point x="35" y="438"/>
      <point x="35" y="318" type="curve" smooth="yes"/>
      <point x="35" y="120"/>
      <point x="154" y="-15"/>
      <point x="329" y="-15" type="curve" smooth="yes"/>
      <point x="439" y="-15"/>
      <point x="544" y="43"/>
      <point x="615" y="143" type="curve"/>
    </contour>
  </outline>
</glyph>
<glyph name="D" format="1">
  <advance width="720"/>
  <unicode hex="0044"/>
  <outline>
    <contour>
      <point x="422" y="35"/>
      <point x="509" y="128"/>
      <point x="509" y="332" type="curve" smooth="yes"/>
      <point x="509" y="537"/>
      <point x="399" y="633"/>
      <point x="255" y="633" type="curve"/>
      <point x="255" y="35" type="line"/>
      <point x="283" y="35" type="line" smooth="yes"/>
    </contour>
    <contour>
      <point x="40" y="0" type="line"/>
      <point x="40" y="35" type="line"/>
      <point x="89" y="36" type="line"/>
      <point x="89" y="634" type="line"/>
      <point x="40" y="635" type="line"/>
      <point x="40" y="670" type="line"/>
      <point x="233" y="668" type="line"/>
      <point x="233" y="668"/>
      <point x="309" y="680"/>
      <point x="355" y="680" type="curve" smooth="yes"/>
      <point x="583" y="680"/>
      <point x="687" y="567"/>
      <point x="687" y="357" type="curve" smooth="yes"/>
      <point x="687" y="149"/>
      <point x="566" y="0"/>
      <point x="323" y="0" type="curve" smooth="yes"/>
    </contour>
  </outline>
</glyph>
<glyph name="E" format="1">
  <advance width="557"/>
  <unicode hex="0045"/>
  <outline>
    <contour>
      <point x="532" y="179" type="line"/>
      <point x="493" y="178" type="line"/>
      <point x="491" y="128" type="line"/>
      <point x="403" y="85"/>
      <point x="316" y="49"/>
      <point x="228" y="22" type="curve"/>
      <point x="244" y="12" type="line"/>
      <point x="240" y="658" type="line"/>
      <point x="228" y="648" type="line"/>
      <point x="309" y="621"/>
      <point x="390" y="585"/>
      <point x="471" y="542" type="curve"/>
      <point x="473" y="492" type="line"/>
      <point x="512" y="491" type="line"/>
      <point x="512" y="670" type="line"/>
      <point x="25" y="670" type="line"/>
      <point x="25" y="635" type="line"/>
      <point x="74" y="634" type="line"/>
      <point x="74" y="36" type="line"/>
      <point x="25" y="35" type="line"/>
      <point x="25" y="0" type="line"/>
      <point x="532" y="0" type="line"/>
    </contour>
    <contour>
      <point x="429" y="328" type="line"/>
      <point x="429" y="365" type="line"/>
      <point x="197" y="365" type="line"/>
      <point x="173" y="328" type="line"/>
    </contour>
  </outline>
</glyph>
<glyph name="F" format="1">
  <advance width="542"/>
  <unicode hex="0046"/>
  <outline>
    <contour>
      <point x="444" y="303" type="line"/>
      <point x="444" y="340" type="line"/>
      <point x="212" y="340" type="line"/>
      <point x="188" y="303" type="line"/>
    </contour>
    <contour>
      <point x="364" y="0" type="line"/>
      <point x="364" y="35" type="line"/>
      <point x="257" y="36" type="line"/>
      <point x="257" y="658" type="line"/>
      <point x="243" y="648" type="line"/>
      <point x="324" y="621"/>
      <point x="405" y="585"/>
      <point x="486" y="542" type="curve"/>
      <point x="488" y="492" type="line"/>
      <point x="527" y="491" type="line"/>
      <point x="527" y="670" type="line"/>
      <point x="40" y="670" type="line"/>
      <point x="40" y="635" type="line"/>
      <point x="89" y="634" type="line"/>
      <point x="89" y="36" type="line"/>
      <point x="40" y="35" type="line"/>
      <point x="40" y="0" type="line"/>
    </contour>
  </outline>
</glyph>
<glyph name="G" format="1">
  <advance width="663"/>
  <unicode hex="0047"/>
  <outline>
    <contour>
      <point x="662" y="312" type="line"/>
      <point x="662" y="347" type="line"/>
      <point x="398" y="347" type="line"/>
      <point x="398" y="312" type="line"/>
      <point x="447" y="311" type="line"/>
      <point x="447" y="88" type="line"/>
      <point x="581" y="0" type="line"/>
      <point x="613" y="0" type="line"/>
      <point x="613" y="311" type="line"/>
    </contour>
    <contour>
      <point x="560" y="152" type="line"/>
      <point x="516" y="106"/>
      <point x="479" y="88"/>
      <point x="428" y="88" type="curve" smooth="yes"/>
      <point x="297" y="88"/>
      <point x="214" y="198"/>
      <point x="214" y="370" type="curve" smooth="yes"/>
      <point x="214" y="513"/>
      <point x="272" y="629"/>
      <point x="356" y="655" type="curve"/>
      <point x="340" y="670" type="line"/>
      <point x="475" y="457" type="line"/>
      <point x="598" y="560" type="line"/>
      <point x="549" y="637"/>
      <point x="462" y="683"/>
      <point x="363" y="683" type="curve" smooth="yes"/>
      <point x="290" y="683"/>
      <point x="212" y="659"/>
      <point x="144" y="615" type="curve"/>
      <point x="77" y="552"/>
      <point x="35" y="437"/>
      <point x="35" y="318" type="curve" smooth="yes"/>
      <point x="35" y="123"/>
      <point x="155" y="-15"/>
      <point x="325" y="-15" type="curve" smooth="yes"/>
      <point x="426" y="-15"/>
      <point x="521" y="38"/>
      <point x="579" y="128" type="curve"/>
    </contour>
  </outline>
</glyph>
<glyph name="H" format="1">
  <advance width="704"/>
  <unicode hex="0048"/>
  <outline>
    <contour>
      <point x="488" y="314" type="line"/>
      <point x="473" y="351" type="line"/>
      <point x="236" y="351" type="line"/>
      <point x="212" y="314" type="line"/>
    </contour>
    <component base="I" xOffset="-5"/>
    <component base="I" xOffset="385"/>
  </outline>
</glyph>
<glyph name="I" format="1">
  <advance width="324"/>
  <unicode hex="0049"/>
  <outline>
    <contour>
      <point x="255" y="629" type="line"/>
      <point x="304" y="630" type="line"/>
      <point x="304" y="670" type="line"/>
      <point x="20" y="670" type="line"/>
      <point x="20" y="630" type="line"/>
      <point x="69" y="629" type="line"/>
      <point x="69" y="41" type="line"/>
      <point x="20" y="40" type="line"/>
      <point x="20" y="0" type="line"/>
      <point x="304" y="0" type="line"/>
      <point x="304" y="40" type="line"/>
      <point x="255" y="41" type="line"/>
    </contour>
  </outline>
</glyph>
<glyph name="J" format="1">
  <advance width="324"/>
  <unicode hex="004A"/>
  <outline>
    <contour>
      <point x="245" y="634" type="line"/>
      <point x="294" y="635" type="line"/>
      <point x="294" y="670" type="line"/>
      <point x="30" y="670" type="line"/>
      <point x="30" y="635" type="line"/>
      <point x="79" y="634" type="line"/>
      <point x="79" y="-184" type="line"/>
      <point x="90" y="-175" type="line"/>
      <point x="-32" y="-20" type="line"/>
      <point x="-115" y="-153" type="line"/>
      <point x="-89" y="-178"/>
      <point x="-24" y="-203"/>
      <point x="29" y="-203" type="curve" smooth="yes"/>
      <point x="158" y="-203"/>
      <point x="245" y="-98"/>
      <point x="245" y="215" type="curve" smooth="yes"/>
    </contour>
  </outline>
</glyph>
<glyph name="K" format="1">
  <advance width="711"/>
  <unicode hex="004B"/>
  <outline>
    <contour>
      <point x="367" y="391" type="line"/>
      <point x="588" y="634" type="line"/>
      <point x="642" y="635" type="line"/>
      <point x="642" y="670" type="line"/>
      <point x="404" y="670" type="line"/>
      <point x="404" y="635" type="line"/>
      <point x="463" y="634" type="line"/>
      <point x="266" y="329" type="line"/>
      <point x="429" y="36" type="line"/>
      <point x="380" y="35" type="line"/>
      <point x="380" y="0" type="line"/>
      <point x="688" y="0" type="line"/>
      <point x="688" y="35" type="line"/>
      <point x="639" y="36" type="line"/>
      <point x="386" y="435" type="line"/>
    </contour>
    <component base="I"/>
  </outline>
</glyph>
<glyph name="L" format="1">
  <advance width="557"/>
  <unicode hex="004C"/>
  <outline>
    <contour>
      <point x="344" y="635" type="line"/>
      <point x="344" y="670" type="line"/>
      <point x="20" y="670" type="line"/>
      <point x="20" y="635" type="line"/>
      <point x="69" y="634" type="line"/>
      <point x="69" y="36" type="line"/>
      <point x="20" y="35" type="line"/>
      <point x="20" y="0" type="line"/>
      <point x="527" y="0" type="line"/>
      <point x="527" y="179" type="line"/>
      <point x="488" y="178" type="line"/>
      <point x="486" y="128" type="line"/>
      <point x="387" y="85"/>
      <point x="287" y="49"/>
      <point x="188" y="22" type="curve"/>
      <point x="235" y="21" type="line"/>
      <point x="235" y="634" type="line"/>
    </contour>
  </outline>
</glyph>
<glyph name="M" format="1">
  <advance width="919"/>
  <unicode hex="004D"/>
  <outline>
    <contour>
      <point x="508" y="308" type="line"/>
      <point x="325" y="670" type="line"/>
      <point x="156" y="670" type="line"/>
      <point x="64" y="36" type="line"/>
      <point x="15" y="35" type="line"/>
      <point x="15" y="0" type="line"/>
      <point x="239" y="0" type="line"/>
      <point x="239" y="35" type="line"/>
      <point x="190" y="36" type="line"/>
      <point x="205" y="625" type="line"/>
      <point x="171" y="619" type="line"/>
      <point x="415" y="112" type="line"/>
      <point x="442" y="112" type="line"/>
      <point x="666" y="617" type="line"/>
      <point x="634" y="614" type="line"/>
      <point x="671" y="36" type="line"/>
      <point x="622" y="35" type="line"/>
      <point x="622" y="0" type="line"/>
      <point x="904" y="0" type="line"/>
      <point x="904" y="35" type="line"/>
      <point x="855" y="36" type="line"/>
      <point x="784" y="670" type="line"/>
      <point x="635" y="670" type="line"/>
      <point x="471" y="281" type="line"/>
    </contour>
    <contour>
      <point x="836" y="635" type="line"/>
      <point x="836" y="670" type="line"/>
      <point x="784" y="670" type="line"/>
      <point x="787" y="634" type="line"/>
    </contour>
    <contour>
      <point x="156" y="670" type="line"/>
      <point x="105" y="670" type="line"/>
      <point x="105" y="635" type="line"/>
      <point x="154" y="634" type="line"/>
    </contour>
  </outline>
</glyph>
<glyph name="N" format="1">
  <advance width="669"/>
  <unicode hex="004E"/>
  <outline>
    <contour>
      <point x="155" y="36" type="line"/>
      <point x="204" y="35" type="line"/>
      <point x="204" y="0" type="line"/>
      <point x="10" y="0" type="line"/>
      <point x="10" y="35" type="line"/>
      <point x="59" y="36" type="line"/>
      <point x="74" y="634" type="line"/>
      <point x="25" y="635" type="line"/>
      <point x="25" y="670" type="line"/>
      <point x="259" y="670" type="line"/>
      <point x="563" y="165" type="line"/>
      <point x="547" y="158" type="line"/>
      <point x="504" y="634" type="line"/>
      <point x="455" y="635" type="line"/>
      <point x="455" y="670" type="line"/>
      <point x="649" y="670" type="line"/>
      <point x="649" y="635" type="line"/>
      <point x="600" y="634" type="line"/>
      <point x="575" y="1" type="line"/>
      <point x="450" y="0" type="line"/>
      <point x="81" y="623" type="line"/>
      <point x="110" y="634" type="line"/>
    </contour>
  </outline>
</glyph>
<glyph name="O" format="1">
  <advance width="761"/>
  <unicode hex="004F"/>
  <outline>
    <contour>
      <point x="433" y="616"/>
      <point x="549" y="531"/>
      <point x="549" y="284" type="curve" smooth="yes"/>
      <point x="549" y="232"/>
      <point x="539" y="117"/>
      <point x="519" y="45" type="curve"/>
      <point x="545" y="55" type="line"/>
      <point x="328" y="55"/>
      <point x="213" y="139"/>
      <point x="213" y="386" type="curve" smooth="yes"/>
      <point x="213" y="438"/>
      <point x="224" y="553"/>
      <point x="244" y="625" type="curve"/>
      <point x="222" y="616" type="line"/>
    </contour>
    <contour>
      <point x="284" y="685"/>
      <point x="189" y="640"/>
      <point x="131" y="585" type="curve"/>
      <point x="62" y="507"/>
      <point x="35" y="401"/>
      <point x="35" y="316" type="curve" smooth="yes"/>
      <point x="35" y="98"/>
      <point x="177" y="-15"/>
      <point x="375" y="-15" type="curve" smooth="yes"/>
      <point x="478" y="-15"/>
      <point x="573" y="30"/>
      <point x="632" y="85" type="curve"/>
      <point x="697" y="163"/>
      <point x="726" y="269"/>
      <point x="726" y="354" type="curve" smooth="yes"/>
      <point x="726" y="572"/>
      <point x="584" y="685"/>
      <point x="385" y="685" type="curve" smooth="yes"/>
    </contour>
  </outline>
</glyph>
<glyph name="P" format="1">
  <advance width="630"/>
  <unicode hex="0050"/>
  <outline>
    <contour>
      <point x="255" y="41" type="line"/>
      <point x="364" y="40" type="line"/>
      <point x="364" y="0" type="line"/>
      <point x="20" y="0" type="line"/>
      <point x="20" y="40" type="line"/>
      <point x="69" y="41" type="line"/>
      <point x="69" y="629" type="line"/>
      <point x="20" y="630" type="line"/>
      <point x="20" y="670" type="line"/>
      <point x="256" y="670" type="line"/>
      <point x="452" y="670" type="line"/>
      <point x="541" y="655"/>
      <point x="600" y="587"/>
      <point x="600" y="499" type="curve" smooth="yes"/>
      <point x="600" y="339"/>
      <point x="476" y="258"/>
      <point x="232" y="258" type="curve"/>
      <point x="232" y="296" type="line"/>
      <point x="354" y="296"/>
      <point x="412" y="348"/>
      <point x="412" y="458" type="curve" smooth="yes"/>
      <point x="412" y="557"/>
      <point x="346" y="628"/>
      <point x="255" y="628" type="curve"/>
    </contour>
  </outline>
</glyph>
<glyph name="Q" format="1">
  <advance width="750"/>
  <unicode hex="0051"/>
  <outline>
    <contour>
      <point x="217" y="-52" type="line"/>
      <point x="217" y="-114" type="line"/>
      <point x="341" y="-174"/>
      <point x="579" y="-242"/>
      <point x="696" y="-250" type="curve"/>
      <point x="748" y="-84" type="line"/>
      <point x="608" y="-95"/>
      <point x="398" y="-91"/>
      <point x="273" y="-73" type="curve"/>
      <point x="507" y="7" type="line"/>
      <point x="485" y="40" type="line"/>
    </contour>
    <component base="O"/>
  </outline>
</glyph>
<glyph name="R" format="1">
  <advance width="716"/>
  <unicode hex="0052"/>
  <outline>
    <contour>
      <point x="645" y="36" type="line"/>
      <point x="694" y="35" type="line"/>
      <point x="694" y="0" type="line"/>
      <point x="386" y="0" type="line"/>
      <point x="386" y="35" type="line"/>
      <point x="435" y="36" type="line"/>
      <point x="317" y="268" type="line"/>
      <point x="437" y="344" type="line"/>
    </contour>
    <contour>
      <point x="255" y="36" type="line"/>
      <point x="304" y="35" type="line"/>
      <point x="304" y="0" type="line"/>
      <point x="40" y="0" type="line"/>
      <point x="40" y="35" type="line"/>
      <point x="89" y="36" type="line"/>
      <point x="89" y="634" type="line"/>
      <point x="40" y="635" type="line"/>
      <point x="40" y="670" type="line"/>
      <point x="233" y="668" type="line"/>
      <point x="233" y="668"/>
      <point x="322" y="680"/>
      <point x="382" y="680" type="curve" smooth="yes"/>
      <point x="532" y="680"/>
      <point x="610" y="581"/>
      <point x="610" y="493" type="curve" smooth="yes"/>
      <point x="610" y="329"/>
      <point x="483" y="246"/>
      <point x="232" y="246" type="curve"/>
      <point x="232" y="284" type="line"/>
      <point x="368" y="284"/>
      <point x="432" y="338"/>
      <point x="432" y="452" type="curve" smooth="yes"/>
      <point x="432" y="555"/>
      <point x="358" y="635"/>
      <point x="255" y="635" type="curve"/>
    </contour>
  </outline>
</glyph>
<glyph name="S" format="1">
  <advance width="600"/>
  <unicode hex="0053"/>
  <outline>
    <contour>
      <point x="353" y="71"/>
      <point x="308" y="20"/>
      <point x="246" y="20" type="curve"/>
      <point x="138" y="212" type="line"/>
      <point x="25" y="125" type="line"/>
      <point x="67" y="43"/>
      <point x="150" y="-15"/>
      <point x="268" y="-15" type="curve" smooth="yes"/>
      <point x="448" y="-15"/>
      <point x="531" y="87"/>
      <point x="531" y="181" type="curve" smooth="yes"/>
      <point x="531" y="382"/>
      <point x="229" y="424"/>
      <point x="229" y="556" type="curve" smooth="yes"/>
      <point x="229" y="614"/>
      <point x="258" y="650"/>
      <point x="319" y="650" type="curve"/>
      <point x="429" y="480" type="line"/>
      <point x="532" y="591" type="line"/>
      <point x="489" y="643"/>
      <point x="416" y="685"/>
      <point x="332" y="685" type="curve" smooth="yes"/>
      <point x="145" y="685"/>
      <point x="57" y="595"/>
      <point x="57" y="480" type="curve" smooth="yes"/>
      <point x="57" y="294"/>
      <point x="353" y="267"/>
      <point x="353" y="131" type="curve" smooth="yes"/>
    </contour>
  </outline>
</glyph>
<glyph name="T" format="1">
  <advance width="660"/>
  <unicode hex="0054"/>
  <outline>
    <contour>
      <point x="271" y="648" type="line"/>
      <point x="203" y="621"/>
      <point x="134" y="585"/>
      <point x="66" y="542" type="curve"/>
      <point x="64" y="492" type="line"/>
      <point x="25" y="491" type="line"/>
      <point x="25" y="670" type="line"/>
      <point x="635" y="670" type="line"/>
      <point x="635" y="491" type="line"/>
      <point x="596" y="492" type="line"/>
      <point x="594" y="542" type="line"/>
      <point x="526" y="585"/>
      <point x="457" y="621"/>
      <point x="389" y="648" type="curve"/>
      <point x="413" y="648" type="line"/>
      <point x="413" y="36" type="line"/>
      <point x="462" y="35" type="line"/>
      <point x="462" y="0" type="line"/>
      <point x="198" y="0" type="line"/>
      <point x="198" y="35" type="line"/>
      <point x="247" y="36" type="line"/>
      <point x="247" y="648" type="line"/>
    </contour>
  </outline>
</glyph>
<glyph name="U" format="1">
  <advance width="749"/>
  <unicode hex="0055"/>
  <outline>
    <contour>
      <point x="504" y="147" type="line"/>
      <point x="475" y="97"/>
      <point x="439" y="74"/>
      <point x="390" y="74" type="curve" smooth="yes"/>
      <point x="294" y="74"/>
      <point x="240" y="159"/>
      <point x="240" y="311" type="curve" smooth="yes"/>
      <point x="240" y="634" type="line"/>
      <point x="289" y="635" type="line"/>
      <point x="289" y="670" type="line"/>
      <point x="25" y="670" type="line"/>
      <point x="25" y="635" type="line"/>
      <point x="74" y="634" type="line"/>
      <point x="74" y="286" type="line" smooth="yes"/>
      <point x="74" y="94"/>
      <point x="166" y="-15"/>
      <point x="318" y="-15" type="curve" smooth="yes"/>
      <point x="412" y="-15"/>
      <point x="490" y="33"/>
      <point x="534" y="119" type="curve"/>
    </contour>
    <contour>
      <point x="704" y="635" type="line"/>
      <point x="704" y="670" type="line"/>
      <point x="440" y="670" type="line"/>
      <point x="440" y="635" type="line"/>
      <point x="489" y="634" type="line"/>
      <point x="489" y="88" type="line"/>
      <point x="623" y="0" type="line"/>
      <point x="655" y="0" type="line"/>
      <point x="655" y="634" type="line"/>
    </contour>
  </outline>
</glyph>
<glyph name="V" format="1">
  <advance width="682"/>
  <unicode hex="0056"/>
  <outline>
    <contour>
      <point x="672" y="630" type="line"/>
      <point x="672" y="670" type="line"/>
      <point x="450" y="670" type="line"/>
      <point x="450" y="630" type="line"/>
      <point x="501" y="629" type="line"/>
      <point x="387" y="79" type="line"/>
      <point x="404" y="93" type="line"/>
      <point x="244" y="629" type="line"/>
      <point x="293" y="630" type="line"/>
      <point x="293" y="670" type="line"/>
      <point x="10" y="670" type="line"/>
      <point x="10" y="630" type="line"/>
      <point x="59" y="629" type="line"/>
      <point x="279" y="-2" type="line"/>
      <point x="403" y="15" type="line"/>
      <point x="623" y="629" type="line"/>
    </contour>
  </outline>
</glyph>
<glyph name="W" format="1">
  <advance width="1093"/>
  <unicode hex="0057"/>
  <outline>
    <contour>
      <point x="666" y="635" type="line"/>
      <point x="666" y="670" type="line"/>
      <point x="440" y="670" type="line"/>
      <point x="440" y="635" type="line"/>
      <point x="491" y="634" type="line"/>
      <point x="387" y="72" type="line"/>
      <point x="409" y="76" type="line"/>
      <point x="262" y="634" type="line"/>
      <point x="311" y="635" type="line"/>
      <point x="311" y="670" type="line"/>
      <point x="10" y="670" type="line"/>
      <point x="10" y="635" type="line"/>
      <point x="59" y="634" type="line"/>
      <point x="279" y="-9" type="line"/>
      <point x="403" y="8" type="line"/>
      <point x="617" y="634" type="line"/>
    </contour>
    <contour>
      <point x="1098" y="635" type="line"/>
      <point x="1098" y="670" type="line"/>
      <point x="872" y="670" type="line"/>
      <point x="872" y="635" type="line"/>
      <point x="923" y="634" type="line"/>
      <point x="819" y="72" type="line"/>
      <point x="841" y="76" type="line"/>
      <point x="694" y="634" type="line"/>
      <point x="743" y="635" type="line"/>
      <point x="743" y="670" type="line"/>
      <point x="442" y="670" type="line"/>
      <point x="442" y="635" type="line"/>
      <point x="491" y="634" type="line"/>
      <point x="711" y="-9" type="line"/>
      <point x="835" y="8" type="line"/>
      <point x="1049" y="634" type="line"/>
    </contour>
  </outline>
</glyph>
<glyph name="X" format="1">
  <advance width="700"/>
  <unicode hex="0058"/>
  <outline>
    <contour>
      <point x="296" y="629" type="line"/>
      <point x="345" y="630" type="line"/>
      <point x="345" y="670" type="line"/>
      <point x="34" y="670" type="line"/>
      <point x="34" y="630" type="line"/>
      <point x="83" y="629" type="line"/>
      <point x="399" y="41" type="line"/>
      <point x="350" y="40" type="line"/>
      <point x="350" y="0" type="line"/>
      <point x="661" y="0" type="line"/>
      <point x="661" y="40" type="line"/>
      <point x="612" y="41" type="line"/>
    </contour>
    <contour>
      <point x="320" y="379" type="line"/>
      <point x="323" y="418" type="line"/>
      <point x="86" y="41" type="line"/>
      <point x="27" y="40" type="line"/>
      <point x="27" y="0" type="line"/>
      <point x="280" y="0" type="line"/>
      <point x="280" y="40" type="line"/>
      <point x="216" y="41" type="line"/>
    </contour>
    <contour>
      <point x="652" y="630" type="line"/>
      <point x="652" y="670" type="line"/>
      <point x="404" y="670" type="line"/>
      <point x="404" y="630" type="line"/>
      <point x="468" y="629" type="line"/>
      <point x="366" y="350" type="line"/>
      <point x="363" y="312" type="line"/>
      <point x="593" y="629" type="line"/>
    </contour>
  </outline>
</glyph>
<glyph name="Y" format="1">
  <advance width="600"/>
  <unicode hex="0059"/>
  <outline>
    <contour>
      <point x="661" y="635" type="line"/>
      <point x="661" y="670" type="line"/>
      <point x="435" y="670" type="line"/>
      <point x="435" y="635" type="line"/>
      <point x="486" y="634" type="line"/>
      <point x="387" y="312" type="line"/>
      <point x="409" y="316" type="line"/>
      <point x="267" y="634" type="line"/>
      <point x="316" y="635" type="line"/>
      <point x="316" y="670" type="line"/>
      <point x="15" y="670" type="line"/>
      <point x="15" y="635" type="line"/>
      <point x="64" y="634" type="line"/>
      <point x="279" y="231" type="line"/>
      <point x="403" y="248" type="line"/>
      <point x="612" y="634" type="line"/>
    </contour>
    <contour>
      <point x="424" y="294" type="line"/>
      <point x="258" y="294" type="line"/>
      <point x="258" y="36" type="line"/>
      <point x="209" y="35" type="line"/>
      <point x="209" y="0" type="line"/>
      <point x="473" y="0" type="line"/>
      <point x="473" y="35" type="line"/>
      <point x="424" y="36" type="line"/>
    </contour>
  </outline>
</glyph>
<glyph name="Z" format="1">
  <advance width="585"/>
  <unicode hex="005A"/>
  <outline>
    <contour>
      <point x="34" y="34" type="line"/>
      <point x="34" y="0" type="line"/>
      <point x="560" y="0" type="line"/>
      <point x="560" y="177" type="line"/>
      <point x="521" y="176" type="line"/>
      <point x="519" y="126" type="line"/>
      <point x="418" y="85"/>
      <point x="317" y="53"/>
      <point x="216" y="28" type="curve"/>
      <point x="217" y="14" type="line"/>
      <point x="542" y="626" type="line"/>
      <point x="542" y="670" type="line"/>
      <point x="47" y="670" type="line"/>
      <point x="47" y="493" type="line"/>
      <point x="86" y="494" type="line"/>
      <point x="88" y="544" type="line"/>
      <point x="184" y="586"/>
      <point x="280" y="621"/>
      <point x="376" y="647" type="curve"/>
      <point x="367" y="660" type="line"/>
    </contour>
  </outline>
</glyph>
<glyph name="grave" format="1">
  <advance width="600"/>
  <unicode hex="0060"/>
  <outline>
    <component base="acute" xOffset="510" xScale="-1"/>
    <contour>
      <point x="254" y="574" type="move" name="bottom"/>
    </contour>
  </outline>
</glyph>
<glyph name="a" format="1">
  <advance width="459"/>
  <unicode hex="0061"/>
  <outline>
    <contour>
      <point x="447" y="52" type="line"/>
      <point x="435" y="81" type="line"/>
      <point x="404" y="69" type="line"/>
      <point x="392" y="88"/>
      <point x="389" y="101"/>
      <point x="393" y="155" type="curve" smooth="yes"/>
      <point x="403" y="290" type="line" smooth="yes"/>
      <point x="412" y="418"/>
      <point x="335" y="465"/>
      <point x="246" y="465" type="curve" smooth="yes"/>
      <point x="201" y="465"/>
      <point x="152" y="453"/>
      <point x="103" y="432" type="curve"/>
      <point x="57" y="288" type="line"/>
      <point x="84" y="278" type="line"/>
      <point x="100" y="312" type="line"/>
      <point x="122" y="322"/>
      <point x="154" y="328"/>
      <point x="180" y="328" type="curve" smooth="yes"/>
      <point x="243" y="328"/>
      <point x="267" y="290"/>
      <point x="264" y="232" type="curve" smooth="yes"/>
      <point x="257" y="112" type="line" smooth="yes"/>
      <point x="253" y="51"/>
      <point x="264" y="9"/>
      <point x="300" y="-17" type="curve"/>
    </contour>
    <contour>
      <point x="298" y="208" type="line"/>
      <point x="56" y="169" type="line"/>
      <point x="47" y="150"/>
      <point x="40" y="114"/>
      <point x="40" y="88" type="curve" smooth="yes"/>
      <point x="40" y="28"/>
      <point x="79" y="-15"/>
      <point x="133" y="-15" type="curve" smooth="yes"/>
      <point x="179" y="-15"/>
      <point x="248" y="18"/>
      <point x="299" y="57" type="curve"/>
      <point x="287" y="90" type="line"/>
      <point x="264" y="68"/>
      <point x="239" y="57"/>
      <point x="223" y="57" type="curve" smooth="yes"/>
      <point x="205" y="57"/>
      <point x="185" y="72"/>
      <point x="185" y="116" type="curve" smooth="yes"/>
      <point x="185" y="126"/>
      <point x="186" y="141"/>
      <point x="189" y="151" type="curve"/>
      <point x="294" y="176" type="line"/>
    </contour>
    <contour>
      <point x="246" y="574" type="move" name="top"/>
    </contour>
  </outline>
</glyph>
<glyph name="c" format="1">
  <advance width="483"/>
  <unicode hex="0063"/>
  <outline>
    <contour>
      <point x="227" y="107"/>
      <point x="182" y="165"/>
      <point x="185" y="267" type="curve" smooth="yes"/>
      <point x="187" y="343"/>
      <point x="217" y="418"/>
      <point x="254" y="440" type="curve"/>
      <point x="226" y="435" type="line"/>
      <point x="248" y="429"/>
      <point x="302" y="343"/>
      <point x="328" y="273" type="curve"/>
      <point x="443" y="340" type="line"/>
      <point x="406" y="421"/>
      <point x="343" y="465"/>
      <point x="264" y="465" type="curve" smooth="yes"/>
      <point x="219" y="465"/>
      <point x="167" y="452"/>
      <point x="122" y="430" type="curve"/>
      <point x="72" y="379"/>
      <point x="40" y="293"/>
      <point x="40" y="209" type="curve" smooth="yes"/>
      <point x="40" y="75"/>
      <point x="119" y="-15"/>
      <point x="237" y="-15" type="curve" smooth="yes"/>
      <point x="323" y="-15"/>
      <point x="407" y="36"/>
      <point x="454" y="117" type="curve"/>
      <point x="436" y="133" type="line"/>
      <point x="402" y="112"/>
      <point x="356" y="101"/>
      <point x="312" y="103" type="curve" smooth="yes"/>
    </contour>
    <contour>
      <point x="259" y="574" type="move" name="top"/>
    </contour>
    <contour>
      <point x="240" y="-65" type="move" name="bottom"/>
    </contour>
  </outline>
</glyph>
<glyph name="d" format="1">
  <advance width="541"/>
  <unicode hex="0064"/>
  <outline>
    <contour>
      <point x="336" y="50"/>
      <point x="352" y="12"/>
      <point x="390" y="-10" type="curve"/>
      <point x="536" y="69" type="line"/>
      <point x="524" y="96" type="line"/>
      <point x="494" y="82" type="line"/>
      <point x="482" y="98"/>
      <point x="476" y="116"/>
      <point x="476" y="166" type="curve"/>
      <point x="482" y="684" type="line"/>
      <point x="468" y="708" type="line"/>
      <point x="283" y="652" type="line"/>
      <point x="293" y="623" type="line"/>
      <point x="331" y="631" type="line"/>
      <point x="336" y="111" type="line"/>
    </contour>
    <contour>
      <point x="66" y="345"/>
      <point x="40" y="258"/>
      <point x="40" y="190" type="curve" smooth="yes"/>
      <point x="40" y="72"/>
      <point x="120" y="-15"/>
      <point x="237" y="-15" type="curve"/>
      <point x="359" y="128" type="line"/>
      <point x="345" y="154" type="line"/>
      <point x="291" y="100" type="line"/>
      <point x="236" y="100"/>
      <point x="184" y="154"/>
      <point x="184" y="250" type="curve" smooth="yes"/>
      <point x="184" y="305"/>
      <point x="194" y="365"/>
      <point x="218" y="406" type="curve"/>
      <point x="192" y="392" type="line"/>
      <point x="251" y="385"/>
      <point x="340" y="350"/>
      <point x="390" y="314" type="curve"/>
      <point x="471" y="413" type="line"/>
      <point x="425" y="438"/>
      <point x="309" y="465"/>
      <point x="251" y="465" type="curve" smooth="yes"/>
      <point x="205" y="465"/>
      <point x="123" y="422"/>
      <point x="98" y="387" type="curve"/>
    </contour>
  </outline>
</glyph>
<glyph name="e" format="1">
  <advance width="490"/>
  <unicode hex="0065"/>
  <outline>
    <contour>
      <point x="217" y="425" type="line"/>
      <point x="261" y="424"/>
      <point x="295" y="355"/>
      <point x="297" y="263" type="curve"/>
      <point x="170" y="252" type="line"/>
      <point x="170" y="220" type="line"/>
      <point x="454" y="230" type="line"/>
      <point x="455" y="374"/>
      <point x="382" y="465"/>
      <point x="266" y="465" type="curve" smooth="yes"/>
      <point x="218" y="465"/>
      <point x="157" y="450"/>
      <point x="122" y="430" type="curve"/>
      <point x="72" y="378"/>
      <point x="40" y="292"/>
      <point x="40" y="209" type="curve" smooth="yes"/>
      <point x="40" y="76"/>
      <point x="120" y="-15"/>
      <point x="238" y="-15" type="curve" smooth="yes"/>
      <point x="324" y="-15"/>
      <point x="407" y="36"/>
      <point x="454" y="117" type="curve"/>
      <point x="436" y="133" type="line"/>
      <point x="405" y="114"/>
      <point x="364" y="103"/>
      <point x="324" y="103" type="curve" smooth="yes"/>
      <point x="233" y="103"/>
      <point x="185" y="156"/>
      <point x="185" y="255" type="curve" smooth="yes"/>
      <point x="185" y="325"/>
      <point x="206" y="395"/>
      <point x="237" y="428" type="curve"/>
    </contour>
    <contour>
      <point x="259" y="574" type="move" name="top"/>
    </contour>
  </outline>
</glyph>
<glyph name="f" format="1">
  <advance width="313"/>
  <unicode hex="0066"/>
  <outline>
    <contour>
      <point x="88" y="32" type="line"/>
      <point x="51" y="29" type="line"/>
      <point x="51" y="0" type="line"/>
      <point x="284" y="0" type="line"/>
      <point x="284" y="29" type="line"/>
      <point x="227" y="32" type="line"/>
      <point x="227" y="416" type="line"/>
      <point x="316" y="416" type="line"/>
      <point x="316" y="450" type="line"/>
      <point x="229" y="450" type="line"/>
      <point x="203" y="486"/>
      <point x="163" y="596"/>
      <point x="163" y="669" type="curve"/>
      <point x="129" y="664" type="line"/>
      <point x="172" y="645"/>
      <point x="256" y="582"/>
      <point x="295" y="537" type="curve"/>
      <point x="378" y="656" type="line"/>
      <point x="349" y="678"/>
      <point x="288" y="702"/>
      <point x="225" y="702" type="curve" smooth="yes"/>
      <point x="136" y="702"/>
      <point x="80" y="662"/>
      <point x="62" y="608" type="curve"/>
      <point x="61" y="599"/>
      <point x="61" y="590"/>
      <point x="61" y="580" type="curve" smooth="yes"/>
      <point x="61" y="538"/>
      <point x="71" y="486"/>
      <point x="88" y="450" type="curve"/>
      <point x="32" y="450" type="line"/>
      <point x="32" y="416" type="line"/>
      <point x="88" y="416" type="line"/>
    </contour>
  </outline>
</glyph>
<glyph name="g" format="1">
  <advance width="488"/>
  <unicode hex="0067"/>
  <outline>
    <contour>
      <point x="165" y="131" type="line"/>
      <point x="130" y="89" type="line"/>
      <point x="138" y="77"/>
      <point x="164" y="65"/>
      <point x="204" y="62" type="curve" smooth="yes"/>
      <point x="327" y="53" type="line" smooth="yes"/>
      <point x="404" y="48"/>
      <point x="456" y="20"/>
      <point x="484" y="-17" type="curve"/>
      <point x="448" y="-125"/>
      <point x="349" y="-255"/>
      <point x="208" y="-255" type="curve" smooth="yes"/>
      <point x="120" y="-255"/>
      <point x="64" y="-205"/>
      <point x="64" y="-140" type="curve" smooth="yes"/>
      <point x="64" y="-98"/>
      <point x="86" y="-27"/>
      <point x="115" y="11" type="curve"/>
      <point x="142" y="1" type="line"/>
      <point x="120" y="-56" type="line"/>
      <point x="127" y="-105"/>
      <point x="179" y="-145"/>
      <point x="263" y="-145" type="curve" smooth="yes"/>
      <point x="327" y="-145"/>
      <point x="378" y="-123"/>
      <point x="385" y="-112" type="curve"/>
      <point x="379" y="-99"/>
      <point x="347" y="-71"/>
      <point x="267" y="-67" type="curve" smooth="yes"/>
      <point x="166" y="-62" type="line" smooth="yes"/>
      <point x="91" y="-58"/>
      <point x="54" y="-38"/>
      <point x="25" y="16" type="curve"/>
      <point x="145" y="151" type="line"/>
    </contour>
    <contour>
      <point x="396" y="571" type="line"/>
      <point x="408" y="574"/>
      <point x="422" y="575"/>
      <point x="434" y="575" type="curve" smooth="yes"/>
      <point x="463" y="575"/>
      <point x="493" y="569"/>
      <point x="518" y="558" type="curve"/>
      <point x="460" y="456" type="line"/>
      <point x="438" y="465"/>
      <point x="415" y="469"/>
      <point x="394" y="469" type="curve" smooth="yes"/>
      <point x="384" y="469"/>
      <point x="376" y="468"/>
      <point x="368" y="467" type="curve"/>
      <point x="334" y="420" type="line"/>
      <point x="309" y="430" type="line"/>
    </contour>
    <contour>
      <point x="198" y="419" type="line"/>
      <point x="186" y="389"/>
      <point x="174" y="345"/>
      <point x="174" y="302" type="curve" smooth="yes"/>
      <point x="174" y="206"/>
      <point x="238" y="164"/>
      <point x="343" y="164" type="curve"/>
      <point x="297" y="149" type="line"/>
      <point x="313" y="183"/>
      <point x="321" y="228"/>
      <point x="321" y="264" type="curve" smooth="yes"/>
      <point x="321" y="362"/>
      <point x="257" y="404"/>
      <point x="155" y="404" type="curve"/>
    </contour>
    <contour>
      <point x="369" y="465"/>
      <point x="447" y="399"/>
      <point x="447" y="301" type="curve" smooth="yes"/>
      <point x="447" y="244"/>
      <point x="416" y="188"/>
      <point x="390" y="154" type="curve"/>
      <point x="358" y="125"/>
      <point x="296" y="103"/>
      <point x="234" y="103" type="curve" smooth="yes"/>
      <point x="127" y="103"/>
      <point x="48" y="168"/>
      <point x="48" y="265" type="curve" smooth="yes"/>
      <point x="48" y="322"/>
      <point x="74" y="379"/>
      <point x="105" y="414" type="curve"/>
      <point x="136" y="440"/>
      <point x="196" y="465"/>
      <point x="262" y="465" type="curve" smooth="yes"/>
    </contour>
  </outline>
</glyph>
<glyph name="h" format="1">
  <advance width="600"/>
  <unicode hex="0068"/>
  <outline>
    <contour>
      <point x="245" y="595" type="line" smooth="yes"/>
      <point x="245" y="685"/>
      <point x="241" y="751"/>
      <point x="232" y="800" type="curve"/>
      <point x="22" y="694" type="line"/>
      <point x="32" y="662" type="line"/>
      <point x="76" y="677" type="line"/>
      <point x="84" y="649"/>
      <point x="89" y="593"/>
      <point x="89" y="527" type="curve" smooth="yes"/>
      <point x="89" y="38" type="line"/>
      <point x="35" y="32" type="line"/>
      <point x="35" y="0" type="line"/>
      <point x="299" y="0" type="line"/>
      <point x="299" y="32" type="line"/>
      <point x="245" y="38" type="line"/>
    </contour>
    <contour>
      <point x="379" y="38" type="line"/>
      <point x="325" y="32" type="line"/>
      <point x="325" y="0" type="line"/>
      <point x="589" y="0" type="line"/>
      <point x="589" y="32" type="line"/>
      <point x="535" y="38" type="line"/>
      <point x="535" y="300" type="line" smooth="yes"/>
      <point x="535" y="436"/>
      <point x="490" y="491"/>
      <point x="396" y="525" type="curve"/>
      <point x="226" y="333" type="line"/>
      <point x="238" y="301" type="line"/>
      <point x="316" y="371" type="line"/>
      <point x="350" y="362"/>
      <point x="379" y="318"/>
      <point x="379" y="249" type="curve" smooth="yes"/>
    </contour>
  </outline>
</glyph>
<glyph name="i" format="1">
  <advance width="278"/>
  <unicode hex="0069"/>
  <outline>
    <contour>
      <point x="53" y="711" type="line"/>
      <point x="79" y="666"/>
      <point x="108" y="628"/>
      <point x="142" y="598" type="curve"/>
      <point x="252" y="671" type="line"/>
      <point x="219" y="714"/>
      <point x="205" y="739"/>
      <point x="174" y="792" type="curve"/>
    </contour>
    <contour>
      <point x="278" y="468" type="line"/>
      <point x="278" y="500" type="line"/>
      <point x="18" y="500" type="line"/>
      <point x="18" y="468" type="line"/>
      <point x="72" y="462" type="line"/>
      <point x="72" y="38" type="line"/>
      <point x="18" y="32" type="line"/>
      <point x="18" y="0" type="line"/>
      <point x="278" y="0" type="line"/>
      <point x="278" y="32" type="line"/>
      <point x="224" y="38" type="line"/>
      <point x="224" y="462" type="line"/>
    </contour>
  </outline>
</glyph>
<glyph name="j" format="1">
  <advance width="245"/>
  <unicode hex="006A"/>
  <outline>
    <contour>
      <point x="67" y="89"/>
      <point x="65" y="285"/>
      <point x="61" y="380" type="curve"/>
      <point x="23" y="371" type="line"/>
      <point x="13" y="401" type="line"/>
      <point x="200" y="461" type="line"/>
      <point x="200" y="94" type="line" smooth="yes"/>
      <point x="200" y="2"/>
      <point x="195" y="-110"/>
      <point x="185" y="-166" type="curve"/>
      <point x="165" y="-201"/>
      <point x="104" y="-250"/>
      <point x="38" y="-250" type="curve" smooth="yes"/>
      <point x="-21" y="-250"/>
      <point x="-71" y="-236"/>
      <point x="-120" y="-206" type="curve"/>
      <point x="-45" y="-77" type="line"/>
      <point x="-6" y="-123"/>
      <point x="43" y="-178"/>
      <point x="100" y="-220" type="curve"/>
      <point x="65" y="-221" type="line"/>
      <point x="68" y="-149"/>
      <point x="69" y="-78"/>
      <point x="68" y="-6" type="curve" smooth="yes"/>
    </contour>
    <contour>
      <point x="141" y="676"/>
      <point x="100" y="672"/>
      <point x="59" y="665" type="curve"/>
      <point x="70" y="540" type="line"/>
      <point x="110" y="550"/>
      <point x="151" y="552"/>
      <point x="195" y="553" type="curve"/>
      <point x="185" y="673" type="line"/>
    </contour>
  </outline>
</glyph>
<glyph name="k" format="1">
  <advance width="575"/>
  <unicode hex="006B"/>
  <outline>
    <contour>
      <point x="226" y="790" type="line"/>
      <point x="22" y="724" type="line"/>
      <point x="32" y="692" type="line"/>
      <point x="74" y="701" type="line"/>
      <point x="74" y="35" type="line"/>
      <point x="37" y="32" type="line"/>
      <point x="37" y="0" type="line"/>
      <point x="263" y="0" type="line"/>
      <point x="263" y="32" type="line"/>
      <point x="226" y="35" type="line"/>
    </contour>
    <contour>
      <point x="522" y="412"/>
      <point x="475" y="484"/>
      <point x="373" y="513" type="curve"/>
      <point x="207" y="309" type="line"/>
      <point x="221" y="278" type="line"/>
      <point x="307" y="359" type="line"/>
      <point x="343" y="349"/>
      <point x="368" y="301"/>
      <point x="368" y="272" type="curve"/>
      <point x="208" y="193" type="line"/>
      <point x="210" y="154" type="line"/>
      <point x="522" y="291" type="line"/>
    </contour>
    <contour>
      <point x="353" y="53"/>
      <point x="386" y="9"/>
      <point x="415" y="-15" type="curve"/>
      <point x="572" y="75" type="line"/>
      <point x="560" y="107" type="line"/>
      <point x="527" y="91" type="line"/>
      <point x="508" y="107"/>
      <point x="480" y="140"/>
      <point x="434" y="232" type="curve" smooth="yes"/>
      <point x="412" y="280" type="line"/>
      <point x="290" y="219" type="line"/>
      <point x="313" y="158" type="line" smooth="yes"/>
    </contour>
  </outline>
</glyph>
<glyph name="o" format="1">
  <advance width="562"/>
  <unicode hex="006F"/>
  <outline>
    <contour>
      <point x="532" y="198"/>
      <point x="511" y="132"/>
      <point x="471" y="78" type="curve"/>
      <point x="427" y="40"/>
      <point x="322" y="-15"/>
      <point x="261" y="-15" type="curve" smooth="yes"/>
      <point x="127" y="-15"/>
      <point x="35" y="74"/>
      <point x="35" y="221" type="curve" smooth="yes"/>
      <point x="35" y="302"/>
      <point x="56" y="368"/>
      <point x="96" y="422" type="curve"/>
      <point x="140" y="460"/>
      <point x="245" y="515"/>
      <point x="306" y="515" type="curve" smooth="yes"/>
      <point x="440" y="515"/>
      <point x="532" y="426"/>
      <point x="532" y="279" type="curve" smooth="yes"/>
    </contour>
    <contour>
      <point x="197" y="163"/>
      <point x="243" y="86"/>
      <point x="331" y="86" type="curve" smooth="yes"/>
      <point x="386" y="86" type="line"/>
      <point x="362" y="61" type="line"/>
      <point x="368" y="113"/>
      <point x="370" y="163"/>
      <point x="370" y="239" type="curve" smooth="yes"/>
      <point x="370" y="337"/>
      <point x="324" y="414"/>
      <point x="236" y="414" type="curve" smooth="yes"/>
      <point x="181" y="414" type="line"/>
      <point x="205" y="439" type="line"/>
      <point x="199" y="387"/>
      <point x="197" y="337"/>
      <point x="197" y="261" type="curve" smooth="yes"/>
    </contour>
  </outline>
</glyph>
<glyph name="p" format="1">
  <advance width="529"/>
  <unicode hex="0070"/>
  <outline>
    <contour>
      <point x="77" y="-218" type="line"/>
      <point x="40" y="-221" type="line"/>
      <point x="40" y="-250" type="line"/>
      <point x="293" y="-250" type="line"/>
      <point x="293" y="-221" type="line"/>
      <point x="216" y="-218" type="line"/>
      <point x="216" y="342" type="line"/>
      <point x="183" y="462" type="line"/>
      <point x="29" y="413" type="line"/>
      <point x="39" y="383" type="line"/>
      <point x="77" y="392" type="line"/>
    </contour>
    <contour>
      <point x="485" y="115"/>
      <point x="510" y="192"/>
      <point x="510" y="260" type="curve" smooth="yes"/>
      <point x="510" y="378"/>
      <point x="431" y="465"/>
      <point x="315" y="465" type="curve"/>
      <point x="193" y="322" type="line"/>
      <point x="207" y="296" type="line"/>
      <point x="261" y="350" type="line"/>
      <point x="317" y="350"/>
      <point x="370" y="296"/>
      <point x="370" y="200" type="curve" smooth="yes"/>
      <point x="370" y="145"/>
      <point x="359" y="85"/>
      <point x="334" y="44" type="curve"/>
      <point x="360" y="58" type="line"/>
      <point x="301" y="65"/>
      <point x="212" y="100"/>
      <point x="162" y="136" type="curve"/>
      <point x="81" y="37" type="line"/>
      <point x="127" y="12"/>
      <point x="243" y="-15"/>
      <point x="301" y="-15" type="curve" smooth="yes"/>
      <point x="347" y="-15"/>
      <point x="429" y="38"/>
      <point x="454" y="73" type="curve"/>
    </contour>
  </outline>
</glyph>
<glyph name="q" format="1">
  <advance width="517"/>
  <unicode hex="0071"/>
  <outline>
    <contour>
      <point x="315" y="-255" type="line"/>
      <point x="498" y="-195" type="line"/>
      <point x="489" y="-167" type="line"/>
      <point x="451" y="-175" type="line"/>
      <point x="451" y="415" type="line"/>
      <point x="315" y="394" type="line"/>
    </contour>
    <contour>
      <point x="46" y="337"/>
      <point x="21" y="260"/>
      <point x="21" y="192" type="curve" smooth="yes"/>
      <point x="21" y="74"/>
      <point x="100" y="-13"/>
      <point x="216" y="-13" type="curve"/>
      <point x="338" y="130" type="line"/>
      <point x="324" y="156" type="line"/>
      <point x="270" y="102" type="line"/>
      <point x="214" y="102"/>
      <point x="161" y="156"/>
      <point x="161" y="252" type="curve" smooth="yes"/>
      <point x="161" y="307"/>
      <point x="172" y="367"/>
      <point x="197" y="408" type="curve"/>
      <point x="171" y="394" type="line"/>
      <point x="230" y="387"/>
      <point x="319" y="352"/>
      <point x="369" y="316" type="curve"/>
      <point x="450" y="415" type="line"/>
      <point x="404" y="440"/>
      <point x="288" y="467"/>
      <point x="230" y="467" type="curve" smooth="yes"/>
      <point x="184" y="467"/>
      <point x="102" y="414"/>
      <point x="77" y="379" type="curve"/>
    </contour>
  </outline>
</glyph>
<glyph name="r" format="1">
  <advance width="498"/>
  <unicode hex="0072"/>
  <outline>
    <contour>
      <point x="483" y="332" type="line"/>
      <point x="484" y="445"/>
      <point x="435" y="513"/>
      <point x="336" y="513" type="curve"/>
      <point x="227" y="345" type="line"/>
      <point x="236" y="305" type="line"/>
      <point x="293" y="366" type="line"/>
      <point x="326" y="366"/>
      <point x="346" y="333"/>
      <point x="350" y="285" type="curve"/>
    </contour>
    <component base="_part.shortstem" xOffset="-4"/>
  </outline>
</glyph>
<glyph name="s" format="1">
  <advance width="384"/>
  <unicode hex="0073"/>
  <outline>
    <contour>
      <point x="164" y="129"/>
      <point x="113" y="108"/>
      <point x="84" y="108" type="curve"/>
      <point x="60" y="153" type="line"/>
      <point x="31" y="138" type="line"/>
      <point x="98" y="-22" type="line"/>
      <point x="177" y="-16"/>
      <point x="344" y="40"/>
      <point x="344" y="150" type="curve" smooth="yes"/>
      <point x="344" y="225"/>
      <point x="218" y="300"/>
      <point x="218" y="349" type="curve" smooth="yes"/>
      <point x="218" y="371"/>
      <point x="269" y="392"/>
      <point x="298" y="392" type="curve"/>
      <point x="322" y="347" type="line"/>
      <point x="351" y="362" type="line"/>
      <point x="284" y="522" type="line"/>
      <point x="205" y="516"/>
      <point x="30" y="460"/>
      <point x="30" y="350" type="curve" smooth="yes"/>
      <point x="30" y="275"/>
      <point x="164" y="200"/>
      <point x="164" y="151" type="curve" smooth="yes"/>
    </contour>
  </outline>
</glyph>
<glyph name="t" format="1">
  <advance width="334"/>
  <unicode hex="0074"/>
  <outline>
    <contour>
      <point x="-5" y="420" type="line"/>
      <point x="70" y="420" type="line"/>
      <point x="70" y="165" type="line" smooth="yes"/>
      <point x="70" y="37"/>
      <point x="132" y="-9"/>
      <point x="244" y="-9" type="curve"/>
      <point x="334" y="111" type="line"/>
      <point x="311" y="131" type="line"/>
      <point x="286" y="106" type="line"/>
      <point x="250" y="106"/>
      <point x="211" y="145"/>
      <point x="211" y="223" type="curve" smooth="yes"/>
      <point x="211" y="603" type="line"/>
      <point x="176" y="603" type="line"/>
      <point x="127" y="536"/>
      <point x="65" y="482"/>
      <point x="-5" y="452" type="curve"/>
    </contour>
    <contour>
      <point x="166" y="420" type="line"/>
      <point x="320" y="420" type="line"/>
      <point x="320" y="462" type="line"/>
      <point x="166" y="457" type="line"/>
    </contour>
  </outline>
</glyph>
<glyph name="u" format="1">
  <advance width="600"/>
  <unicode hex="0075"/>
  <outline>
    <contour>
      <point x="351" y="200" type="line" smooth="yes"/>
      <point x="351" y="114"/>
      <point x="366" y="47"/>
      <point x="397" y="-5" type="curve"/>
      <point x="582" y="101" type="line"/>
      <point x="572" y="133" type="line"/>
      <point x="528" y="118" type="line"/>
      <point x="512" y="144"/>
      <point x="503" y="198"/>
      <point x="503" y="268" type="curve" smooth="yes"/>
      <point x="503" y="500" type="line"/>
      <point x="297" y="500" type="line"/>
      <point x="297" y="468" type="line"/>
      <point x="351" y="462" type="line"/>
    </contour>
    <contour>
      <point x="218" y="500" type="line"/>
      <point x="12" y="500" type="line"/>
      <point x="12" y="468" type="line"/>
      <point x="66" y="462" type="line"/>
      <point x="66" y="220" type="line" smooth="yes"/>
      <point x="66" y="83"/>
      <point x="113" y="9"/>
      <point x="215" y="-22" type="curve"/>
      <point x="371" y="182" type="line"/>
      <point x="357" y="213" type="line"/>
      <point x="279" y="134" type="line"/>
      <point x="240" y="144"/>
      <point x="218" y="197"/>
      <point x="218" y="281" type="curve" smooth="yes"/>
    </contour>
  </outline>
</glyph>
<glyph name="v" format="1">
  <advance width="486"/>
  <unicode hex="0076"/>
  <outline>
    <contour>
      <point x="491" y="418" type="line"/>
      <point x="491" y="450" type="line"/>
      <point x="313" y="450" type="line"/>
      <point x="313" y="418" type="line"/>
      <point x="352" y="417" type="line"/>
      <point x="278" y="62" type="line"/>
      <point x="295" y="68" type="line"/>
      <point x="189" y="417" type="line"/>
      <point x="228" y="418" type="line"/>
      <point x="228" y="450" type="line"/>
      <point x="-18" y="450" type="line"/>
      <point x="-18" y="418" type="line"/>
      <point x="21" y="417" type="line"/>
      <point x="185" y="0" type="line"/>
      <point x="286" y="6" type="line"/>
      <point x="453" y="417" type="line"/>
    </contour>
  </outline>
</glyph>
<glyph name="w" format="1">
  <advance width="758"/>
  <unicode hex="0077"/>
  <outline>
    <contour>
      <point x="463" y="418" type="line"/>
      <point x="463" y="450" type="line"/>
      <point x="285" y="450" type="line"/>
      <point x="285" y="418" type="line"/>
      <point x="324" y="417" type="line"/>
      <point x="264" y="62" type="line"/>
      <point x="281" y="68" type="line"/>
      <point x="185" y="417" type="line"/>
      <point x="224" y="418" type="line"/>
      <point x="224" y="450" type="line"/>
      <point x="-15" y="450" type="line"/>
      <point x="-15" y="418" type="line"/>
      <point x="24" y="417" type="line"/>
      <point x="171" y="0" type="line"/>
      <point x="272" y="6" type="line"/>
      <point x="425" y="417" type="line"/>
    </contour>
    <contour>
      <point x="763" y="418" type="line"/>
      <point x="763" y="450" type="line"/>
      <point x="585" y="450" type="line"/>
      <point x="585" y="418" type="line"/>
      <point x="624" y="417" type="line"/>
      <point x="564" y="62" type="line"/>
      <point x="581" y="68" type="line"/>
      <point x="485" y="417" type="line"/>
      <point x="524" y="418" type="line"/>
      <point x="524" y="450" type="line"/>
      <point x="285" y="450" type="line"/>
      <point x="285" y="418" type="line"/>
      <point x="324" y="417" type="line"/>
      <point x="471" y="0" type="line"/>
      <point x="572" y="6" type="line"/>
      <point x="725" y="417" type="line"/>
    </contour>
  </outline>
</glyph>
<glyph name="x" format="1">
  <advance width="476"/>
  <unicode hex="0078"/>
  <outline>
    <contour>
      <point x="200" y="417" type="line"/>
      <point x="239" y="418" type="line"/>
      <point x="239" y="450" type="line"/>
      <point x="0" y="450" type="line"/>
      <point x="0" y="418" type="line"/>
      <point x="39" y="417" type="line"/>
      <point x="281" y="33" type="line"/>
      <point x="242" y="32" type="line"/>
      <point x="242" y="0" type="line"/>
      <point x="481" y="0" type="line"/>
      <point x="481" y="32" type="line"/>
      <point x="442" y="33" type="line"/>
    </contour>
    <contour>
      <point x="252" y="216" type="line"/>
      <point x="417" y="417" type="line"/>
      <point x="455" y="418" type="line"/>
      <point x="455" y="450" type="line"/>
      <point x="280" y="450" type="line"/>
      <point x="280" y="418" type="line"/>
      <point x="319" y="417" type="line"/>
      <point x="254" y="242" type="line"/>
    </contour>
    <contour>
      <point x="218" y="254" type="line"/>
      <point x="50" y="33" type="line"/>
      <point x="12" y="32" type="line"/>
      <point x="12" y="0" type="line"/>
      <point x="190" y="0" type="line"/>
      <point x="190" y="32" type="line"/>
      <point x="151" y="33" type="line"/>
      <point x="216" y="228" type="line"/>
    </contour>
  </outline>
</glyph>
<glyph name="y" format="1">
  <advance width="496"/>
  <unicode hex="0079"/>
  <outline>
    <contour>
      <point x="469" y="417" type="line"/>
      <point x="507" y="418" type="line"/>
      <point x="508" y="450" type="line"/>
      <point x="330" y="450" type="line"/>
      <point x="329" y="418" type="line"/>
      <point x="368" y="417" type="line"/>
      <point x="273" y="62" type="line"/>
      <point x="293" y="88" type="line"/>
      <point x="200" y="417" type="line"/>
      <point x="239" y="418" type="line"/>
      <point x="240" y="450" type="line"/>
      <point x="-9" y="450" type="line"/>
      <point x="-10" y="418" type="line"/>
      <point x="29" y="417" type="line"/>
      <point x="183" y="0" type="line"/>
      <point x="274" y="5" type="line"/>
      <point x="274" y="35" type="line"/>
      <point x="199" y="-39"/>
      <point x="120" y="-100"/>
      <point x="29" y="-161" type="curve"/>
      <point x="132" y="-256" type="line"/>
      <point x="193" y="-180"/>
      <point x="271" y="-42"/>
      <point x="342" y="122" type="curve" smooth="yes"/>
    </contour>
  </outline>
</glyph>
<glyph name="z" format="1">
  <advance width="357"/>
  <unicode hex="007A"/>
  <outline>
    <contour>
      <point x="329" y="413" type="line"/>
      <point x="89" y="129" type="line"/>
      <point x="290" y="129" type="line"/>
      <point x="293" y="157" type="line"/>
      <point x="322" y="157" type="line"/>
      <point x="322" y="-2" type="line"/>
      <point x="-16" y="-3" type="line"/>
      <point x="-3" y="129" type="line"/>
      <point x="217" y="319" type="line"/>
      <point x="34" y="319" type="line"/>
      <point x="30" y="284" type="line"/>
      <point x="1" y="284" type="line"/>
      <point x="1" y="450" type="line"/>
      <point x="308" y="451" type="line"/>
    </contour>
  </outline>
</glyph>
<glyph name="dieresis" format="1">
  <advance width="600"/>
  <unicode hex="00A8"/>
  <outline>
    <contour>
      <point x="251" y="680" type="line"/>
      <point x="251" y="588" type="line"/>
      <point x="147" y="572" type="line"/>
      <point x="147" y="657" type="line"/>
    </contour>
    <contour>
      <point x="413" y="680" type="line"/>
      <point x="413" y="588" type="line"/>
      <point x="309" y="572" type="line"/>
      <point x="309" y="657" type="line"/>
    </contour>
    <contour>
      <point x="280" y="569" type="move" name="bottom"/>
    </contour>
  </outline>
</glyph>
<glyph name="macron" format="1">
  <advance width="600"/>
  <unicode hex="00AF"/>
  <outline>
    <contour>
      <point x="389" y="621" type="line"/>
      <point x="379" y="575" type="line"/>
      <point x="121" y="575" type="line"/>
      <point x="126" y="613" type="line"/>
    </contour>
    <contour>
      <point x="254" y="574" type="move" name="bottom"/>
    </contour>
  </outline>
</glyph>
<glyph name="acute" format="1">
  <advance width="600"/>
  <unicode hex="00B4"/>
  <outline>
    <contour>
      <point x="338" y="686" type="line"/>
      <point x="364" y="611" type="line"/>
      <point x="160" y="542" type="line"/>
      <point x="149" y="584" type="line"/>
    </contour>
    <contour>
      <point x="254" y="574" type="move" name="bottom"/>
    </contour>
  </outline>
</glyph>
<glyph name="cedilla" format="1">
  <advance width="600"/>
  <unicode hex="00B8"/>
  <outline>
    <contour>
      <point x="178" y="-115" type="line"/>
      <point x="240" y="-122"/>
      <point x="275" y="-160"/>
      <point x="275" y="-213" type="curve" smooth="yes"/>
      <point x="275" y="-222"/>
      <point x="274" y="-233"/>
      <point x="272" y="-238" type="curve"/>
      <point x="282" y="-233" type="line"/>
      <point x="265" y="-226"/>
      <point x="224" y="-200"/>
      <point x="193" y="-173" type="curve"/>
      <point x="158" y="-222" type="line"/>
      <point x="186" y="-237"/>
      <point x="232" y="-254"/>
      <point x="266" y="-254" type="curve" smooth="yes"/>
      <point x="287" y="-253"/>
      <point x="312" y="-241"/>
      <point x="330" y="-225" type="curve"/>
      <point x="348" y="-203"/>
      <point x="357" y="-176"/>
      <point x="357" y="-155" type="curve" smooth="yes"/>
      <point x="357" y="-96"/>
      <point x="308" y="-51"/>
      <point x="235" y="-65" type="curve"/>
      <point x="282" y="7" type="line"/>
      <point x="248" y="5" type="line"/>
      <point x="178" y="-88" type="line"/>
    </contour>
    <contour>
      <point x="235" y="-65" type="move" name="top"/>
    </contour>
  </outline>
</glyph>
<glyph name="dotaccent" format="1">
  <advance width="253"/>
  <unicode hex="02D9"/>
  <outline>
    <contour>
      <point x="192" y="677" type="line"/>
      <point x="192" y="563" type="line"/>
      <point x="64" y="544" type="line"/>
      <point x="64" y="648" type="line"/>
    </contour>
    <contour>
      <point x="133" y="554" type="move" name="bottom"/>
    </contour>
  </outline>
</glyph>
<glyph name="hamza-ar" format="1">
  <advance width="206"/>
  <unicode hex="0621"/>
  <outline>
    <contour>
      <point x="185" y="61" type="line"/>
      <point x="149" y="61"/>
      <point x="114" y="71"/>
      <point x="114" y="99" type="curve"/>
      <point x="119" y="109" type="line"/>
      <point x="107" y="96" type="line"/>
      <point x="116" y="98"/>
      <point x="144" y="102"/>
      <point x="170" y="100" type="curve"/>
      <point x="185" y="136" type="line"/>
      <point x="98" y="128"/>
      <point x="36" y="89"/>
      <point x="36" y="49" type="curve" smooth="yes"/>
      <point x="36" y="26"/>
      <point x="56" y="8"/>
      <point x="78" y="2" type="curve"/>
      <point x="20" y="-51" type="line"/>
      <point x="33" y="-64" type="line"/>
      <point x="186" y="46" type="line"/>
    </contour>
  </outline>
</glyph>
<glyph name="alef-ar" format="1">
  <advance width="242"/>
  <unicode hex="0627"/>
  <outline>
    <contour>
      <point x="95" y="532"/>
      <point x="146" y="579"/>
      <point x="185" y="599" type="curve"/>
      <point x="202" y="536"/>
      <point x="177" y="175"/>
      <point x="167" y="156" type="curve"/>
      <point x="102" y="5" type="line"/>
      <point x="80" y="13" type="line"/>
      <point x="81" y="140"/>
      <point x="72" y="346"/>
      <point x="59" y="488" type="curve"/>
    </contour>
  </outline>
</glyph>
<glyph name="hah-ar" format="1">
  <advance width="600"/>
  <unicode hex="062D"/>
  <outline>
    <contour>
      <point x="426" y="367"/>
      <point x="294" y="372"/>
      <point x="263" y="360" type="curve" smooth="yes"/>
      <point x="214" y="342"/>
      <point x="122" y="203"/>
      <point x="122" y="148" type="curve" smooth="yes"/>
      <point x="122" y="105"/>
      <point x="163" y="70"/>
      <point x="212" y="70" type="curve"/>
      <point x="307" y="197" type="line"/>
      <point x="261" y="198"/>
      <point x="209" y="224"/>
      <point x="209" y="246" type="curve" smooth="yes"/>
      <point x="209" y="261"/>
      <point x="326" y="261"/>
      <point x="359" y="245" type="curve"/>
      <point x="483" y="353" type="line"/>
    </contour>
    <contour>
      <point x="268" y="219"/>
      <point x="89" y="-15"/>
      <point x="89" y="-139" type="curve" smooth="yes"/>
      <point x="89" y="-229"/>
      <point x="154" y="-281"/>
      <point x="265" y="-281" type="curve" smooth="yes"/>
      <point x="411" y="-281"/>
      <point x="488" y="-219"/>
      <point x="536" y="-124" type="curve"/>
      <point x="438" y="-128"/>
      <point x="415" y="-129"/>
      <point x="377" y="-129" type="curve" smooth="yes"/>
      <point x="236" y="-129"/>
      <point x="160" y="-103"/>
      <point x="160" y="-54" type="curve" smooth="yes"/>
      <point x="160" y="15"/>
      <point x="304" y="187"/>
      <point x="507" y="360" type="curve"/>
      <point x="486" y="379" type="line"/>
    </contour>
  </outline>
</glyph>
<glyph name="dal-ar" format="1">
  <advance width="600"/>
  <unicode hex="062F"/>
  <outline>
    <contour>
      <point x="336" y="180"/>
      <point x="297" y="250"/>
      <point x="243" y="320" type="curve"/>
      <point x="384" y="417" type="line"/>
      <point x="425" y="335"/>
      <point x="449" y="256"/>
      <point x="442" y="174" type="curve" smooth="yes"/>
      <point x="442" y="149"/>
      <point x="411" y="72"/>
      <point x="365" y="21" type="curve"/>
      <point x="281" y="-1"/>
      <point x="181" y="-14"/>
      <point x="89" y="-16" type="curve"/>
      <point x="144" y="137" type="line"/>
      <point x="224" y="137"/>
      <point x="305" y="140"/>
      <point x="385" y="146" type="curve"/>
      <point x="357" y="110" type="line"/>
    </contour>
  </outline>
</glyph>
<glyph name="reh-ar" format="1">
  <advance width="465"/>
  <unicode hex="0631"/>
  <outline>
    <contour>
      <point x="415" y="108" type="line"/>
      <point x="445" y="104" type="line"/>
      <point x="424" y="-21"/>
      <point x="314" y="-133"/>
      <point x="225" y="-138" type="curve" smooth="yes"/>
      <point x="155" y="-142"/>
      <point x="50" y="-80"/>
      <point x="10" y="-17" type="curve"/>
      <point x="138" y="-4"/>
      <point x="315" y="26"/>
      <point x="394" y="50" type="curve"/>
    </contour>
  </outline>
</glyph>
<glyph name="seen-ar" format="1">
  <advance width="960"/>
  <unicode hex="0633"/>
  <outline>
    <contour>
      <point x="478" y="133"/>
      <point x="456" y="59"/>
      <point x="424" y="-6" type="curve" smooth="yes"/>
      <point x="395" y="-67"/>
      <point x="307" y="-151"/>
      <point x="203" y="-151" type="curve" smooth="yes"/>
      <point x="108" y="-151"/>
      <point x="36" y="-94"/>
      <point x="30" y="-6" type="curve"/>
      <point x="54" y="88"/>
      <point x="98" y="172"/>
      <point x="165" y="264" type="curve"/>
      <point x="197" y="187" type="line"/>
      <point x="160" y="153"/>
      <point x="126" y="113"/>
      <point x="90" y="57" type="curve"/>
      <point x="97" y="88" type="line"/>
      <point x="136" y="36"/>
      <point x="178" y="7"/>
      <point x="256" y="7" type="curve" smooth="yes"/>
      <point x="314" y="7"/>
      <point x="371" y="30"/>
      <point x="407" y="76" type="curve"/>
      <point x="348" y="146" type="line"/>
      <point x="478" y="167" type="line"/>
    </contour>
    <contour>
      <point x="429" y="73"/>
      <point x="385" y="98"/>
      <point x="348" y="146" type="curve"/>
      <point x="403" y="295" type="line"/>
      <point x="430" y="248"/>
      <point x="463" y="235"/>
      <point x="536" y="235" type="curve" smooth="yes"/>
      <point x="622" y="235"/>
      <point x="723" y="256"/>
      <point x="846" y="313" type="curve"/>
      <point x="860" y="293" type="line"/>
      <point x="804" y="129" type="line"/>
      <point x="775" y="133" type="line"/>
      <point x="785" y="183" type="line"/>
      <point x="676" y="103"/>
      <point x="586" y="73"/>
      <point x="507" y="73" type="curve" smooth="yes"/>
    </contour>
  </outline>
</glyph>
<glyph name="sad-ar" format="1">
  <advance width="861"/>
  <unicode hex="0635"/>
  <outline>
    <contour>
      <point x="394" y="-67"/>
      <point x="297" y="-151"/>
      <point x="193" y="-151" type="curve" smooth="yes"/>
      <point x="98" y="-151"/>
      <point x="26" y="-94"/>
      <point x="20" y="-6" type="curve"/>
      <point x="44" y="88"/>
      <point x="88" y="172"/>
      <point x="155" y="264" type="curve"/>
      <point x="187" y="187" type="line"/>
      <point x="150" y="153"/>
      <point x="116" y="113"/>
      <point x="80" y="57" type="curve"/>
      <point x="87" y="88" type="line"/>
      <point x="126" y="36"/>
      <point x="168" y="7"/>
      <point x="246" y="7" type="curve" smooth="yes"/>
      <point x="308" y="7"/>
      <point x="373" y="34"/>
      <point x="412" y="80" type="curve"/>
      <point x="405" y="62" type="line"/>
      <point x="389" y="97"/>
      <point x="354" y="146"/>
      <point x="310" y="187" type="curve"/>
      <point x="416" y="301" type="line"/>
      <point x="448" y="269"/>
      <point x="478" y="204"/>
      <point x="478" y="167" type="curve" smooth="yes"/>
      <point x="478" y="133"/>
      <point x="456" y="59"/>
      <point x="424" y="-6" type="curve" smooth="yes"/>
    </contour>
    <contour>
      <point x="452" y="194" type="line"/>
      <point x="551" y="205" type="line" smooth="yes"/>
      <point x="690" y="219"/>
      <point x="772" y="232"/>
      <point x="772" y="252" type="curve" smooth="yes"/>
      <point x="772" y="263"/>
      <point x="746" y="273"/>
      <point x="704" y="273" type="curve" smooth="yes"/>
      <point x="650" y="273"/>
      <point x="599" y="257"/>
      <point x="571" y="238" type="curve"/>
      <point x="505" y="91" type="line"/>
      <point x="486" y="101" type="line"/>
      <point x="532" y="222"/>
      <point x="568" y="318"/>
      <point x="598" y="359" type="curve" smooth="yes"/>
      <point x="630" y="402"/>
      <point x="685" y="425"/>
      <point x="740" y="425" type="curve" smooth="yes"/>
      <point x="797" y="425"/>
      <point x="826" y="400"/>
      <point x="826" y="331" type="curve" smooth="yes"/>
      <point x="826" y="259"/>
      <point x="796" y="162"/>
      <point x="752" y="120" type="curve" smooth="yes"/>
      <point x="718" y="87"/>
      <point x="656" y="69"/>
      <point x="538" y="57" type="curve" smooth="yes"/>
      <point x="396" y="42" type="line"/>
    </contour>
  </outline>
</glyph>
<glyph name="tah-ar" format="1">
  <advance width="512"/>
  <unicode hex="0637"/>
  <outline>
    <contour>
      <point x="186" y="562"/>
      <point x="237" y="613"/>
      <point x="277" y="635" type="curve"/>
      <point x="279" y="627"/>
      <point x="281" y="614"/>
      <point x="281" y="591" type="curve" smooth="yes"/>
      <point x="281" y="522"/>
      <point x="262" y="370"/>
      <point x="254" y="356" type="curve"/>
      <point x="189" y="209" type="line"/>
      <point x="167" y="216" type="line"/>
      <point x="168" y="351"/>
      <point x="163" y="427"/>
      <point x="150" y="518" type="curve"/>
    </contour>
    <contour>
      <point x="67" y="17"/>
      <point x="14" y="65"/>
      <point x="-24" y="122" type="curve" smooth="yes"/>
      <point x="-28" y="128"/>
      <point x="-31" y="133"/>
      <point x="-33" y="139" type="curve"/>
      <point x="63" y="135"/>
      <point x="165" y="133"/>
      <point x="215" y="134" type="curve" smooth="yes"/>
      <point x="357" y="137"/>
      <point x="436" y="163"/>
      <point x="436" y="182" type="curve" smooth="yes"/>
      <point x="436" y="193"/>
      <point x="412" y="203"/>
      <point x="364" y="203" type="curve" smooth="yes"/>
      <point x="316" y="203"/>
      <point x="263" y="187"/>
      <point x="235" y="168" type="curve"/>
      <point x="169" y="21" type="line"/>
      <point x="150" y="31" type="line"/>
      <point x="196" y="152"/>
      <point x="232" y="248"/>
      <point x="262" y="289" type="curve" smooth="yes"/>
      <point x="294" y="331"/>
      <point x="347" y="355"/>
      <point x="402" y="355" type="curve" smooth="yes"/>
      <point x="466" y="355"/>
      <point x="490" y="330"/>
      <point x="490" y="250" type="curve" smooth="yes"/>
      <point x="490" y="191"/>
      <point x="458" y="98"/>
      <point x="417" y="50" type="curve" smooth="yes"/>
      <point x="382" y="14"/>
      <point x="318" y="-18"/>
      <point x="199" y="-18" type="curve" smooth="yes"/>
      <point x="182" y="-18"/>
      <point x="151" y="-17"/>
      <point x="133" y="-14" type="curve"/>
    </contour>
  </outline>
</glyph>
<glyph name="ain-ar" format="1">
  <advance width="462"/>
  <unicode hex="0639"/>
  <outline>
    <contour>
      <point x="178" y="156"/>
      <point x="-22" y="-68"/>
      <point x="-22" y="-208" type="curve" smooth="yes"/>
      <point x="-22" y="-307"/>
      <point x="65" y="-355"/>
      <point x="177" y="-355" type="curve" smooth="yes"/>
      <point x="310" y="-355"/>
      <point x="417" y="-288"/>
      <point x="452" y="-224" type="curve"/>
      <point x="437" y="-225"/>
      <point x="420" y="-225"/>
      <point x="404" y="-225" type="curve" smooth="yes"/>
      <point x="239" y="-225"/>
      <point x="63" y="-176"/>
      <point x="63" y="-91" type="curve" smooth="yes"/>
      <point x="63" y="-40"/>
      <point x="267" y="99"/>
      <point x="351" y="138" type="curve"/>
      <point x="388" y="236" type="line"/>
    </contour>
    <contour>
      <point x="301" y="387"/>
      <point x="204" y="361"/>
      <point x="170" y="336" type="curve" smooth="yes"/>
      <point x="131" y="303"/>
      <point x="62" y="191"/>
      <point x="62" y="130" type="curve" smooth="yes"/>
      <point x="62" y="89"/>
      <point x="97" y="35"/>
      <point x="138" y="24" type="curve"/>
      <point x="263" y="145" type="line"/>
      <point x="196" y="154"/>
      <point x="134" y="218"/>
      <point x="134" y="264" type="curve"/>
      <point x="112" y="205" type="line"/>
      <point x="166" y="229"/>
      <point x="248" y="244"/>
      <point x="307" y="249" type="curve"/>
      <point x="350" y="391" type="line"/>
    </contour>
  </outline>
</glyph>
<glyph name="feh-ar" format="1">
  <advance width="753"/>
  <unicode hex="0641"/>
  <outline>
    <contour>
      <point x="723" y="223"/>
      <point x="699" y="275"/>
      <point x="665" y="275" type="curve" smooth="yes"/>
      <point x="611" y="275"/>
      <point x="521" y="160"/>
      <point x="521" y="113" type="curve" smooth="yes"/>
      <point x="521" y="86"/>
      <point x="552" y="72"/>
      <point x="599" y="72" type="curve" smooth="yes"/>
      <point x="628" y="72" type="line"/>
      <point x="636" y="21" type="line"/>
      <point x="654" y="39" type="line"/>
      <point x="584" y="7"/>
      <point x="462" y="-19"/>
      <point x="345" y="-19" type="curve" smooth="yes"/>
      <point x="197" y="-19"/>
      <point x="126" y="18"/>
      <point x="100" y="104" type="curve"/>
      <point x="100" y="55" type="line"/>
      <point x="126" y="85"/>
      <point x="173" y="127"/>
      <point x="213" y="156" type="curve"/>
      <point x="194" y="242" type="line"/>
      <point x="106" y="155"/>
      <point x="57" y="83"/>
      <point x="25" y="-7" type="curve"/>
      <point x="25" y="-109"/>
      <point x="122" y="-171"/>
      <point x="282" y="-171" type="curve" smooth="yes"/>
      <point x="426" y="-171"/>
      <point x="601" y="-117"/>
      <point x="658" y="-60" type="curve"/>
      <point x="689" y="-16"/>
      <point x="723" y="83"/>
      <point x="723" y="149" type="curve" smooth="yes"/>
    </contour>
    <component base="dotabove-ar" xOffset="336"/>
  </outline>
</glyph>
<glyph name="qaf-ar" format="1">
  <advance width="568"/>
  <unicode hex="0642"/>
  <outline>
    <contour>
      <point x="451" y="21" type="line"/>
      <point x="443" y="72" type="line"/>
      <point x="414" y="72" type="line" smooth="yes"/>
      <point x="367" y="72"/>
      <point x="336" y="86"/>
      <point x="336" y="113" type="curve" smooth="yes"/>
      <point x="336" y="160"/>
      <point x="426" y="275"/>
      <point x="480" y="275" type="curve" smooth="yes"/>
      <point x="514" y="275"/>
      <point x="538" y="223"/>
      <point x="538" y="149" type="curve"/>
    </contour>
    <component base="_part.secondarybowl" xOffset="60" yOffset="-16"/>
  </outline>
</glyph>
<glyph name="kaf-ar" format="1">
  <advance width="603"/>
  <unicode hex="0643"/>
  <outline>
    <contour>
      <point x="156" y="392"/>
      <point x="20" y="162"/>
      <point x="20" y="75" type="curve"/>
      <point x="35" y="21"/>
      <point x="144" y="-20"/>
      <point x="246" y="-20" type="curve" smooth="yes"/>
      <point x="357" y="-20"/>
      <point x="471" y="26"/>
      <point x="525" y="75" type="curve"/>
      <point x="563" y="122"/>
      <point x="583" y="242"/>
      <point x="583" y="277" type="curve" smooth="yes"/>
      <point x="583" y="407"/>
      <point x="568" y="574"/>
      <point x="554" y="614" type="curve"/>
      <point x="517" y="585"/>
      <point x="470" y="528"/>
      <point x="438" y="472" type="curve"/>
      <point x="464" y="394"/>
      <point x="502" y="246"/>
      <point x="507" y="162" type="curve"/>
      <point x="522" y="186" type="line"/>
      <point x="480" y="157"/>
      <point x="397" y="132"/>
      <point x="293" y="132" type="curve" smooth="yes"/>
      <point x="189" y="132"/>
      <point x="113" y="160"/>
      <point x="107" y="199" type="curve"/>
      <point x="108" y="180" type="line"/>
      <point x="135" y="225"/>
      <point x="208" y="306"/>
      <point x="275" y="351" type="curve"/>
      <point x="315" y="278" type="line"/>
      <point x="324" y="308" type="line"/>
      <point x="312" y="302"/>
      <point x="290" y="300"/>
      <point x="269" y="300" type="curve" smooth="yes"/>
      <point x="259" y="300"/>
      <point x="250" y="300"/>
      <point x="242" y="300" type="curve"/>
      <point x="202" y="202" type="line"/>
      <point x="220" y="195"/>
      <point x="237" y="195"/>
      <point x="255" y="195" type="curve" smooth="yes"/>
      <point x="292" y="195"/>
      <point x="334" y="203"/>
      <point x="361" y="216" type="curve"/>
      <point x="377" y="250"/>
      <point x="385" y="281"/>
      <point x="387" y="314" type="curve"/>
      <point x="362" y="368"/>
      <point x="336" y="421"/>
      <point x="311" y="475" type="curve"/>
    </contour>
  </outline>
</glyph>
<glyph name="lam-ar" format="1">
  <advance width="533"/>
  <unicode hex="0644"/>
  <outline>
    <contour>
      <point x="417" y="246"/>
      <point x="379" y="394"/>
      <point x="353" y="472" type="curve"/>
      <point x="385" y="528"/>
      <point x="432" y="585"/>
      <point x="469" y="614" type="curve"/>
      <point x="483" y="574"/>
      <point x="498" y="407"/>
      <point x="498" y="277" type="curve" smooth="yes"/>
      <point x="498" y="242"/>
      <point x="478" y="122"/>
      <point x="440" y="75" type="curve"/>
      <point x="394" y="26"/>
      <point x="302" y="-15"/>
      <point x="211" y="-15" type="curve" smooth="yes"/>
      <point x="121" y="-15"/>
      <point x="41" y="21"/>
      <point x="25" y="75" type="curve"/>
      <point x="38" y="147"/>
      <point x="112" y="289"/>
      <point x="196" y="357" type="curve"/>
      <point x="211" y="271" type="line"/>
      <point x="174" y="242"/>
      <point x="125" y="193"/>
      <point x="103" y="164" type="curve"/>
      <point x="102" y="199" type="line"/>
      <point x="108" y="160"/>
      <point x="162" y="137"/>
      <point x="247" y="137" type="curve" smooth="yes"/>
      <point x="335" y="137"/>
      <point x="400" y="157"/>
      <point x="437" y="186" type="curve"/>
      <point x="422" y="162" type="line"/>
    </contour>
  </outline>
</glyph>
<glyph name="meem-ar" format="1">
  <advance width="444"/>
  <unicode hex="0645"/>
  <outline>
    <contour>
      <point x="353" y="223" type="line"/>
      <point x="358" y="180" type="line"/>
      <point x="289" y="129" type="line"/>
      <point x="215" y="135"/>
      <point x="192" y="178"/>
      <point x="192" y="207" type="curve" smooth="yes"/>
      <point x="192" y="232"/>
      <point x="219" y="300"/>
      <point x="242" y="316" type="curve" smooth="yes"/>
      <point x="263" y="330"/>
      <point x="294" y="340"/>
      <point x="317" y="340" type="curve" smooth="yes"/>
      <point x="373" y="340"/>
      <point x="414" y="319"/>
      <point x="414" y="294" type="curve" smooth="yes"/>
      <point x="414" y="193"/>
      <point x="350" y="89"/>
      <point x="297" y="65" type="curve"/>
      <point x="253" y="52"/>
      <point x="174" y="36"/>
      <point x="75" y="25" type="curve"/>
      <point x="109" y="77" type="line"/>
      <point x="123" y="-165" type="line"/>
      <point x="112" y="-238"/>
      <point x="86" y="-292"/>
      <point x="40" y="-320" type="curve"/>
      <point x="-5" y="19" type="line"/>
      <point x="10" y="78"/>
      <point x="111" y="171"/>
      <point x="171" y="178" type="curve" smooth="yes"/>
      <point x="249" y="187" type="line"/>
    </contour>
  </outline>
</glyph>
<glyph name="noon-ar" format="1">
  <advance width="543"/>
  <unicode hex="0646"/>
  <outline>
    <contour>
      <point x="493" y="36"/>
      <point x="513" y="114"/>
      <point x="513" y="147" type="curve" smooth="yes"/>
      <point x="513" y="184"/>
      <point x="483" y="249"/>
      <point x="451" y="281" type="curve"/>
      <point x="345" y="167" type="line"/>
      <point x="389" y="131"/>
      <point x="424" y="87"/>
      <point x="440" y="47" type="curve"/>
      <point x="447" y="65" type="line"/>
      <point x="403" y="21"/>
      <point x="330" y="-13"/>
      <point x="261" y="-13" type="curve" smooth="yes"/>
      <point x="178" y="-13"/>
      <point x="131" y="16"/>
      <point x="92" y="68" type="curve"/>
      <point x="85" y="37" type="line"/>
      <point x="121" y="93"/>
      <point x="155" y="133"/>
      <point x="192" y="167" type="curve"/>
      <point x="160" y="244" type="line"/>
      <point x="93" y="152"/>
      <point x="49" y="68"/>
      <point x="25" y="-26" type="curve"/>
      <point x="31" y="-114"/>
      <point x="108" y="-171"/>
      <point x="208" y="-171" type="curve" smooth="yes"/>
      <point x="319" y="-171"/>
      <point x="429" y="-95"/>
      <point x="460" y="-29" type="curve" smooth="yes"/>
    </contour>
    <component base="dotabove-ar" xOffset="21" yOffset="-50"/>
  </outline>
</glyph>
<glyph name="heh-ar" format="1">
  <advance width="413"/>
  <unicode hex="0647"/>
  <outline>
    <contour>
      <point x="156" y="231"/>
      <point x="143" y="187"/>
      <point x="143" y="162" type="curve"/>
      <point x="155" y="151"/>
      <point x="178" y="141"/>
      <point x="198" y="141" type="curve" smooth="yes"/>
      <point x="275" y="141"/>
      <point x="350" y="196"/>
      <point x="350" y="250" type="curve"/>
      <point x="369" y="229" type="line"/>
      <point x="353" y="235"/>
      <point x="334" y="237"/>
      <point x="318" y="237" type="curve" smooth="yes"/>
      <point x="236" y="237"/>
      <point x="119" y="200"/>
      <point x="38" y="151" type="curve"/>
      <point x="28" y="199"/>
      <point x="31" y="273"/>
      <point x="42" y="315" type="curve"/>
      <point x="97" y="349"/>
      <point x="203" y="382"/>
      <point x="265" y="382" type="curve" smooth="yes"/>
      <point x="300" y="382"/>
      <point x="330" y="375"/>
      <point x="348" y="357" type="curve" smooth="yes"/>
      <point x="368" y="337"/>
      <point x="396" y="275"/>
      <point x="396" y="240" type="curve" smooth="yes"/>
      <point x="396" y="110"/>
      <point x="300" y="-11"/>
      <point x="191" y="-11" type="curve" smooth="yes"/>
      <point x="136" y="-11"/>
      <point x="94" y="28"/>
      <point x="83" y="67" type="curve"/>
      <point x="83" y="100"/>
      <point x="103" y="222"/>
      <point x="148" y="288" type="curve"/>
      <point x="176" y="260" type="line"/>
    </contour>
  </outline>
</glyph>
<glyph name="waw-ar" format="1">
  <advance width="479"/>
  <unicode hex="0648"/>
  <outline>
    <contour>
      <point x="359" y="45" type="line" smooth="yes"/>
      <point x="287" y="22"/>
      <point x="126" y="-5"/>
      <point x="10" y="-17" type="curve"/>
      <point x="50" y="-80"/>
      <point x="155" y="-142"/>
      <point x="225" y="-138" type="curve" smooth="yes"/>
      <point x="339" y="-132"/>
      <point x="450" y="24"/>
      <point x="450" y="149" type="curve" smooth="yes"/>
      <point x="450" y="223"/>
      <point x="426" y="275"/>
      <point x="392" y="275" type="curve" smooth="yes"/>
      <point x="338" y="275"/>
      <point x="248" y="160"/>
      <point x="248" y="113" type="curve" smooth="yes"/>
      <point x="248" y="86"/>
      <point x="279" y="72"/>
      <point x="326" y="72" type="curve" smooth="yes"/>
      <point x="355" y="72" type="line"/>
      <point x="363" y="21" type="line"/>
      <point x="381" y="52" type="line"/>
    </contour>
  </outline>
</glyph>
<glyph name="yeh-ar" format="1">
  <advance width="600"/>
  <unicode hex="064A"/>
  <outline>
    <contour>
      <point x="648" y="135" type="line"/>
      <point x="629" y="15"/>
      <point x="603" y="-54"/>
      <point x="570" y="-89" type="curve" smooth="yes"/>
      <point x="489" y="-172"/>
      <point x="339" y="-211"/>
      <point x="236" y="-211" type="curve" smooth="yes"/>
      <point x="116" y="-211"/>
      <point x="19" y="-157"/>
      <point x="9" y="-51" type="curve"/>
      <point x="60" y="80"/>
      <point x="144" y="213"/>
      <point x="269" y="314" type="curve"/>
      <point x="290" y="220" type="line"/>
      <point x="211" y="164"/>
      <point x="146" y="100"/>
      <point x="100" y="31" type="curve"/>
      <point x="136" y="-21"/>
      <point x="198" y="-53"/>
      <point x="292" y="-53" type="curve" smooth="yes"/>
      <point x="385" y="-53"/>
      <point x="526" y="-31"/>
      <point x="586" y="44" type="curve"/>
      <point x="594" y="21" type="line"/>
      <point x="519" y="44"/>
      <point x="430" y="58"/>
      <point x="350" y="62" type="curve"/>
      <point x="336" y="82" type="line"/>
      <point x="409" y="225" type="line"/>
      <point x="477" y="323"/>
      <point x="571" y="394"/>
      <point x="690" y="424" type="curve"/>
      <point x="625" y="278" type="line"/>
      <point x="525" y="276"/>
      <point x="446" y="215"/>
      <point x="416" y="173" type="curve"/>
      <point x="417" y="196" type="line"/>
      <point x="476" y="196"/>
      <point x="569" y="182"/>
      <point x="637" y="160" type="curve"/>
    </contour>
    <component base="twodotshorizontalbelow-ar" yOffset="-210"/>
  </outline>
</glyph>
<glyph name="dotlessbeh-ar" format="1">
  <advance width="750"/>
  <unicode hex="066E"/>
  <outline>
    <contour>
      <point x="689" y="105"/>
      <point x="720" y="198"/>
      <point x="720" y="248" type="curve" smooth="yes"/>
      <point x="720" y="289"/>
      <point x="683" y="354"/>
      <point x="642" y="386" type="curve"/>
      <point x="533" y="269" type="line"/>
      <point x="592" y="220"/>
      <point x="632" y="176"/>
      <point x="648" y="142" type="curve"/>
      <point x="654" y="160" type="line"/>
      <point x="584" y="128"/>
      <point x="462" y="102"/>
      <point x="345" y="102" type="curve" smooth="yes"/>
      <point x="197" y="102"/>
      <point x="126" y="139"/>
      <point x="100" y="225" type="curve"/>
      <point x="100" y="176" type="line"/>
      <point x="126" y="206"/>
      <point x="173" y="248"/>
      <point x="213" y="277" type="curve"/>
      <point x="194" y="363" type="line"/>
      <point x="106" y="276"/>
      <point x="57" y="204"/>
      <point x="25" y="114" type="curve"/>
      <point x="25" y="12"/>
      <point x="122" y="-50"/>
      <point x="282" y="-50" type="curve" smooth="yes"/>
      <point x="426" y="-50"/>
      <point x="601" y="4"/>
      <point x="658" y="61" type="curve"/>
    </contour>
    <contour>
      <point x="367" y="500" type="move" name="top"/>
    </contour>
    <contour>
      <point x="367" y="0" type="move" name="bottom"/>
    </contour>
  </outline>
</glyph>
<glyph name="dotlessfeh-ar" format="1">
  <advance width="753"/>
  <unicode hex="06A1"/>
  <outline>
    <contour>
      <point x="723" y="223"/>
      <point x="699" y="275"/>
      <point x="665" y="275" type="curve" smooth="yes"/>
      <point x="611" y="275"/>
      <point x="521" y="160"/>
      <point x="521" y="113" type="curve" smooth="yes"/>
      <point x="521" y="86"/>
      <point x="552" y="72"/>
      <point x="599" y="72" type="curve" smooth="yes"/>
      <point x="628" y="72" type="line"/>
      <point x="636" y="21" type="line"/>
      <point x="654" y="39" type="line"/>
      <point x="584" y="7"/>
      <point x="462" y="-19"/>
      <point x="345" y="-19" type="curve" smooth="yes"/>
      <point x="197" y="-19"/>
      <point x="126" y="18"/>
      <point x="100" y="104" type="curve"/>
      <point x="100" y="55" type="line"/>
      <point x="126" y="85"/>
      <point x="173" y="127"/>
      <point x="213" y="156" type="curve"/>
      <point x="194" y="242" type="line"/>
      <point x="106" y="155"/>
      <point x="57" y="83"/>
      <point x="25" y="-7" type="curve"/>
      <point x="25" y="-109"/>
      <point x="122" y="-171"/>
      <point x="282" y="-171" type="curve" smooth="yes"/>
      <point x="426" y="-171"/>
      <point x="601" y="-117"/>
      <point x="658" y="-60" type="curve"/>
      <point x="689" y="-16"/>
      <point x="723" y="83"/>
      <point x="723" y="149" type="curve" smooth="yes"/>
    </contour>
  </outline>
</glyph>
<glyph name="veh-ar.fina" format="1">
  <advance width="875"/>
  <unicode hex="FB6B"/>
  <outline>
    <component base="dotlessfeh-ar.fina"/>
    <component base="threedotsupabove-ar" xOffset="370" yOffset="50"/>
    <contour>
      <point x="786" y="132" type="move" name="entry"/>
    </contour>
  </outline>
</glyph>
<glyph name="veh-ar.init" format="1">
  <advance width="600"/>
  <unicode hex="FB6C"/>
  <outline>
    <component base="dotlessfeh-ar.init"/>
    <component base="threedotsupabove-ar" xOffset="170" yOffset="-20"/>
    <contour>
      <point x="204" y="37" type="move" name="exit"/>
    </contour>
  </outline>
</glyph>
<glyph name="veh-ar.medi" format="1">
  <advance width="600"/>
  <unicode hex="FB6D"/>
  <outline>
    <component base="dotlessfeh-ar.medi"/>
    <component base="threedotsupabove-ar" xOffset="102" yOffset="40"/>
    <contour>
      <point x="511" y="132" type="move" name="entry"/>
    </contour>
    <contour>
      <point x="76" y="86" type="move" name="exit"/>
    </contour>
  </outline>
</glyph>
<glyph name="dotabove-ar" format="1">
  <advance width="600"/>
  <unicode hex="FBB2"/>
  <outline>
    <contour>
      <point x="213" y="408" type="line"/>
      <point x="229" y="381"/>
      <point x="246" y="358"/>
      <point x="267" y="340" type="curve"/>
      <point x="333" y="384" type="line"/>
      <point x="313" y="410"/>
      <point x="305" y="425"/>
      <point x="286" y="457" type="curve"/>
    </contour>
    <contour>
      <point x="259" y="261" type="move" name="top"/>
    </contour>
  </outline>
</glyph>
<glyph name="dotbelow-ar" format="1">
  <advance width="600"/>
  <unicode hex="FBB3"/>
  <outline>
    <component base="dotabove-ar" yOffset="-500"/>
    <contour>
      <point x="273" y="55" type="move" name="bottom"/>
    </contour>
  </outline>
</glyph>
<glyph name="twodotshorizontalabove-ar" format="1">
  <advance width="600"/>
  <unicode hex="FBB4"/>
  <outline>
    <contour>
      <point x="423" y="557" type="line"/>
      <point x="403" y="481" type="line"/>
      <point x="225" y="442" type="line"/>
      <point x="242" y="508" type="line"/>
    </contour>
  </outline>
</glyph>
<glyph name="twodotshorizontalbelow-ar" format="1">
  <advance width="600"/>
  <unicode hex="FBB5"/>
  <outline>
    <contour>
      <point x="423" y="-43" type="line"/>
      <point x="403" y="-119" type="line"/>
      <point x="225" y="-158" type="line"/>
      <point x="242" y="-92" type="line"/>
    </contour>
  </outline>
</glyph>
<glyph name="threedotsupabove-ar" format="1">
  <advance width="600"/>
  <unicode hex="FBB6"/>
  <outline>
    <contour>
      <point x="239" y="567" type="line"/>
      <point x="275" y="572"/>
      <point x="324" y="564"/>
      <point x="360" y="544" type="curve"/>
      <point x="309" y="468" type="line"/>
      <point x="280" y="482"/>
      <point x="249" y="488"/>
      <point x="223" y="486" type="curve"/>
      <point x="162" y="427" type="line"/>
      <point x="140" y="439" type="line"/>
    </contour>
  </outline>
</glyph>
<glyph name="alefHamzaabove-ar.fina" format="1">
  <advance width="266"/>
  <unicode hex="FE84"/>
  <outline>
    <component base="alef-ar.fina"/>
    <component base="hamza-ar" yOffset="628"/>
    <contour>
      <point x="221" y="80" type="move" name="entry"/>
    </contour>
  </outline>
</glyph>
<glyph name="yehHamzaabove-ar.fina" format="1">
  <advance width="725"/>
  <unicode hex="FE8A"/>
  <outline>
    <component base="dotlessyeh-ar.fina"/>
    <component base="hamza-ar" xOffset="88" yOffset="350"/>
    <contour>
      <point x="673" y="292" type="move" name="entry"/>
    </contour>
  </outline>
</glyph>
<glyph name="yehHamzaabove-ar.init" format="1">
  <advance width="288"/>
  <unicode hex="FE8B"/>
  <outline>
    <component base="dotlessbeh-ar.init"/>
    <component base="hamza-ar" xOffset="120" yOffset="330"/>
    <contour>
      <point x="56" y="76" type="move" name="exit"/>
    </contour>
  </outline>
</glyph>
<glyph name="yehHamzaabove-ar.medi" format="1">
  <advance width="413"/>
  <unicode hex="FE8C"/>
  <outline>
    <component base="dotlessbeh-ar.medi"/>
    <component base="hamza-ar" xOffset="164" yOffset="350"/>
    <contour>
      <point x="344" y="101" type="move" name="entry"/>
    </contour>
    <contour>
      <point x="72" y="96" type="move" name="exit"/>
    </contour>
  </outline>
</glyph>
<glyph name="alef-ar.fina" format="1">
  <advance width="493"/>
  <unicode hex="FE8E"/>
  <outline>
    <contour>
      <point x="145" y="-2"/>
      <point x="208" y="5"/>
      <point x="268" y="19" type="curve"/>
      <point x="311" y="81"/>
      <point x="334" y="169"/>
      <point x="343" y="243" type="curve"/>
      <point x="311" y="244" type="line"/>
      <point x="305" y="207"/>
      <point x="296" y="173"/>
      <point x="286" y="142" type="curve"/>
      <point x="310" y="163" type="line"/>
      <point x="252" y="148"/>
      <point x="196" y="142"/>
      <point x="140" y="142" type="curve"/>
      <point x="85" y="-1" type="line"/>
    </contour>
    <contour>
      <point x="72" y="336"/>
      <point x="81" y="127"/>
      <point x="83" y="-1" type="curve"/>
      <point x="102" y="-1" type="line"/>
      <point x="158" y="142" type="line"/>
      <point x="166" y="164"/>
      <point x="192" y="402"/>
      <point x="190" y="526" type="curve" smooth="yes"/>
      <point x="190" y="555"/>
      <point x="188" y="577"/>
      <point x="185" y="589" type="curve"/>
      <point x="146" y="569"/>
      <point x="95" y="522"/>
      <point x="59" y="478" type="curve"/>
    </contour>
    <contour>
      <point x="255" y="85" type="move" name="entry"/>
    </contour>
  </outline>
</glyph>
<glyph name="beh-ar.fina" format="1">
  <advance width="799"/>
  <unicode hex="FE90"/>
  <outline>
    <component base="dotlessbeh-ar.fina"/>
    <component base="dotbelow-ar" xOffset="90" yOffset="-70"/>
    <contour>
      <point x="728" y="91" type="move" name="entry"/>
    </contour>
  </outline>
</glyph>
<glyph name="beh-ar.init" format="1">
  <advance width="288"/>
  <unicode hex="FE91"/>
  <outline>
    <component base="dotlessbeh-ar.init"/>
    <component base="dotbelow-ar" xOffset="-169" yOffset="-20"/>
    <contour>
      <point x="45" y="68" type="move" name="exit"/>
    </contour>
  </outline>
</glyph>
<glyph name="beh-ar.medi" format="1">
  <advance width="413"/>
  <unicode hex="FE92"/>
  <outline>
    <component base="dotlessbeh-ar.medi"/>
    <component base="dotbelow-ar" xOffset="-70" yOffset="-10"/>
    <contour>
      <point x="355" y="93" type="move" name="entry"/>
    </contour>
    <contour>
      <point x="71" y="100" type="move" name="exit"/>
    </contour>
  </outline>
</glyph>
<glyph name="tehMarbuta-ar.fina" format="1">
  <advance width="713"/>
  <unicode hex="FE94"/>
  <outline>
    <component base="heh-ar.fina"/>
    <component base="twodotshorizontalabove-ar" xOffset="-60" yOffset="110"/>
    <contour>
      <point x="478" y="93" type="move" name="entry"/>
    </contour>
  </outline>
</glyph>
<glyph name="teh-ar.fina" format="1">
  <advance width="799"/>
  <unicode hex="FE96"/>
  <outline>
    <component base="dotlessbeh-ar.fina"/>
    <component base="twodotshorizontalabove-ar" xOffset="152" yOffset="-72"/>
    <contour>
      <point x="750" y="88" type="move" name="entry"/>
    </contour>
  </outline>
</glyph>
<glyph name="teh-ar.init" format="1">
  <advance width="288"/>
  <unicode hex="FE97"/>
  <outline>
    <component base="dotlessbeh-ar.init"/>
    <component base="twodotshorizontalabove-ar" xOffset="30" yOffset="590"/>
    <contour>
      <point x="274" y="71" type="move" name="exit"/>
    </contour>
  </outline>
</glyph>
<glyph name="teh-ar.medi" format="1">
  <advance width="413"/>
  <unicode hex="FE98"/>
  <outline>
    <component base="dotlessbeh-ar.medi"/>
    <component base="twodotshorizontalabove-ar" xOffset="-35" yOffset="-124"/>
    <contour>
      <point x="344" y="101" type="move" name="entry"/>
    </contour>
    <contour>
      <point x="81" y="91" type="move" name="exit"/>
    </contour>
  </outline>
</glyph>
<glyph name="theh-ar.init" format="1">
  <advance width="288"/>
  <unicode hex="FE9B"/>
  <outline>
    <component base="dotlessbeh-ar.init"/>
    <component base="threedotsupabove-ar" xOffset="-29" yOffset="-110"/>
    <contour>
      <point x="45" y="68" type="move" name="exit"/>
    </contour>
  </outline>
</glyph>
<glyph name="theh-ar.medi" format="1">
  <advance width="413"/>
  <unicode hex="FE9C"/>
  <outline>
    <component base="dotlessbeh-ar.medi"/>
    <component base="threedotsupabove-ar" xOffset="40" yOffset="-100"/>
    <contour>
      <point x="344" y="101" type="move" name="entry"/>
    </contour>
    <contour>
      <point x="80" y="91" type="move" name="exit"/>
    </contour>
  </outline>
</glyph>
<glyph name="jeem-ar.fina" format="1">
  <advance width="477"/>
  <unicode hex="FE9E"/>
  <outline>
    <component base="hah-ar.fina"/>
    <component base="dotabove-ar" xOffset="30" yOffset="-379"/>
    <contour>
      <point x="427" y="425" type="move" name="entry"/>
    </contour>
  </outline>
</glyph>
<glyph name="jeem-ar.init" format="1">
  <advance width="519"/>
  <unicode hex="FE9F"/>
  <outline>
    <component base="hah-ar.init"/>
    <component base="dotbelow-ar" yOffset="-20"/>
    <contour>
      <point x="39" y="83" type="move" name="exit"/>
    </contour>
  </outline>
</glyph>
<glyph name="jeem-ar.medi" format="1">
  <advance width="457"/>
  <unicode hex="FEA0"/>
  <outline>
    <component base="hah-ar.medi"/>
    <component base="dotbelow-ar" xOffset="-100" yOffset="16"/>
    <contour>
      <point x="404" y="473" type="move" name="entry"/>
    </contour>
    <contour>
      <point x="39" y="106" type="move" name="exit"/>
    </contour>
  </outline>
</glyph>
<glyph name="hah-ar.fina" format="1">
  <advance width="477"/>
  <unicode hex="FEA2"/>
  <outline>
    <contour>
      <point x="366" y="281" type="line"/>
      <point x="305" y="308"/>
      <point x="228" y="330"/>
      <point x="153" y="336" type="curve"/>
      <point x="157" y="327" type="line"/>
      <point x="231" y="340"/>
      <point x="314" y="348"/>
      <point x="405" y="358" type="curve"/>
      <point x="462" y="510" type="line"/>
      <point x="350" y="498"/>
      <point x="249" y="476"/>
      <point x="165" y="439" type="curve"/>
      <point x="124" y="373"/>
      <point x="91" y="289"/>
      <point x="68" y="211" type="curve"/>
      <point x="109" y="205"/>
      <point x="160" y="192"/>
      <point x="200" y="180" type="curve"/>
      <point x="95" y="67"/>
      <point x="20" y="-61"/>
      <point x="20" y="-139" type="curve" smooth="yes"/>
      <point x="20" y="-229"/>
      <point x="85" y="-281"/>
      <point x="196" y="-281" type="curve" smooth="yes"/>
      <point x="342" y="-281"/>
      <point x="419" y="-219"/>
      <point x="467" y="-124" type="curve"/>
      <point x="369" y="-128"/>
      <point x="346" y="-129"/>
      <point x="308" y="-129" type="curve" smooth="yes"/>
      <point x="167" y="-129"/>
      <point x="91" y="-103"/>
      <point x="91" y="-54" type="curve" smooth="yes"/>
      <point x="91" y="4"/>
      <point x="202" y="140"/>
      <point x="367" y="261" type="curve"/>
    </contour>
    <contour>
      <point x="427" y="425" type="move" name="entry"/>
    </contour>
  </outline>
</glyph>
<glyph name="hah-ar.init" format="1">
  <advance width="600"/>
  <unicode hex="FEA3"/>
  <outline>
    <contour>
      <point x="47" y="66" type="move" name="exit"/>
    </contour>
  </outline>
</glyph>
<glyph name="hah-ar.medi" format="1">
  <advance width="457"/>
  <unicode hex="FEA4"/>
  <outline>
    <contour>
      <point x="161" y="45"/>
      <point x="262" y="85"/>
      <point x="304" y="119" type="curve"/>
      <point x="335" y="163"/>
      <point x="366" y="271"/>
      <point x="366" y="337" type="curve"/>
      <point x="336" y="353"/>
      <point x="218" y="378"/>
      <point x="138" y="376" type="curve"/>
      <point x="142" y="362" type="line"/>
      <point x="210" y="375"/>
      <point x="297" y="388"/>
      <point x="375" y="396" type="curve"/>
      <point x="396" y="414" type="line"/>
      <point x="439" y="531" type="line"/>
      <point x="433" y="548" type="line"/>
      <point x="332" y="538"/>
      <point x="225" y="514"/>
      <point x="150" y="479" type="curve"/>
      <point x="109" y="413"/>
      <point x="76" y="329"/>
      <point x="53" y="251" type="curve"/>
      <point x="127" y="253"/>
      <point x="247" y="237"/>
      <point x="296" y="218" type="curve"/>
      <point x="300" y="223" type="line"/>
      <point x="250" y="208"/>
      <point x="193" y="194"/>
      <point x="68" y="181" type="curve"/>
      <point x="10" y="29" type="line"/>
    </contour>
    <contour>
      <point x="404" y="473" type="move" name="entry"/>
    </contour>
    <contour>
      <point x="39" y="106" type="move" name="exit"/>
    </contour>
  </outline>
</glyph>
<glyph name="khah-ar.fina" format="1">
  <advance width="477"/>
  <unicode hex="FEA6"/>
  <outline>
    <component base="hah-ar.fina"/>
    <component base="dotabove-ar" xOffset="50" yOffset="192"/>
    <contour>
      <point x="427" y="425" type="move" name="entry"/>
    </contour>
  </outline>
</glyph>
<glyph name="khah-ar.init" format="1">
  <advance width="519"/>
  <unicode hex="FEA7"/>
  <outline>
    <component base="hah-ar.init"/>
    <component base="dotabove-ar" xOffset="133" yOffset="149"/>
    <contour>
      <point x="39" y="83" type="move" name="exit"/>
    </contour>
  </outline>
</glyph>
<glyph name="dal-ar.fina" format="1">
  <advance width="680"/>
  <unicode hex="FEAA"/>
  <outline>
    <contour>
      <point x="533" y="318" type="line"/>
      <point x="529" y="116" type="line"/>
      <point x="457" y="153" type="line"/>
      <point x="601" y="168" type="line"/>
      <point x="607" y="151" type="line"/>
      <point x="564" y="34" type="line"/>
      <point x="543" y="16" type="line"/>
      <point x="410" y="2" type="line"/>
      <point x="414" y="226" type="line"/>
      <point x="421" y="230" type="line"/>
      <point x="422" y="166"/>
      <point x="350" y="-10"/>
      <point x="242" y="-10" type="curve" smooth="yes"/>
      <point x="181" y="-10"/>
      <point x="88" y="26"/>
      <point x="51" y="62" type="curve"/>
      <point x="171" y="99"/>
      <point x="323" y="174"/>
      <point x="476" y="279" type="curve" smooth="yes"/>
    </contour>
    <contour>
      <point x="572" y="93" type="move" name="entry"/>
    </contour>
  </outline>
</glyph>
<glyph name="reh-ar.fina" format="1">
  <advance width="600"/>
  <unicode hex="FEAE"/>
  <outline>
    <contour>
      <point x="566" y="208" type="line"/>
      <point x="510" y="56" type="line"/>
      <point x="353" y="40" type="line"/>
      <point x="409" y="192" type="line"/>
    </contour>
    <component base="reh-ar"/>
    <contour>
      <point x="525" y="124" type="move" name="entry"/>
    </contour>
  </outline>
</glyph>
<glyph name="seen-ar.fina" format="1">
  <advance width="960"/>
  <unicode hex="FEB2"/>
  <outline>
    <contour>
      <point x="915" y="237" type="line"/>
      <point x="921" y="220" type="line"/>
      <point x="878" y="103" type="line"/>
      <point x="857" y="85" type="line"/>
      <point x="726" y="72" type="line"/>
      <point x="781" y="223" type="line"/>
    </contour>
    <component base="seen-ar"/>
    <contour>
      <point x="886" y="162" type="move" name="entry"/>
    </contour>
  </outline>
</glyph>
<glyph name="seen-ar.init" format="1">
  <advance width="600"/>
  <unicode hex="FEB3"/>
  <outline>
    <contour>
      <point x="73" y="170" type="line"/>
      <point x="178" y="181"/>
      <point x="293" y="204"/>
      <point x="415" y="243" type="curve"/>
      <point x="429" y="223" type="line"/>
      <point x="373" y="59" type="line"/>
      <point x="344" y="63" type="line"/>
      <point x="354" y="113" type="line"/>
      <point x="260" y="69"/>
      <point x="135" y="30"/>
      <point x="12" y="18" type="curve"/>
    </contour>
    <contour>
      <point x="53" y="88" type="move" name="exit"/>
    </contour>
  </outline>
</glyph>
<glyph name="seen-ar.medi" format="1">
  <advance width="600"/>
  <unicode hex="FEB4"/>
  <outline>
    <contour>
      <point x="106" y="13" type="line"/>
      <point x="478" y="52" type="line"/>
      <point x="499" y="70" type="line"/>
      <point x="542" y="187" type="line"/>
      <point x="536" y="204" type="line"/>
      <point x="164" y="165" type="line"/>
    </contour>
    <contour>
      <point x="507" y="129" type="move" name="entry"/>
    </contour>
    <contour>
      <point x="135" y="90" type="move" name="exit"/>
    </contour>
  </outline>
</glyph>
<glyph name="sheen-ar.init" format="1">
  <advance width="600"/>
  <unicode hex="FEB7"/>
  <outline>
    <component base="seen-ar.init"/>
    <component base="threedotsupabove-ar" yOffset="-120"/>
    <contour>
      <point x="41" y="95" type="move" name="exit"/>
    </contour>
  </outline>
</glyph>
<glyph name="sheen-ar.medi" format="1">
  <advance width="600"/>
  <unicode hex="FEB8"/>
  <outline>
    <component base="seen-ar.medi"/>
    <component base="threedotsupabove-ar" xOffset="90" yOffset="-90"/>
    <contour>
      <point x="507" y="129" type="move" name="entry"/>
    </contour>
    <contour>
      <point x="135" y="90" type="move" name="exit"/>
    </contour>
  </outline>
</glyph>
<glyph name="sad-ar.fina" format="1">
  <advance width="879"/>
  <unicode hex="FEBA"/>
  <outline>
    <contour>
      <point x="527" y="159" type="line"/>
      <point x="503" y="89" type="line"/>
      <point x="530" y="78"/>
      <point x="574" y="71"/>
      <point x="641" y="71" type="curve" smooth="yes"/>
      <point x="685" y="71"/>
      <point x="713" y="73"/>
      <point x="787" y="80" type="curve"/>
      <point x="727" y="-74" type="line"/>
      <point x="687" y="-78"/>
      <point x="647" y="-82"/>
      <point x="607" y="-82" type="curve" smooth="yes"/>
      <point x="498" y="-82"/>
      <point x="442" y="-41"/>
      <point x="444" y="16" type="curve"/>
      <point x="502" y="161" type="line"/>
    </contour>
    <contour>
      <point x="394" y="-7"/>
      <point x="297" y="-91"/>
      <point x="193" y="-91" type="curve" smooth="yes"/>
      <point x="98" y="-91"/>
      <point x="26" y="-34"/>
      <point x="20" y="54" type="curve"/>
      <point x="44" y="148"/>
      <point x="88" y="232"/>
      <point x="155" y="324" type="curve"/>
      <point x="187" y="247" type="line"/>
      <point x="150" y="213"/>
      <point x="116" y="173"/>
      <point x="80" y="117" type="curve"/>
      <point x="87" y="148" type="line"/>
      <point x="126" y="96"/>
      <point x="168" y="67"/>
      <point x="246" y="67" type="curve" smooth="yes"/>
      <point x="308" y="67"/>
      <point x="373" y="94"/>
      <point x="412" y="140" type="curve"/>
      <point x="405" y="122" type="line"/>
      <point x="389" y="157"/>
      <point x="354" y="206"/>
      <point x="310" y="247" type="curve"/>
      <point x="416" y="361" type="line"/>
      <point x="448" y="329"/>
      <point x="478" y="264"/>
      <point x="478" y="227" type="curve" smooth="yes"/>
      <point x="478" y="193"/>
      <point x="456" y="119"/>
      <point x="424" y="54" type="curve" smooth="yes"/>
    </contour>
    <contour>
      <point x="470" y="254" type="line"/>
      <point x="569" y="265" type="line" smooth="yes"/>
      <point x="708" y="279"/>
      <point x="790" y="292"/>
      <point x="790" y="312" type="curve" smooth="yes"/>
      <point x="790" y="323"/>
      <point x="764" y="333"/>
      <point x="722" y="333" type="curve" smooth="yes"/>
      <point x="668" y="333"/>
      <point x="617" y="317"/>
      <point x="589" y="298" type="curve"/>
      <point x="523" y="151" type="line"/>
      <point x="504" y="161" type="line"/>
      <point x="550" y="282"/>
      <point x="586" y="378"/>
      <point x="616" y="419" type="curve" smooth="yes"/>
      <point x="648" y="462"/>
      <point x="703" y="485"/>
      <point x="758" y="485" type="curve" smooth="yes"/>
      <point x="815" y="485"/>
      <point x="844" y="460"/>
      <point x="844" y="391" type="curve" smooth="yes"/>
      <point x="844" y="319"/>
      <point x="814" y="222"/>
      <point x="770" y="180" type="curve" smooth="yes"/>
      <point x="736" y="147"/>
      <point x="674" y="129"/>
      <point x="556" y="117" type="curve" smooth="yes"/>
      <point x="414" y="102" type="line"/>
    </contour>
    <contour>
      <point x="752" y="-11" type="move" name="entry"/>
    </contour>
  </outline>
</glyph>
<glyph name="sad-ar.init" format="1">
  <advance width="622"/>
  <unicode hex="FEBB"/>
  <outline>
    <contour>
      <point x="197" y="192" type="line"/>
      <point x="315" y="204" type="line" smooth="yes"/>
      <point x="454" y="218"/>
      <point x="536" y="231"/>
      <point x="536" y="251" type="curve" smooth="yes"/>
      <point x="536" y="262"/>
      <point x="510" y="272"/>
      <point x="468" y="272" type="curve" smooth="yes"/>
      <point x="414" y="272"/>
      <point x="363" y="256"/>
      <point x="335" y="237" type="curve"/>
      <point x="244" y="-18" type="line"/>
      <point x="216" y="-8" type="line"/>
      <point x="272" y="172"/>
      <point x="308" y="280"/>
      <point x="362" y="358" type="curve" smooth="yes"/>
      <point x="393" y="403"/>
      <point x="449" y="424"/>
      <point x="504" y="424" type="curve" smooth="yes"/>
      <point x="561" y="424"/>
      <point x="590" y="399"/>
      <point x="590" y="330" type="curve" smooth="yes"/>
      <point x="590" y="258"/>
      <point x="560" y="161"/>
      <point x="516" y="119" type="curve" smooth="yes"/>
      <point x="482" y="86"/>
      <point x="420" y="69"/>
      <point x="302" y="57" type="curve" smooth="yes"/>
      <point x="141" y="40" type="line"/>
    </contour>
    <contour>
      <point x="64" y="216" type="line"/>
      <point x="117" y="222"/>
      <point x="176" y="231"/>
      <point x="214" y="241" type="curve"/>
      <point x="202" y="195"/>
      <point x="184" y="136"/>
      <point x="161" y="92" type="curve"/>
      <point x="112" y="80"/>
      <point x="67" y="71"/>
      <point x="6" y="64" type="curve"/>
    </contour>
    <contour>
      <point x="192" y="186" type="line"/>
      <point x="202" y="218"/>
      <point x="216" y="268"/>
      <point x="223" y="297" type="curve"/>
      <point x="255" y="294" type="line"/>
      <point x="247" y="255"/>
      <point x="238" y="218"/>
      <point x="231" y="184" type="curve"/>
    </contour>
    <contour>
      <point x="43" y="134" type="move" name="exit"/>
    </contour>
  </outline>
</glyph>
<glyph name="sad-ar.medi" format="1">
  <advance width="600"/>
  <unicode hex="FEBC"/>
  <outline>
    <contour>
      <point x="-11" y="196" type="line"/>
      <point x="47" y="202"/>
      <point x="111" y="212"/>
      <point x="152" y="222" type="curve"/>
      <point x="140" y="176"/>
      <point x="122" y="117"/>
      <point x="99" y="73" type="curve"/>
      <point x="46" y="60"/>
      <point x="-3" y="51"/>
      <point x="-69" y="44" type="curve"/>
    </contour>
    <component base="_part.sadbowl"/>
    <contour>
      <point x="569" y="107" type="move" name="entry"/>
    </contour>
    <contour>
      <point x="-40" y="121" type="move" name="exit"/>
    </contour>
  </outline>
</glyph>
<glyph name="dad-ar.fina" format="1">
  <advance width="879"/>
  <unicode hex="FEBE"/>
  <outline>
    <component base="sad-ar.fina"/>
    <component base="dotabove-ar" xOffset="457" yOffset="208"/>
    <contour>
      <point x="667" y="84" type="move" name="entry"/>
    </contour>
  </outline>
</glyph>
<glyph name="dad-ar.medi" format="1">
  <advance width="600"/>
  <unicode hex="FEC0"/>
  <outline>
    <component base="sad-ar.medi"/>
    <component base="dotabove-ar" xOffset="164" yOffset="210"/>
    <contour>
      <point x="427" y="-3" type="move" name="entry"/>
    </contour>
    <contour>
      <point x="-37" y="192" type="move" name="exit"/>
    </contour>
  </outline>
</glyph>
<glyph name="tah-ar.fina" format="1">
  <advance width="600"/>
  <unicode hex="FEC2"/>
  <outline>
    <contour>
      <point x="202" y="159" type="line"/>
      <point x="178" y="89" type="line"/>
      <point x="205" y="78"/>
      <point x="271" y="71"/>
      <point x="322" y="70" type="curve" smooth="yes"/>
      <point x="364" y="70"/>
      <point x="388" y="72"/>
      <point x="462" y="80" type="curve"/>
      <point x="402" y="-72" type="line"/>
      <point x="362" y="-76"/>
      <point x="336" y="-78"/>
      <point x="293" y="-78" type="curve" smooth="yes"/>
      <point x="184" y="-78"/>
      <point x="116" y="-44"/>
      <point x="119" y="16" type="curve"/>
      <point x="177" y="161" type="line"/>
    </contour>
    <contour>
      <point x="216" y="692"/>
      <point x="267" y="743"/>
      <point x="307" y="765" type="curve"/>
      <point x="309" y="757"/>
      <point x="311" y="744"/>
      <point x="311" y="721" type="curve" smooth="yes"/>
      <point x="311" y="652"/>
      <point x="292" y="500"/>
      <point x="284" y="486" type="curve"/>
      <point x="219" y="339" type="line"/>
      <point x="197" y="346" type="line"/>
      <point x="198" y="481"/>
      <point x="193" y="557"/>
      <point x="180" y="648" type="curve"/>
    </contour>
    <contour>
      <point x="97" y="147"/>
      <point x="43" y="196"/>
      <point x="6" y="252" type="curve" smooth="yes"/>
      <point x="2" y="258"/>
      <point x="-1" y="263"/>
      <point x="-3" y="269" type="curve"/>
      <point x="93" y="265"/>
      <point x="192" y="263"/>
      <point x="245" y="264" type="curve" smooth="yes"/>
      <point x="387" y="267"/>
      <point x="466" y="293"/>
      <point x="466" y="312" type="curve" smooth="yes"/>
      <point x="466" y="323"/>
      <point x="440" y="333"/>
      <point x="398" y="333" type="curve" smooth="yes"/>
      <point x="344" y="333"/>
      <point x="293" y="317"/>
      <point x="265" y="298" type="curve"/>
      <point x="199" y="151" type="line"/>
      <point x="180" y="161" type="line"/>
      <point x="226" y="282"/>
      <point x="262" y="378"/>
      <point x="292" y="419" type="curve" smooth="yes"/>
      <point x="324" y="462"/>
      <point x="379" y="485"/>
      <point x="434" y="485" type="curve" smooth="yes"/>
      <point x="491" y="485"/>
      <point x="520" y="460"/>
      <point x="520" y="390" type="curve" smooth="yes"/>
      <point x="520" y="317"/>
      <point x="488" y="225"/>
      <point x="446" y="180" type="curve" smooth="yes"/>
      <point x="412" y="144"/>
      <point x="348" y="112"/>
      <point x="232" y="112" type="curve" smooth="yes"/>
      <point x="211" y="112"/>
      <point x="181" y="113"/>
      <point x="163" y="116" type="curve"/>
    </contour>
    <contour>
      <point x="419" y="-5" type="move" name="entry"/>
    </contour>
  </outline>
</glyph>
<glyph name="tah-ar.init" format="1">
  <advance width="512"/>
  <unicode hex="FEC3"/>
  <outline>
    <contour>
      <point x="40" y="66" type="move" name="exit"/>
    </contour>
  </outline>
</glyph>
<glyph name="tah-ar.medi" format="1">
  <advance width="600"/>
  <unicode hex="FEC4"/>
  <outline>
    <contour>
      <point x="202" y="159" type="line"/>
      <point x="178" y="89" type="line"/>
      <point x="205" y="78"/>
      <point x="249" y="71"/>
      <point x="316" y="71" type="curve" smooth="yes"/>
      <point x="360" y="71"/>
      <point x="388" y="73"/>
      <point x="462" y="80" type="curve"/>
      <point x="402" y="-74" type="line"/>
      <point x="362" y="-78"/>
      <point x="322" y="-82"/>
      <point x="282" y="-82" type="curve" smooth="yes"/>
      <point x="173" y="-82"/>
      <point x="117" y="-41"/>
      <point x="119" y="16" type="curve"/>
      <point x="177" y="161" type="line"/>
    </contour>
    <contour>
      <point x="216" y="692"/>
      <point x="267" y="743"/>
      <point x="307" y="765" type="curve"/>
      <point x="309" y="757"/>
      <point x="311" y="744"/>
      <point x="311" y="721" type="curve" smooth="yes"/>
      <point x="311" y="652"/>
      <point x="292" y="500"/>
      <point x="284" y="486" type="curve"/>
      <point x="219" y="339" type="line"/>
      <point x="197" y="346" type="line"/>
      <point x="198" y="481"/>
      <point x="193" y="557"/>
      <point x="180" y="648" type="curve"/>
    </contour>
    <contour>
      <point x="141" y="254" type="line"/>
      <point x="245" y="265" type="line" smooth="yes"/>
      <point x="384" y="279"/>
      <point x="466" y="292"/>
      <point x="466" y="312" type="curve" smooth="yes"/>
      <point x="466" y="323"/>
      <point x="440" y="333"/>
      <point x="398" y="333" type="curve" smooth="yes"/>
      <point x="344" y="333"/>
      <point x="293" y="317"/>
      <point x="265" y="298" type="curve"/>
      <point x="199" y="151" type="line"/>
      <point x="180" y="161" type="line"/>
      <point x="226" y="282"/>
      <point x="262" y="378"/>
      <point x="292" y="419" type="curve" smooth="yes"/>
      <point x="324" y="462"/>
      <point x="379" y="485"/>
      <point x="434" y="485" type="curve" smooth="yes"/>
      <point x="491" y="485"/>
      <point x="520" y="460"/>
      <point x="520" y="391" type="curve" smooth="yes"/>
      <point x="520" y="319"/>
      <point x="490" y="222"/>
      <point x="446" y="180" type="curve" smooth="yes"/>
      <point x="412" y="147"/>
      <point x="350" y="129"/>
      <point x="232" y="117" type="curve" smooth="yes"/>
      <point x="85" y="102" type="line"/>
    </contour>
    <contour>
      <point x="419" y="-5" type="move" name="entry"/>
    </contour>
    <contour>
      <point x="114" y="181" type="move" name="exit"/>
    </contour>
  </outline>
</glyph>
<glyph name="zah-ar.fina" format="1">
  <advance width="573"/>
  <unicode hex="FEC6"/>
  <outline>
    <component base="tah-ar.fina"/>
    <component base="dotabove-ar" xOffset="180" yOffset="198"/>
    <contour>
      <point x="437" y="-5" type="move" name="entry"/>
    </contour>
  </outline>
</glyph>
<glyph name="zah-ar.init" format="1">
  <advance width="512"/>
  <unicode hex="FEC7"/>
  <outline>
    <component base="tah-ar.init"/>
    <component base="dotabove-ar" xOffset="123"/>
    <contour>
      <point x="39" y="67" type="move" name="exit"/>
    </contour>
  </outline>
</glyph>
<glyph name="zah-ar.medi" format="1">
  <advance width="600"/>
  <unicode hex="FEC8"/>
  <outline>
    <component base="tah-ar.medi"/>
    <component base="dotabove-ar" xOffset="165" yOffset="198"/>
    <contour>
      <point x="419" y="-5" type="move" name="entry"/>
    </contour>
    <contour>
      <point x="114" y="181" type="move" name="exit"/>
    </contour>
  </outline>
</glyph>
<glyph name="ain-ar.fina" format="1">
  <advance width="600"/>
  <unicode hex="FECA"/>
  <outline>
    <contour>
      <point x="197" y="135"/>
      <point x="8" y="-79"/>
      <point x="8" y="-208" type="curve" smooth="yes"/>
      <point x="8" y="-307"/>
      <point x="95" y="-355"/>
      <point x="207" y="-355" type="curve" smooth="yes"/>
      <point x="340" y="-355"/>
      <point x="447" y="-288"/>
      <point x="482" y="-224" type="curve"/>
      <point x="467" y="-225"/>
      <point x="450" y="-225"/>
      <point x="434" y="-225" type="curve" smooth="yes"/>
      <point x="269" y="-225"/>
      <point x="93" y="-176"/>
      <point x="93" y="-91" type="curve" smooth="yes"/>
      <point x="93" y="-37"/>
      <point x="294" y="79"/>
      <point x="364" y="147" type="curve" smooth="yes"/>
      <point x="414" y="196"/>
      <point x="447" y="274"/>
      <point x="457" y="359" type="curve"/>
      <point x="420" y="376"/>
      <point x="376" y="384"/>
      <point x="339" y="384" type="curve" smooth="yes"/>
      <point x="288" y="384"/>
      <point x="240" y="370"/>
      <point x="218" y="349" type="curve" smooth="yes"/>
      <point x="197" y="328"/>
      <point x="169" y="265"/>
      <point x="169" y="237" type="curve" smooth="yes"/>
      <point x="169" y="153"/>
      <point x="331" y="52"/>
      <point x="521" y="72" type="curve"/>
      <point x="578" y="224" type="line"/>
      <point x="376" y="205"/>
      <point x="322" y="246"/>
      <point x="322" y="309" type="curve"/>
      <point x="283" y="160" type="line"/>
      <point x="322" y="221" type="line"/>
    </contour>
    <contour>
      <point x="534" y="139" type="move" name="entry"/>
    </contour>
  </outline>
</glyph>
<glyph name="ain-ar.init" format="1">
  <advance width="600"/>
  <unicode hex="FECB"/>
  <outline>
    <contour>
      <point x="499" y="203" type="line"/>
      <point x="443" y="51" type="line"/>
      <point x="48" y="9" type="line"/>
      <point x="106" y="161" type="line"/>
    </contour>
    <contour>
      <point x="427" y="295" type="line"/>
      <point x="368" y="290"/>
      <point x="286" y="275"/>
      <point x="232" y="251" type="curve"/>
      <point x="254" y="310" type="line"/>
      <point x="254" y="264"/>
      <point x="316" y="200"/>
      <point x="383" y="191" type="curve"/>
      <point x="258" y="75" type="line"/>
      <point x="217" y="86"/>
      <point x="182" y="140"/>
      <point x="182" y="181" type="curve" smooth="yes"/>
      <point x="182" y="242"/>
      <point x="251" y="350"/>
      <point x="290" y="382" type="curve" smooth="yes"/>
      <point x="324" y="407"/>
      <point x="421" y="433"/>
      <point x="470" y="437" type="curve"/>
    </contour>
    <contour>
      <point x="77" y="86" type="move" name="exit"/>
    </contour>
  </outline>
</glyph>
<glyph name="ain-ar.medi" format="1">
  <advance width="598"/>
  <unicode hex="FECC"/>
  <outline>
    <contour>
      <point x="89" y="23" type="line" smooth="yes"/>
      <point x="308" y="48"/>
      <point x="436" y="164"/>
      <point x="457" y="359" type="curve"/>
      <point x="420" y="375"/>
      <point x="376" y="384"/>
      <point x="339" y="384" type="curve" smooth="yes"/>
      <point x="288" y="384"/>
      <point x="240" y="370"/>
      <point x="218" y="349" type="curve" smooth="yes"/>
      <point x="197" y="328"/>
      <point x="169" y="265"/>
      <point x="169" y="237" type="curve" smooth="yes"/>
      <point x="169" y="153"/>
      <point x="331" y="52"/>
      <point x="521" y="72" type="curve"/>
      <point x="578" y="224" type="line"/>
      <point x="396" y="205"/>
      <point x="322" y="246"/>
      <point x="322" y="309" type="curve"/>
      <point x="313" y="212" type="line"/>
      <point x="276" y="197"/>
      <point x="212" y="183"/>
      <point x="118" y="172" type="curve" smooth="yes"/>
      <point x="76" y="167" type="line"/>
      <point x="20" y="15" type="line"/>
    </contour>
    <contour>
      <point x="42" y="83" type="move" name="exit"/>
    </contour>
    <contour>
      <point x="534" y="139" type="move" name="entry"/>
    </contour>
  </outline>
</glyph>
<glyph name="ghain-ar.medi" format="1">
  <advance width="598"/>
  <unicode hex="FED0"/>
  <outline>
    <component base="ain-ar.medi"/>
    <component base="dotabove-ar" xOffset="73" yOffset="97"/>
    <contour>
      <point x="523" y="142" type="move" name="entry"/>
    </contour>
    <contour>
      <point x="49" y="92" type="move" name="exit"/>
    </contour>
  </outline>
</glyph>
<glyph name="feh-ar.fina" format="1">
  <advance width="875"/>
  <unicode hex="FED2"/>
  <outline>
    <component base="dotabove-ar" xOffset="365" yOffset="131"/>
    <component base="dotlessfeh-ar.fina"/>
    <contour>
      <point x="786" y="132" type="move" name="entry"/>
    </contour>
  </outline>
</glyph>
<glyph name="feh-ar.init" format="1">
  <advance width="600"/>
  <unicode hex="FED3"/>
  <outline>
    <component base="dotabove-ar" xOffset="128" yOffset="110"/>
    <component base="dotlessfeh-ar.init"/>
    <contour>
      <point x="211" y="30" type="move" name="exit"/>
    </contour>
  </outline>
</glyph>
<glyph name="feh-ar.medi" format="1">
  <advance width="600"/>
  <unicode hex="FED4"/>
  <outline>
    <component base="dotlessfeh-ar.medi"/>
    <component base="dotabove-ar" xOffset="100" yOffset="140"/>
    <contour>
      <point x="511" y="132" type="move" name="entry"/>
    </contour>
    <contour>
      <point x="76" y="86" type="move" name="exit"/>
    </contour>
  </outline>
</glyph>
<glyph name="qaf-ar.fina" format="1">
  <advance width="568"/>
  <unicode hex="FED6"/>
  <outline>
    <contour>
      <point x="558" y="79" type="line"/>
      <point x="452" y="68" type="line"/>
      <point x="502" y="220" type="line"/>
      <point x="616" y="231" type="line"/>
      <point x="622" y="214" type="line"/>
      <point x="579" y="97" type="line"/>
    </contour>
    <component base="qaf-ar"/>
    <contour>
      <point x="587" y="156" type="move" name="entry"/>
    </contour>
  </outline>
</glyph>
<glyph name="qaf-ar.init" format="1">
  <advance width="600"/>
  <unicode hex="FED7"/>
  <outline>
    <component base="dotlessfeh-ar.init"/>
    <component base="twodotshorizontalabove-ar" xOffset="80" yOffset="-10"/>
    <contour>
      <point x="204" y="37" type="move" name="exit"/>
    </contour>
  </outline>
</glyph>
<glyph name="qaf-ar.medi" format="1">
  <advance width="600"/>
  <unicode hex="FED8"/>
  <outline>
    <component base="dotlessfeh-ar.medi"/>
    <component base="twodotshorizontalabove-ar" xOffset="10" yOffset="50"/>
    <contour>
      <point x="511" y="132" type="move" name="entry"/>
    </contour>
    <contour>
      <point x="76" y="86" type="move" name="exit"/>
    </contour>
  </outline>
</glyph>
<glyph name="kaf-ar.fina" format="1">
  <advance width="603"/>
  <unicode hex="FEDA"/>
  <outline>
    <contour>
      <point x="709" y="146" type="line"/>
      <point x="703" y="163" type="line"/>
      <point x="559" y="148" type="line"/>
      <point x="503" y="-4" type="line"/>
      <point x="645" y="11" type="line"/>
      <point x="666" y="29" type="line"/>
    </contour>
    <component base="kaf-ar" xOffset="6" yOffset="-75"/>
    <contour>
      <point x="674" y="88" type="move" name="entry"/>
    </contour>
  </outline>
</glyph>
<glyph name="kaf-ar.init" format="1">
  <advance width="319"/>
  <unicode hex="FEDB"/>
  <outline>
    <contour>
      <point x="191" y="532"/>
      <point x="242" y="579"/>
      <point x="281" y="599" type="curve"/>
      <point x="298" y="536"/>
      <point x="273" y="175"/>
      <point x="263" y="156" type="curve"/>
      <point x="198" y="5" type="line"/>
      <point x="176" y="13" type="line"/>
      <point x="177" y="140"/>
      <point x="168" y="346"/>
      <point x="155" y="488" type="curve"/>
    </contour>
    <contour>
      <point x="68" y="127" type="line"/>
      <point x="123" y="133"/>
      <point x="180" y="140"/>
      <point x="229" y="152" type="curve"/>
      <point x="204" y="129" type="line"/>
      <point x="214" y="161"/>
      <point x="225" y="210"/>
      <point x="231" y="239" type="curve"/>
      <point x="263" y="238" type="line"/>
      <point x="253" y="141"/>
      <point x="219" y="60"/>
      <point x="198" y="5" type="curve"/>
      <point x="145" y="-8"/>
      <point x="81" y="-18"/>
      <point x="10" y="-25" type="curve"/>
    </contour>
    <contour>
      <point x="299" y="633" type="line"/>
      <point x="322" y="668"/>
      <point x="349" y="702"/>
      <point x="382" y="737" type="curve"/>
      <point x="483" y="793"/>
      <point x="588" y="830"/>
      <point x="699" y="847" type="curve"/>
      <point x="678" y="802"/>
      <point x="651" y="759"/>
      <point x="616" y="718" type="curve"/>
      <point x="509" y="702"/>
      <point x="408" y="670"/>
      <point x="310" y="620" type="curve"/>
    </contour>
    <contour>
      <point x="45" y="45" type="move" name="exit"/>
    </contour>
  </outline>
</glyph>
<glyph name="kaf-ar.medi" format="1">
  <advance width="600"/>
  <unicode hex="FEDC"/>
  <outline>
    <contour>
      <point x="347" y="621" type="line"/>
      <point x="370" y="656"/>
      <point x="397" y="690"/>
      <point x="430" y="725" type="curve"/>
      <point x="531" y="781"/>
      <point x="636" y="818"/>
      <point x="747" y="835" type="curve"/>
      <point x="726" y="790"/>
      <point x="699" y="747"/>
      <point x="664" y="706" type="curve"/>
      <point x="557" y="687"/>
      <point x="456" y="658"/>
      <point x="358" y="608" type="curve"/>
    </contour>
    <component base="lam-ar.medi"/>
    <contour>
      <point x="438" y="89" type="move" name="entry"/>
    </contour>
    <contour>
      <point x="114" y="95" type="move" name="exit"/>
    </contour>
  </outline>
</glyph>
<glyph name="lam-ar.fina" format="1">
  <advance width="661"/>
  <unicode hex="FEDE"/>
  <outline>
    <contour>
      <point x="417" y="170"/>
      <point x="379" y="318"/>
      <point x="353" y="396" type="curve"/>
      <point x="385" y="452"/>
      <point x="432" y="509"/>
      <point x="469" y="538" type="curve"/>
      <point x="483" y="498"/>
      <point x="498" y="331"/>
      <point x="498" y="201" type="curve" smooth="yes"/>
      <point x="498" y="166"/>
      <point x="478" y="46"/>
      <point x="440" y="-1" type="curve"/>
      <point x="394" y="-50"/>
      <point x="302" y="-91"/>
      <point x="211" y="-91" type="curve" smooth="yes"/>
      <point x="121" y="-91"/>
      <point x="41" y="-55"/>
      <point x="25" y="-1" type="curve"/>
      <point x="38" y="71"/>
      <point x="112" y="213"/>
      <point x="196" y="281" type="curve"/>
      <point x="211" y="195" type="line"/>
      <point x="174" y="166"/>
      <point x="125" y="117"/>
      <point x="103" y="88" type="curve"/>
      <point x="102" y="123" type="line"/>
      <point x="108" y="84"/>
      <point x="162" y="61"/>
      <point x="247" y="61" type="curve" smooth="yes"/>
      <point x="335" y="61"/>
      <point x="400" y="81"/>
      <point x="437" y="110" type="curve"/>
      <point x="422" y="86" type="line"/>
    </contour>
    <contour>
      <point x="555" y="11" type="line"/>
      <point x="413" y="-4" type="line"/>
      <point x="469" y="148" type="line"/>
      <point x="613" y="163" type="line"/>
      <point x="619" y="146" type="line"/>
      <point x="576" y="29" type="line"/>
    </contour>
    <contour>
      <point x="584" y="88" type="move" name="entry"/>
    </contour>
  </outline>
</glyph>
<glyph name="lam-ar.init" format="1">
  <advance width="331"/>
  <unicode hex="FEDF"/>
  <outline>
    <contour>
      <point x="95" y="-2"/>
      <point x="190" y="30"/>
      <point x="238" y="80" type="curve"/>
      <point x="276" y="127"/>
      <point x="296" y="247"/>
      <point x="296" y="282" type="curve" smooth="yes"/>
      <point x="296" y="412"/>
      <point x="281" y="579"/>
      <point x="267" y="619" type="curve"/>
      <point x="230" y="590"/>
      <point x="183" y="533"/>
      <point x="151" y="477" type="curve"/>
      <point x="177" y="399"/>
      <point x="215" y="251"/>
      <point x="220" y="167" type="curve"/>
      <point x="236" y="199" type="line"/>
      <point x="196" y="169"/>
      <point x="111" y="145"/>
      <point x="36" y="138" type="curve"/>
      <point x="-1" y="-12" type="line"/>
    </contour>
    <contour>
      <point x="28" y="56" type="move" name="exit"/>
    </contour>
  </outline>
</glyph>
<glyph name="lam-ar.medi" format="1">
  <advance width="600"/>
  <unicode hex="FEE0"/>
  <outline>
    <contour>
      <point x="287" y="-1" type="line"/>
      <point x="421" y="13" type="line"/>
      <point x="481" y="165" type="line"/>
      <point x="343" y="151" type="line"/>
    </contour>
    <contour>
      <point x="144" y="44"/>
      <point x="187" y="53"/>
      <point x="233" y="65" type="curve"/>
      <point x="256" y="109"/>
      <point x="274" y="168"/>
      <point x="286" y="214" type="curve"/>
      <point x="250" y="205"/>
      <point x="194" y="195"/>
      <point x="144" y="190" type="curve"/>
      <point x="86" y="38" type="line"/>
    </contour>
    <contour>
      <point x="274" y="90"/>
      <point x="273" y="40"/>
      <point x="270" y="-1" type="curve"/>
      <point x="289" y="-1" type="line"/>
      <point x="345" y="142" type="line"/>
      <point x="350" y="170"/>
      <point x="356" y="253"/>
      <point x="356" y="344" type="curve" smooth="yes"/>
      <point x="356" y="425"/>
      <point x="341" y="557"/>
      <point x="327" y="589" type="curve"/>
      <point x="290" y="560"/>
      <point x="243" y="503"/>
      <point x="211" y="447" type="curve"/>
      <point x="243" y="369"/>
      <point x="274" y="241"/>
      <point x="274" y="125" type="curve" smooth="yes"/>
    </contour>
    <contour>
      <point x="442" y="80" type="move" name="entry"/>
    </contour>
    <contour>
      <point x="121" y="111" type="move" name="exit"/>
    </contour>
  </outline>
</glyph>
<glyph name="meem-ar.fina" format="1">
  <advance width="524"/>
  <unicode hex="FEE2"/>
  <outline>
    <contour>
      <point x="114" y="150"/>
      <point x="6" y="52"/>
      <point x="-10" y="-7" type="curve"/>
      <point x="35" y="-346" type="line"/>
      <point x="81" y="-318"/>
      <point x="107" y="-264"/>
      <point x="118" y="-191" type="curve"/>
      <point x="104" y="51" type="line"/>
      <point x="56" y="-3" type="line"/>
      <point x="161" y="8"/>
      <point x="247" y="21"/>
      <point x="289" y="34" type="curve"/>
      <point x="336" y="70"/>
      <point x="380" y="140"/>
      <point x="380" y="192" type="curve" smooth="yes"/>
      <point x="380" y="227"/>
      <point x="313" y="276"/>
      <point x="255" y="290" type="curve"/>
      <point x="220" y="192" type="line"/>
      <point x="258" y="214"/>
      <point x="325" y="232"/>
      <point x="417" y="242" type="curve" smooth="yes"/>
      <point x="457" y="246" type="line"/>
      <point x="478" y="264" type="line"/>
      <point x="521" y="381" type="line"/>
      <point x="515" y="398" type="line"/>
      <point x="402" y="386" type="line" smooth="yes"/>
      <point x="335" y="379"/>
      <point x="290" y="361"/>
      <point x="274" y="346" type="curve" smooth="yes"/>
      <point x="245" y="320"/>
      <point x="191" y="198"/>
      <point x="191" y="169" type="curve" smooth="yes"/>
      <point x="191" y="134"/>
      <point x="222" y="96"/>
      <point x="295" y="96" type="curve"/>
      <point x="334" y="115" type="line"/>
      <point x="332" y="184" type="line"/>
      <point x="304" y="174"/>
      <point x="227" y="162"/>
      <point x="171" y="156" type="curve" smooth="yes"/>
    </contour>
    <contour>
      <point x="486" y="323" type="move" name="entry"/>
    </contour>
  </outline>
</glyph>
<glyph name="meem-ar.init" format="1">
  <advance width="600"/>
  <unicode hex="FEE3"/>
  <outline>
    <contour>
      <point x="341" y="65" type="curve"/>
      <point x="277" y="45"/>
      <point x="170" y="23"/>
      <point x="66" y="12" type="curve"/>
      <point x="124" y="164" type="line"/>
      <point x="153" y="167" type="line" smooth="yes"/>
      <point x="256" y="178"/>
      <point x="347" y="202"/>
      <point x="397" y="223" type="curve"/>
      <point x="402" y="180" type="line"/>
      <point x="333" y="131" type="line"/>
      <point x="259" y="137"/>
      <point x="236" y="180"/>
      <point x="236" y="209" type="curve" smooth="yes"/>
      <point x="236" y="234"/>
      <point x="262" y="302"/>
      <point x="286" y="318" type="curve" smooth="yes"/>
      <point x="306" y="333"/>
      <point x="338" y="342"/>
      <point x="361" y="342" type="curve" smooth="yes"/>
      <point x="417" y="342"/>
      <point x="458" y="321"/>
      <point x="458" y="296" type="curve" smooth="yes"/>
      <point x="458" y="195"/>
      <point x="397" y="89"/>
    </contour>
    <contour>
      <point x="95" y="89" type="move" name="exit"/>
    </contour>
  </outline>
</glyph>
<glyph name="meem-ar.medi" format="1">
  <advance width="600"/>
  <unicode hex="FEE4"/>
  <outline>
    <contour>
      <point x="355" y="239"/>
      <point x="422" y="257"/>
      <point x="514" y="267" type="curve" smooth="yes"/>
      <point x="554" y="271" type="line"/>
      <point x="575" y="289" type="line"/>
      <point x="618" y="406" type="line"/>
      <point x="612" y="423" type="line"/>
      <point x="499" y="411" type="line" smooth="yes"/>
      <point x="432" y="404"/>
      <point x="387" y="386"/>
      <point x="371" y="371" type="curve" smooth="yes"/>
      <point x="342" y="345"/>
      <point x="288" y="223"/>
      <point x="288" y="194" type="curve" smooth="yes"/>
      <point x="288" y="159"/>
      <point x="319" y="121"/>
      <point x="392" y="121" type="curve"/>
      <point x="431" y="140" type="line"/>
      <point x="429" y="209" type="line"/>
      <point x="396" y="197"/>
      <point x="305" y="184"/>
      <point x="239" y="177" type="curve" smooth="yes"/>
      <point x="210" y="174" type="line"/>
      <point x="152" y="22" type="line"/>
      <point x="257" y="33"/>
      <point x="343" y="46"/>
      <point x="386" y="59" type="curve"/>
      <point x="433" y="95"/>
      <point x="477" y="165"/>
      <point x="477" y="217" type="curve" smooth="yes"/>
      <point x="477" y="252"/>
      <point x="410" y="301"/>
      <point x="352" y="315" type="curve"/>
      <point x="317" y="217" type="line"/>
    </contour>
    <contour>
      <point x="583" y="348" type="move" name="entry"/>
    </contour>
    <contour>
      <point x="181" y="99" type="move" name="exit"/>
    </contour>
  </outline>
</glyph>
<glyph name="noon-ar.fina" format="1">
  <advance width="647"/>
  <unicode hex="FEE6"/>
  <outline>
    <contour>
      <point x="453" y="49" type="line"/>
      <point x="581" y="62" type="line"/>
      <point x="637" y="214" type="line"/>
      <point x="500" y="200" type="line"/>
    </contour>
    <contour>
      <point x="500" y="200" type="line"/>
      <point x="436" y="65" type="line"/>
      <point x="363" y="65"/>
      <point x="377" y="222"/>
      <point x="292" y="222" type="curve" smooth="yes"/>
      <point x="260" y="222"/>
      <point x="229" y="205"/>
      <point x="202" y="173" type="curve"/>
      <point x="174" y="93"/>
      <point x="150" y="11"/>
      <point x="130" y="-75" type="curve"/>
      <point x="155" y="-83" type="line"/>
      <point x="170" y="-36"/>
      <point x="186" y="11"/>
      <point x="206" y="58" type="curve"/>
      <point x="218" y="66"/>
      <point x="232" y="70"/>
      <point x="251" y="70" type="curve" smooth="yes"/>
      <point x="320" y="70"/>
      <point x="293" y="-76"/>
      <point x="396" y="-76" type="curve" smooth="yes"/>
      <point x="403" y="-76"/>
      <point x="416" y="-73"/>
      <point x="420" y="-71" type="curve"/>
      <point x="531" y="197" type="line"/>
    </contour>
    <contour>
      <point x="598" y="130" type="move" name="entry"/>
    </contour>
  </outline>
</glyph>
<glyph name="noon-ar.init" format="1">
  <advance width="288"/>
  <unicode hex="FEE7"/>
  <outline>
    <component base="dotlessbeh-ar.init"/>
    <component base="dotabove-ar" xOffset="-50" yOffset="10"/>
    <contour>
      <point x="56" y="76" type="move" name="exit"/>
    </contour>
  </outline>
</glyph>
<glyph name="noon-ar.medi" format="1">
  <advance width="413"/>
  <unicode hex="FEE8"/>
  <outline>
    <component base="dotlessbeh-ar.medi"/>
    <component base="dotabove-ar" xOffset="31"/>
    <contour>
      <point x="356" y="184" type="move" name="entry"/>
    </contour>
    <contour>
      <point x="26" y="76" type="move" name="exit"/>
    </contour>
  </outline>
</glyph>
<glyph name="heh-ar.fina" format="1">
  <advance width="713"/>
  <unicode hex="FEEA"/>
  <outline>
    <contour>
      <point x="40" y="335"/>
      <point x="40" y="224" type="curve" smooth="yes"/>
      <point x="40" y="170"/>
      <point x="83" y="121"/>
      <point x="154" y="121" type="curve" smooth="yes"/>
      <point x="231" y="121"/>
      <point x="306" y="162"/>
      <point x="366" y="208" type="curve"/>
      <point x="369" y="292" type="line"/>
      <point x="311" y="278"/>
      <point x="265" y="273"/>
      <point x="231" y="273" type="curve" smooth="yes"/>
      <point x="171" y="273"/>
      <point x="120" y="307"/>
      <point x="120" y="360" type="curve" smooth="yes"/>
      <point x="120" y="368"/>
      <point x="122" y="376"/>
      <point x="125" y="385" type="curve"/>
      <point x="90" y="325" type="line"/>
      <point x="105" y="337"/>
      <point x="131" y="350"/>
      <point x="179" y="350" type="curve" smooth="yes"/>
      <point x="270" y="350"/>
      <point x="322" y="323"/>
      <point x="322" y="238" type="curve" smooth="yes"/>
      <point x="322" y="189"/>
      <point x="312" y="70"/>
      <point x="307" y="1" type="curve"/>
      <point x="449" y="16" type="line"/>
      <point x="470" y="34" type="line"/>
      <point x="513" y="151" type="line"/>
      <point x="507" y="168" type="line"/>
      <point x="436" y="161" type="line"/>
      <point x="438" y="185"/>
      <point x="443" y="264"/>
      <point x="443" y="278" type="curve" smooth="yes"/>
      <point x="443" y="420"/>
      <point x="380" y="503"/>
      <point x="269" y="503" type="curve" smooth="yes"/>
      <point x="175" y="503"/>
    </contour>
    <contour>
      <point x="478" y="93" type="move" name="entry"/>
    </contour>
  </outline>
</glyph>
<glyph name="heh-ar.init" format="1">
  <advance width="600"/>
  <unicode hex="FEEB"/>
  <outline>
    <contour>
      <point x="537" y="470"/>
      <point x="611" y="379"/>
      <point x="611" y="218" type="curve" smooth="yes"/>
      <point x="611" y="167"/>
      <point x="577" y="73"/>
      <point x="551" y="35" type="curve"/>
      <point x="502" y="-16"/>
      <point x="415" y="-65"/>
      <point x="332" y="-65" type="curve" smooth="yes"/>
      <point x="250" y="-65"/>
      <point x="202" y="-12"/>
      <point x="197" y="69" type="curve"/>
      <point x="215" y="188"/>
      <point x="285" y="295"/>
      <point x="363" y="326" type="curve"/>
      <point x="407" y="316"/>
      <point x="439" y="257"/>
      <point x="439" y="191" type="curve" smooth="yes"/>
      <point x="439" y="110"/>
      <point x="391" y="14"/>
      <point x="299" y="-54" type="curve"/>
      <point x="242" y="-82"/>
      <point x="169" y="-100"/>
      <point x="85" y="-108" type="curve"/>
      <point x="142" y="44" type="line"/>
      <point x="165" y="47"/>
      <point x="206" y="51"/>
      <point x="254" y="57" type="curve"/>
      <point x="308" y="55" type="line"/>
      <point x="328" y="84"/>
      <point x="334" y="118"/>
      <point x="334" y="144" type="curve" smooth="yes"/>
      <point x="334" y="176"/>
      <point x="325" y="205"/>
      <point x="309" y="218" type="curve"/>
      <point x="295" y="209"/>
      <point x="268" y="173"/>
      <point x="263" y="156" type="curve"/>
      <point x="270" y="117"/>
      <point x="311" y="87"/>
      <point x="376" y="87" type="curve" smooth="yes"/>
      <point x="436" y="87"/>
      <point x="524" y="110"/>
      <point x="553" y="134" type="curve"/>
      <point x="523" y="113" type="line"/>
      <point x="527" y="241"/>
      <point x="440" y="377"/>
      <point x="337" y="377" type="curve" smooth="yes"/>
      <point x="300" y="377"/>
      <point x="265" y="361"/>
      <point x="206" y="303" type="curve"/>
      <point x="189" y="316" type="line"/>
      <point x="255" y="410"/>
      <point x="365" y="470"/>
      <point x="441" y="470" type="curve" smooth="yes"/>
    </contour>
    <contour>
      <point x="121" y="-38" type="move" name="exit"/>
    </contour>
  </outline>
</glyph>
<glyph name="heh-ar.medi" format="1">
  <advance width="696"/>
  <unicode hex="FEEC"/>
  <outline>
    <contour>
      <point x="285" y="161" type="line"/>
      <point x="246" y="146"/>
      <point x="175" y="128"/>
      <point x="108" y="121" type="curve"/>
      <point x="50" y="-31" type="line"/>
      <point x="108" y="-25"/>
      <point x="149" y="-17"/>
      <point x="186" y="-6" type="curve"/>
      <point x="155" y="-270" type="line"/>
      <point x="187" y="-273" type="line"/>
      <point x="225" y="-136"/>
      <point x="379" y="22"/>
      <point x="504" y="36" type="curve"/>
      <point x="525" y="54" type="line"/>
      <point x="568" y="171" type="line"/>
      <point x="562" y="188" type="line"/>
      <point x="412" y="172"/>
      <point x="259" y="2"/>
      <point x="235" y="-119" type="curve"/>
      <point x="247" y="-119" type="line"/>
    </contour>
    <contour>
      <point x="533" y="113" type="move" name="entry"/>
    </contour>
    <contour>
      <point x="79" y="46" type="move" name="exit"/>
    </contour>
  </outline>
</glyph>
<glyph name="waw-ar.fina" format="1">
  <advance width="479"/>
  <unicode hex="FEEE"/>
  <outline>
    <contour>
      <point x="431" y="184" type="line"/>
      <point x="325" y="173" type="line"/>
      <point x="375" y="325" type="line"/>
      <point x="489" y="336" type="line"/>
      <point x="495" y="319" type="line"/>
      <point x="452" y="202" type="line"/>
    </contour>
    <component base="waw-ar"/>
    <contour>
      <point x="460" y="261" type="move" name="entry"/>
    </contour>
  </outline>
</glyph>
<glyph name="alefMaksura-ar.fina" format="1">
  <advance width="725"/>
  <unicode hex="FEF0"/>
  <outline>
    <component base="dotlessyeh-ar.fina"/>
    <contour>
      <point x="673" y="292" type="move" name="entry"/>
    </contour>
  </outline>
</glyph>
<glyph name="yeh-ar.fina" format="1">
  <advance width="725"/>
  <unicode hex="FEF2"/>
  <outline>
    <contour>
      <point x="614" y="166"/>
      <point x="485" y="196"/>
      <point x="402" y="194" type="curve"/>
      <point x="404" y="180" type="line"/>
      <point x="478" y="196"/>
      <point x="568" y="208"/>
      <point x="658" y="216" type="curve"/>
      <point x="715" y="368" type="line"/>
      <point x="609" y="358"/>
      <point x="502" y="334"/>
      <point x="418" y="297" type="curve"/>
      <point x="377" y="231"/>
      <point x="344" y="147"/>
      <point x="321" y="69" type="curve"/>
      <point x="403" y="62"/>
      <point x="529" y="44"/>
      <point x="573" y="33" type="curve"/>
      <point x="572" y="44" type="line"/>
      <point x="512" y="-31"/>
      <point x="392" y="-53"/>
      <point x="308" y="-53" type="curve" smooth="yes"/>
      <point x="214" y="-53"/>
      <point x="152" y="-21"/>
      <point x="116" y="31" type="curve"/>
      <point x="162" y="100"/>
      <point x="227" y="164"/>
      <point x="306" y="220" type="curve"/>
      <point x="285" y="314" type="line"/>
      <point x="160" y="213"/>
      <point x="76" y="80"/>
      <point x="25" y="-51" type="curve"/>
      <point x="35" y="-157"/>
      <point x="132" y="-211"/>
      <point x="252" y="-211" type="curve" smooth="yes"/>
      <point x="346" y="-211"/>
      <point x="482" y="-172"/>
      <point x="556" y="-89" type="curve" smooth="yes"/>
      <point x="589" y="-52"/>
      <point x="615" y="21"/>
      <point x="634" y="148" type="curve"/>
    </contour>
    <component base="twodotshorizontalbelow-ar" xOffset="16" yOffset="-210"/>
    <contour>
      <point x="677" y="282" type="move" name="entry"/>
    </contour>
  </outline>
</glyph>
<glyph name="yeh-ar.init" format="1">
  <advance width="288"/>
  <unicode hex="FEF3"/>
  <outline>
    <component base="dotlessbeh-ar.init"/>
    <component base="twodotshorizontalbelow-ar" xOffset="-170"/>
    <contour>
      <point x="56" y="76" type="move" name="exit"/>
    </contour>
  </outline>
</glyph>
<glyph name="yeh-ar.medi" format="1">
  <advance width="413"/>
  <unicode hex="FEF4"/>
  <outline>
    <component base="dotlessbeh-ar.medi"/>
    <component base="twodotshorizontalbelow-ar" xOffset="-130"/>
    <contour>
      <point x="355" y="93" type="move" name="entry"/>
    </contour>
    <contour>
      <point x="71" y="100" type="move" name="exit"/>
    </contour>
  </outline>
</glyph>
<glyph name="O.alt1" format="1">
  <advance width="750"/>
  <outline>
    <contour>
      <point x="306" y="20"/>
      <point x="203" y="160"/>
      <point x="203" y="345" type="curve" smooth="yes"/>
      <point x="203" y="543"/>
      <point x="269" y="647"/>
      <point x="354" y="647" type="curve" smooth="yes"/>
      <point x="445" y="647"/>
      <point x="547" y="506"/>
      <point x="547" y="322" type="curve" smooth="yes"/>
      <point x="547" y="124"/>
      <point x="481" y="20"/>
      <point x="396" y="20" type="curve" smooth="yes"/>
    </contour>
    <contour>
      <point x="25" y="113"/>
      <point x="155" y="-15"/>
      <point x="371" y="-15" type="curve" smooth="yes"/>
      <point x="601" y="-15"/>
      <point x="725" y="134"/>
      <point x="725" y="351" type="curve" smooth="yes"/>
      <point x="725" y="555"/>
      <point x="594" y="682"/>
      <point x="378" y="682" type="curve" smooth="yes"/>
      <point x="149" y="682"/>
      <point x="25" y="533"/>
      <point x="25" y="316" type="curve" smooth="yes"/>
    </contour>
  </outline>
</glyph>
<glyph name="Q.alt1" format="1">
  <advance width="750"/>
  <outline>
    <contour>
      <point x="447" y="-112"/>
      <point x="601" y="-212"/>
      <point x="796" y="-259" type="curve"/>
      <point x="867" y="-53" type="line"/>
      <point x="838" y="-39" type="line"/>
      <point x="811" y="-70" type="line"/>
      <point x="650" y="-81"/>
      <point x="525" y="-45"/>
      <point x="419" y="12" type="curve"/>
      <point x="359" y="11" type="line"/>
    </contour>
    <component base="O.alt1"/>
  </outline>
</glyph>
<glyph name="_part.sadbowl" format="1">
  <advance width="600"/>
  <outline>
    <contour>
      <point x="254" y="293"/>
      <point x="276" y="339"/>
      <point x="292" y="359" type="curve" smooth="yes"/>
      <point x="324" y="402"/>
      <point x="379" y="425"/>
      <point x="434" y="425" type="curve" smooth="yes"/>
      <point x="491" y="425"/>
      <point x="520" y="400"/>
      <point x="520" y="331" type="curve" smooth="yes"/>
      <point x="520" y="265"/>
      <point x="488" y="178"/>
      <point x="440" y="140" type="curve" smooth="yes"/>
      <point x="407" y="97"/>
      <point x="347" y="73"/>
      <point x="232" y="57" type="curve" smooth="yes"/>
      <point x="71" y="41" type="line"/>
      <point x="119" y="192" type="line"/>
      <point x="245" y="205" type="line" smooth="yes"/>
      <point x="384" y="219"/>
      <point x="466" y="232"/>
      <point x="466" y="252" type="curve" smooth="yes"/>
      <point x="466" y="263"/>
      <point x="440" y="273"/>
      <point x="398" y="273" type="curve" smooth="yes"/>
      <point x="344" y="273"/>
      <point x="293" y="257"/>
      <point x="265" y="238" type="curve"/>
      <point x="254" y="215"/>
      <point x="248" y="204"/>
      <point x="235" y="170" type="curve"/>
      <point x="250" y="167"/>
      <point x="276" y="163"/>
      <point x="330" y="163" type="curve" smooth="yes"/>
      <point x="385" y="163"/>
      <point x="454" y="167"/>
      <point x="598" y="182" type="curve"/>
      <point x="604" y="165" type="line"/>
      <point x="560" y="47" type="line"/>
      <point x="540" y="30" type="line"/>
      <point x="447" y="20"/>
      <point x="373" y="16"/>
      <point x="322" y="16" type="curve" smooth="yes"/>
      <point x="239" y="16"/>
      <point x="187" y="82"/>
      <point x="199" y="164" type="curve"/>
    </contour>
    <contour>
      <point x="116" y="182" type="line"/>
      <point x="125" y="211"/>
      <point x="137" y="253"/>
      <point x="144" y="282" type="curve"/>
      <point x="176" y="279" type="line"/>
      <point x="168" y="240"/>
      <point x="161" y="211"/>
      <point x="155" y="180" type="curve"/>
    </contour>
    <contour>
      <point x="569" y="167" type="move" name="entry"/>
    </contour>
  </outline>
</glyph>
<glyph name="_part.shortstem" format="1">
  <advance width="606"/>
  <outline>
    <contour>
      <point x="243" y="350" type="line"/>
      <point x="208" y="485" type="line"/>
      <point x="29" y="432" type="line"/>
      <point x="39" y="400" type="line"/>
      <point x="91" y="410" type="line"/>
      <point x="91" y="38" type="line"/>
      <point x="37" y="32" type="line"/>
      <point x="37" y="0" type="line"/>
      <point x="297" y="0" type="line"/>
      <point x="297" y="32" type="line"/>
      <point x="243" y="38" type="line"/>
    </contour>
  </outline>
</glyph>
<glyph name="_part.shoulder" format="1">
  <advance width="606"/>
  <outline>
    <contour>
      <point x="376" y="38" type="line"/>
      <point x="322" y="32" type="line"/>
      <point x="322" y="0" type="line"/>
      <point x="582" y="0" type="line"/>
      <point x="582" y="32" type="line"/>
      <point x="528" y="38" type="line"/>
      <point x="528" y="280" type="line" smooth="yes"/>
      <point x="528" y="417"/>
      <point x="481" y="491"/>
      <point x="379" y="522" type="curve"/>
      <point x="223" y="318" type="line"/>
      <point x="237" y="287" type="line"/>
      <point x="315" y="366" type="line"/>
      <point x="354" y="356"/>
      <point x="376" y="303"/>
      <point x="376" y="219" type="curve" smooth="yes"/>
    </contour>
  </outline>
</glyph>
<glyph name="_part.tallstem" format="1">
  <advance width="600"/>
  <outline>
    <contour>
      <point x="226" y="790" type="line"/>
      <point x="22" y="724" type="line"/>
      <point x="32" y="692" type="line"/>
      <point x="74" y="701" type="line"/>
      <point x="74" y="35" type="line"/>
      <point x="34" y="32" type="line"/>
      <point x="34" y="0" type="line"/>
      <point x="266" y="0" type="line"/>
      <point x="266" y="32" type="line"/>
      <point x="226" y="35" type="line"/>
    </contour>
  </outline>
</glyph>
<glyph name="beh-ar.medi.all1" format="1">
  <advance width="413"/>
  <outline>
    <contour>
      <point x="33" y="19" type="move"/>
    </contour>
    <component base="dotbelow-ar" xOffset="-70" yOffset="-10"/>
    <component base="dotlessbeh-ar.medi.all1"/>
    <contour>
      <point x="352" y="93" type="move" name="entry"/>
    </contour>
    <contour>
      <point x="49" y="77" type="move" name="exit"/>
    </contour>
  </outline>
</glyph>
<glyph name="dotlessbeh-ar.all1" format="1">
  <advance width="799"/>
  <outline>
    <contour>
      <point x="694" y="199" type="line"/>
      <point x="638" y="15" type="line"/>
      <point x="609" y="19" type="line"/>
      <point x="619" y="69" type="line"/>
      <point x="510" y="15"/>
      <point x="331" y="-42"/>
      <point x="197" y="-42" type="curve" smooth="yes"/>
      <point x="133" y="-42"/>
      <point x="72" y="-27"/>
      <point x="25" y="4" type="curve"/>
      <point x="25" y="73"/>
      <point x="46" y="133"/>
      <point x="72" y="176" type="curve" smooth="yes"/>
      <point x="107" y="234"/>
      <point x="171" y="295"/>
      <point x="231" y="331" type="curve"/>
      <point x="249" y="246" type="line"/>
      <point x="194" y="218"/>
      <point x="133" y="172"/>
      <point x="93" y="132" type="curve"/>
      <point x="87" y="165" type="line"/>
      <point x="119" y="139"/>
      <point x="167" y="125"/>
      <point x="226" y="125" type="curve" smooth="yes"/>
      <point x="351" y="125"/>
      <point x="557" y="174"/>
      <point x="680" y="221" type="curve"/>
    </contour>
  </outline>
</glyph>
<glyph name="dotlessbeh-ar.fina" format="1">
  <advance width="826"/>
  <outline>
    <contour>
      <point x="742" y="295" type="line"/>
      <point x="729" y="205"/>
      <point x="707" y="121"/>
      <point x="685" y="60" type="curve"/>
      <point x="658" y="72" type="line"/>
      <point x="661" y="84"/>
      <point x="669" y="110"/>
      <point x="675" y="136" type="curve"/>
      <point x="609" y="53"/>
      <point x="486" y="-36"/>
      <point x="270" y="-36" type="curve" smooth="yes"/>
      <point x="170" y="-36"/>
      <point x="93" y="-20"/>
      <point x="40" y="1" type="curve"/>
      <point x="65" y="161"/>
      <point x="151" y="292"/>
      <point x="258" y="343" type="curve"/>
      <point x="267" y="245" type="line"/>
      <point x="213" y="218"/>
      <point x="154" y="168"/>
      <point x="127" y="128" type="curve"/>
      <point x="130" y="143" type="line"/>
      <point x="174" y="128"/>
      <point x="250" y="117"/>
      <point x="330" y="117" type="curve" smooth="yes"/>
      <point x="490" y="117"/>
      <point x="642" y="186"/>
      <point x="714" y="295" type="curve"/>
    </contour>
    <contour>
      <point x="858" y="224" type="line"/>
      <point x="799" y="72" type="line"/>
      <point x="685" y="60" type="line"/>
      <point x="712" y="209" type="line"/>
    </contour>
  </outline>
</glyph>
<glyph name="dotlessbeh-ar.init.all1" format="1">
  <advance width="288"/>
  <outline>
    <contour>
      <point x="4" y="2" type="line"/>
      <point x="83" y="10"/>
      <point x="164" y="38"/>
      <point x="198" y="61" type="curve"/>
      <point x="229" y="105"/>
      <point x="260" y="198"/>
      <point x="260" y="248" type="curve" smooth="yes"/>
      <point x="260" y="289"/>
      <point x="223" y="354"/>
      <point x="182" y="386" type="curve"/>
      <point x="73" y="269" type="line"/>
      <point x="132" y="220"/>
      <point x="172" y="176"/>
      <point x="188" y="142" type="curve"/>
      <point x="194" y="160" type="line"/>
      <point x="59" y="146" type="line"/>
    </contour>
  </outline>
</glyph>
<glyph name="dotlessbeh-ar.init.all2" format="1">
  <advance width="376"/>
  <outline>
    <contour>
      <point x="244" y="108"/>
      <point x="213" y="115"/>
      <point x="193" y="115" type="curve" smooth="yes"/>
      <point x="122" y="115"/>
      <point x="69" y="74"/>
      <point x="32" y="-21" type="curve"/>
      <point x="0" y="-20" type="line"/>
      <point x="67" y="155"/>
      <point x="145" y="267"/>
      <point x="242" y="267" type="curve" smooth="yes"/>
      <point x="284" y="267"/>
      <point x="329" y="255"/>
      <point x="356" y="239" type="curve"/>
      <point x="324" y="166"/>
      <point x="293" y="82"/>
      <point x="281" y="46" type="curve"/>
      <point x="249" y="47" type="line"/>
      <point x="251" y="60"/>
      <point x="256" y="84"/>
      <point x="259" y="101" type="curve"/>
    </contour>
    <contour>
      <point x="29" y="57" type="move" name="exit"/>
    </contour>
  </outline>
</glyph>
<glyph name="dotlessbeh-ar.init" format="1">
  <advance width="288"/>
  <outline>
    <contour>
      <point x="65" y="151" type="line"/>
      <point x="120" y="157"/>
      <point x="177" y="164"/>
      <point x="226" y="176" type="curve"/>
      <point x="201" y="153" type="line"/>
      <point x="211" y="185"/>
      <point x="222" y="234"/>
      <point x="228" y="263" type="curve"/>
      <point x="260" y="262" type="line"/>
      <point x="250" y="165"/>
      <point x="224" y="85"/>
      <point x="195" y="29" type="curve"/>
      <point x="142" y="16"/>
      <point x="78" y="6"/>
      <point x="7" y="-1" type="curve"/>
    </contour>
  </outline>
</glyph>
<glyph name="dotlessbeh-ar.medi.all1" format="1">
  <advance width="387"/>
  <outline>
    <contour>
      <point x="313" y="318" type="line"/>
      <point x="309" y="116" type="line"/>
      <point x="237" y="153" type="line"/>
      <point x="381" y="168" type="line"/>
      <point x="387" y="151" type="line"/>
      <point x="344" y="34" type="line"/>
      <point x="323" y="16" type="line"/>
      <point x="190" y="2" type="line"/>
      <point x="194" y="256" type="line"/>
    </contour>
    <contour>
      <point x="78" y="152" type="line"/>
      <point x="121" y="157"/>
      <point x="170" y="167"/>
      <point x="201" y="177" type="curve"/>
      <point x="189" y="131"/>
      <point x="171" y="72"/>
      <point x="148" y="28" type="curve"/>
      <point x="116" y="16"/>
      <point x="74" y="6"/>
      <point x="20" y="0" type="curve"/>
    </contour>
    <contour>
      <point x="352" y="93" type="move" name="entry"/>
    </contour>
    <contour>
      <point x="49" y="77" type="move" name="exit"/>
    </contour>
  </outline>
</glyph>
<glyph name="dotlessbeh-ar.medi" format="1">
  <advance width="413"/>
  <outline>
    <contour>
      <point x="109" y="166" type="line"/>
      <point x="158" y="171"/>
      <point x="216" y="181"/>
      <point x="252" y="191" type="curve"/>
      <point x="241" y="145"/>
      <point x="224" y="86"/>
      <point x="203" y="42" type="curve"/>
      <point x="158" y="29"/>
      <point x="104" y="19"/>
      <point x="51" y="14" type="curve"/>
    </contour>
    <contour>
      <point x="236" y="151" type="line"/>
      <point x="245" y="180"/>
      <point x="257" y="222"/>
      <point x="264" y="251" type="curve"/>
      <point x="296" y="248" type="line"/>
      <point x="288" y="209"/>
      <point x="281" y="180"/>
      <point x="275" y="149" type="curve"/>
    </contour>
    <contour>
      <point x="315" y="23" type="line"/>
      <point x="191" y="10" type="line"/>
      <point x="239" y="161" type="line"/>
      <point x="373" y="175" type="line"/>
      <point x="379" y="158" type="line"/>
      <point x="336" y="41" type="line"/>
    </contour>
  </outline>
</glyph>
<glyph name="dotlessfeh-ar.fina" format="1">
  <advance width="875"/>
  <outline>
    <contour>
      <point x="544" y="8"/>
      <point x="735" y="148"/>
      <point x="735" y="335" type="curve" smooth="yes"/>
      <point x="735" y="388"/>
      <point x="686" y="416"/>
      <point x="631" y="416" type="curve" smooth="yes"/>
      <point x="600" y="416"/>
      <point x="572" y="407"/>
      <point x="553" y="388" type="curve" smooth="yes"/>
      <point x="524" y="360"/>
      <point x="467" y="251"/>
      <point x="467" y="196" type="curve" smooth="yes"/>
      <point x="467" y="113"/>
      <point x="557" y="32"/>
      <point x="743" y="53" type="curve" smooth="yes"/>
      <point x="757" y="55" type="line"/>
      <point x="778" y="73" type="line"/>
      <point x="821" y="190" type="line"/>
      <point x="815" y="207" type="line"/>
      <point x="778" y="203" type="line" smooth="yes"/>
      <point x="597" y="183"/>
      <point x="529" y="236"/>
      <point x="529" y="307" type="curve"/>
      <point x="507" y="252" type="line"/>
      <point x="533" y="269"/>
      <point x="555" y="280"/>
      <point x="588" y="280" type="curve" smooth="yes"/>
      <point x="632" y="280"/>
      <point x="665" y="262"/>
      <point x="693" y="236" type="curve"/>
      <point x="684" y="281" type="line"/>
      <point x="606" y="190"/>
      <point x="462" y="160"/>
      <point x="339" y="160" type="curve" smooth="yes"/>
      <point x="192" y="160"/>
      <point x="121" y="197"/>
      <point x="95" y="283" type="curve"/>
      <point x="95" y="234" type="line"/>
      <point x="121" y="264"/>
      <point x="168" y="306"/>
      <point x="208" y="335" type="curve"/>
      <point x="189" y="421" type="line"/>
      <point x="101" y="334"/>
      <point x="52" y="262"/>
      <point x="20" y="172" type="curve"/>
      <point x="20" y="70"/>
      <point x="117" y="8"/>
      <point x="277" y="8" type="curve" smooth="yes"/>
    </contour>
    <contour>
      <point x="786" y="132" type="move" name="entry"/>
    </contour>
  </outline>
</glyph>
<glyph name="dotlessfeh-ar.init" format="1">
  <advance width="600"/>
  <outline>
    <contour>
      <point x="406" y="10"/>
      <point x="335" y="-23"/>
      <point x="214" y="-36" type="curve" smooth="yes"/>
      <point x="175" y="-40" type="line"/>
      <point x="233" y="112" type="line"/>
      <point x="295" y="118" type="line" smooth="yes"/>
      <point x="339" y="123"/>
      <point x="403" y="134"/>
      <point x="426" y="141" type="curve"/>
      <point x="408" y="119" type="line"/>
      <point x="400" y="172" type="line"/>
      <point x="371" y="172" type="line" smooth="yes"/>
      <point x="324" y="172"/>
      <point x="293" y="186"/>
      <point x="293" y="213" type="curve" smooth="yes"/>
      <point x="293" y="260"/>
      <point x="383" y="375"/>
      <point x="437" y="375" type="curve" smooth="yes"/>
      <point x="471" y="375"/>
      <point x="495" y="323"/>
      <point x="495" y="249" type="curve" smooth="yes"/>
      <point x="495" y="188"/>
      <point x="464" y="87"/>
      <point x="430" y="40" type="curve" smooth="yes"/>
    </contour>
    <contour>
      <point x="204" y="37" type="move" name="exit"/>
    </contour>
  </outline>
</glyph>
<glyph name="dotlessfeh-ar.medi" format="1">
  <advance width="600"/>
  <outline>
    <contour>
      <point x="30" y="7" type="line"/>
      <point x="86" y="159" type="line"/>
      <point x="151" y="166" type="line" smooth="yes"/>
      <point x="312" y="183"/>
      <point x="363" y="213"/>
      <point x="428" y="281" type="curve"/>
      <point x="437" y="238" type="line"/>
      <point x="399" y="278"/>
      <point x="357" y="293"/>
      <point x="306" y="293" type="curve" smooth="yes"/>
      <point x="264" y="293"/>
      <point x="238" y="282"/>
      <point x="212" y="265" type="curve"/>
      <point x="234" y="307" type="line"/>
      <point x="234" y="238"/>
      <point x="316" y="187"/>
      <point x="526" y="209" type="curve" smooth="yes"/>
      <point x="573" y="214" type="line"/>
      <point x="517" y="62" type="line"/>
      <point x="460" y="56" type="line" smooth="yes"/>
      <point x="275" y="37"/>
      <point x="172" y="114"/>
      <point x="172" y="196" type="curve" smooth="yes"/>
      <point x="172" y="255"/>
      <point x="231" y="368"/>
      <point x="260" y="393" type="curve" smooth="yes"/>
      <point x="286" y="415"/>
      <point x="317" y="427"/>
      <point x="356" y="427" type="curve" smooth="yes"/>
      <point x="425" y="427"/>
      <point x="482" y="397"/>
      <point x="482" y="343" type="curve" smooth="yes"/>
      <point x="472" y="208"/>
      <point x="357" y="42"/>
      <point x="114" y="16" type="curve" smooth="yes"/>
    </contour>
    <contour>
      <point x="526" y="129" type="move" name="entry"/>
    </contour>
    <contour>
      <point x="67" y="77" type="move" name="exit"/>
    </contour>
  </outline>
</glyph>
<glyph name="dotlessyeh-ar.fina.all1" format="1">
  <advance width="725"/>
  <outline>
    <contour>
      <point x="591" y="183"/>
      <point x="473" y="218"/>
      <point x="412" y="226" type="curve"/>
      <point x="389" y="177" type="line"/>
      <point x="410" y="195" type="line"/>
      <point x="453" y="312" type="line"/>
      <point x="447" y="329" type="line"/>
      <point x="428" y="327" type="line"/>
      <point x="387" y="261"/>
      <point x="354" y="177"/>
      <point x="331" y="99" type="curve"/>
      <point x="389" y="91"/>
      <point x="531" y="52"/>
      <point x="573" y="33" type="curve"/>
      <point x="572" y="44" type="line"/>
      <point x="517" y="-12"/>
      <point x="419" y="-53"/>
      <point x="310" y="-53" type="curve" smooth="yes"/>
      <point x="213" y="-53"/>
      <point x="152" y="-21"/>
      <point x="116" y="31" type="curve"/>
      <point x="162" y="100"/>
      <point x="227" y="164"/>
      <point x="306" y="220" type="curve"/>
      <point x="285" y="314" type="line"/>
      <point x="160" y="213"/>
      <point x="76" y="80"/>
      <point x="25" y="-51" type="curve"/>
      <point x="34" y="-156"/>
      <point x="134" y="-211"/>
      <point x="247" y="-211" type="curve" smooth="yes"/>
      <point x="349" y="-211"/>
      <point x="492" y="-167"/>
      <point x="556" y="-89" type="curve" smooth="yes"/>
      <point x="589" y="-49"/>
      <point x="613" y="14"/>
      <point x="634" y="159" type="curve"/>
    </contour>
    <contour>
      <point x="418" y="254" type="move" name="entry"/>
    </contour>
  </outline>
</glyph>
<glyph name="dotlessyeh-ar.fina" format="1">
  <advance width="725"/>
  <outline>
    <contour>
      <point x="589" y="174"/>
      <point x="485" y="193"/>
      <point x="402" y="191" type="curve"/>
      <point x="404" y="180" type="line"/>
      <point x="474" y="195"/>
      <point x="558" y="207"/>
      <point x="644" y="215" type="curve"/>
      <point x="665" y="233" type="line"/>
      <point x="708" y="350" type="line"/>
      <point x="702" y="367" type="line"/>
      <point x="600" y="356"/>
      <point x="498" y="332"/>
      <point x="418" y="297" type="curve"/>
      <point x="377" y="231"/>
      <point x="344" y="147"/>
      <point x="321" y="69" type="curve"/>
      <point x="403" y="62"/>
      <point x="529" y="44"/>
      <point x="573" y="33" type="curve"/>
      <point x="572" y="44" type="line"/>
      <point x="517" y="-12"/>
      <point x="419" y="-53"/>
      <point x="310" y="-53" type="curve" smooth="yes"/>
      <point x="213" y="-53"/>
      <point x="152" y="-21"/>
      <point x="116" y="31" type="curve"/>
      <point x="162" y="100"/>
      <point x="227" y="164"/>
      <point x="306" y="220" type="curve"/>
      <point x="285" y="314" type="line"/>
      <point x="160" y="213"/>
      <point x="76" y="80"/>
      <point x="25" y="-51" type="curve"/>
      <point x="34" y="-156"/>
      <point x="134" y="-211"/>
      <point x="247" y="-211" type="curve" smooth="yes"/>
      <point x="349" y="-211"/>
      <point x="492" y="-167"/>
      <point x="556" y="-89" type="curve" smooth="yes"/>
      <point x="589" y="-49"/>
      <point x="613" y="14"/>
      <point x="634" y="159" type="curve"/>
    </contour>
    <contour>
      <point x="673" y="292" type="move" name="entry"/>
    </contour>
  </outline>
</glyph>
<glyph name="dotlessyeh-ar" format="1">
  <advance width="736"/>
  <outline>
    <contour>
      <point x="668" y="153" type="curve"/>
      <point x="647" y="19"/>
      <point x="622" y="-48"/>
      <point x="586" y="-89" type="curve" smooth="yes"/>
      <point x="518" y="-166"/>
      <point x="357" y="-211"/>
      <point x="250" y="-211" type="curve" smooth="yes"/>
      <point x="133" y="-211"/>
      <point x="35" y="-157"/>
      <point x="25" y="-51" type="curve"/>
      <point x="76" y="80"/>
      <point x="160" y="213"/>
      <point x="285" y="314" type="curve"/>
      <point x="306" y="220" type="line"/>
      <point x="218" y="158"/>
      <point x="148" y="86"/>
      <point x="98" y="0" type="curve"/>
      <point x="99" y="45" type="line"/>
      <point x="133" y="-11"/>
      <point x="203" y="-53"/>
      <point x="318" y="-53" type="curve" smooth="yes"/>
      <point x="433" y="-53"/>
      <point x="555" y="-11"/>
      <point x="602" y="44" type="curve"/>
      <point x="610" y="21" type="line"/>
      <point x="535" y="44"/>
      <point x="444" y="58"/>
      <point x="364" y="62" type="curve"/>
      <point x="377" y="116"/>
      <point x="398" y="171"/>
      <point x="425" y="225" type="curve"/>
      <point x="493" y="323"/>
      <point x="587" y="394"/>
      <point x="706" y="424" type="curve"/>
      <point x="641" y="278" type="line"/>
      <point x="552" y="278"/>
      <point x="462" y="215"/>
      <point x="432" y="173" type="curve"/>
      <point x="433" y="196" type="line"/>
      <point x="504" y="196"/>
      <point x="583" y="183"/>
    </contour>
  </outline>
</glyph>
<glyph name="hah-ar.init.001" format="1">
  <advance width="519"/>
  <outline>
    <contour>
      <point x="10" y="6" type="line"/>
      <point x="66" y="158" type="line"/>
      <point x="141" y="166" type="line" smooth="yes"/>
      <point x="285" y="180"/>
      <point x="397" y="208"/>
      <point x="446" y="243" type="curve"/>
      <point x="451" y="210" type="line"/>
      <point x="407" y="248"/>
      <point x="346" y="263"/>
      <point x="280" y="263" type="curve" smooth="yes"/>
      <point x="245" y="263"/>
      <point x="221" y="254"/>
      <point x="186" y="235" type="curve"/>
      <point x="208" y="297" type="line"/>
      <point x="208" y="260"/>
      <point x="250" y="211"/>
      <point x="339" y="198" type="curve"/>
      <point x="222" y="81" type="line"/>
      <point x="171" y="92"/>
      <point x="146" y="128"/>
      <point x="146" y="188" type="curve" smooth="yes"/>
      <point x="146" y="242"/>
      <point x="205" y="339"/>
      <point x="234" y="363" type="curve" smooth="yes"/>
      <point x="264" y="385"/>
      <point x="315" y="397"/>
      <point x="364" y="397" type="curve" smooth="yes"/>
      <point x="428" y="397"/>
      <point x="494" y="380"/>
      <point x="533" y="352" type="curve"/>
      <point x="511" y="196"/>
      <point x="384" y="45"/>
      <point x="205" y="27" type="curve" smooth="yes"/>
    </contour>
    <contour>
      <point x="49" y="76" type="move" name="exit"/>
    </contour>
  </outline>
</glyph>
<glyph name="noon-ar.fina.alt" format="1">
  <advance width="543"/>
  <outline>
    <contour>
      <point x="633" y="196" type="line"/>
      <point x="627" y="213" type="line"/>
      <point x="499" y="200" type="line"/>
      <point x="449" y="48" type="line"/>
      <point x="569" y="61" type="line"/>
      <point x="590" y="79" type="line"/>
    </contour>
    <component base="noon-ar"/>
    <contour>
      <point x="598" y="138" type="move" name="entry"/>
    </contour>
  </outline>
</glyph>
<glyph name="qaf-ar.001" format="1">
  <advance width="568"/>
  <outline>
    <contour>
      <point x="451" y="21" type="line"/>
      <point x="443" y="72" type="line"/>
      <point x="414" y="72" type="line" smooth="yes"/>
      <point x="367" y="72"/>
      <point x="336" y="86"/>
      <point x="336" y="113" type="curve" smooth="yes"/>
      <point x="336" y="160"/>
      <point x="426" y="275"/>
      <point x="480" y="275" type="curve" smooth="yes"/>
      <point x="514" y="275"/>
      <point x="538" y="223"/>
      <point x="538" y="149" type="curve"/>
    </contour>
    <contour>
      <point x="538" y="112"/>
      <point x="506" y="19"/>
      <point x="484" y="-22" type="curve" smooth="yes"/>
      <point x="445" y="-87"/>
      <point x="333" y="-167"/>
      <point x="214" y="-167" type="curve" smooth="yes"/>
      <point x="117" y="-167"/>
      <point x="31" y="-113"/>
      <point x="25" y="-22" type="curve"/>
      <point x="44" y="42"/>
      <point x="72" y="101"/>
      <point x="113" y="163" type="curve"/>
      <point x="89" y="84" type="line"/>
      <point x="70" y="93"/>
      <point x="43" y="98"/>
      <point x="17" y="98" type="curve" smooth="yes"/>
      <point x="-16" y="98"/>
      <point x="-46" y="90"/>
      <point x="-57" y="81" type="curve"/>
      <point x="-74" y="91" type="line"/>
      <point x="-35" y="171"/>
      <point x="44" y="235"/>
      <point x="150" y="235" type="curve" smooth="yes"/>
      <point x="179" y="235"/>
      <point x="208" y="230"/>
      <point x="227" y="224" type="curve"/>
      <point x="182" y="176"/>
      <point x="128" y="100"/>
      <point x="98" y="41" type="curve"/>
      <point x="92" y="72" type="line"/>
      <point x="131" y="19"/>
      <point x="191" y="-9"/>
      <point x="266" y="-9" type="curve" smooth="yes"/>
      <point x="350" y="-9"/>
      <point x="446" y="27"/>
      <point x="494" y="75" type="curve"/>
      <point x="496" y="26" type="line"/>
      <point x="408" y="130" type="line"/>
      <point x="538" y="151" type="line"/>
    </contour>
  </outline>
</glyph>
<glyph name="s.alt" format="1">
  <advance width="432"/>
  <outline>
    <contour>
      <point x="124" y="467"/>
      <point x="38" y="405"/>
      <point x="38" y="294" type="curve"/>
      <point x="260" y="182" type="line"/>
      <point x="260" y="141"/>
      <point x="232" y="124"/>
      <point x="180" y="124" type="curve" smooth="yes"/>
      <point x="148" y="124"/>
      <point x="107" y="129"/>
      <point x="79" y="134" type="curve"/>
      <point x="74" y="173" type="line"/>
      <point x="42" y="171" type="line"/>
      <point x="48" y="16" type="line"/>
      <point x="94" y="-3"/>
      <point x="144" y="-15"/>
      <point x="215" y="-15" type="curve" smooth="yes"/>
      <point x="342" y="-15"/>
      <point x="397" y="51"/>
      <point x="397" y="152" type="curve"/>
      <point x="179" y="262" type="line"/>
      <point x="179" y="314"/>
      <point x="208" y="334"/>
      <point x="270" y="334" type="curve" smooth="yes"/>
      <point x="300" y="334"/>
      <point x="332" y="330"/>
      <point x="346" y="326" type="curve"/>
      <point x="353" y="291" type="line"/>
      <point x="382" y="294" type="line"/>
      <point x="378" y="452" type="line"/>
      <point x="339" y="462"/>
      <point x="289" y="467"/>
      <point x="244" y="467" type="curve" smooth="yes"/>
    </contour>
  </outline>
</glyph>
<glyph name="seen-ar.001" format="1">
  <advance width="812"/>
  <outline>
    <contour>
      <point x="311" y="-61" type="line"/>
      <point x="307" y="-63"/>
      <point x="296" y="-66"/>
      <point x="283" y="-66" type="curve" smooth="yes"/>
      <point x="185" y="-66"/>
      <point x="210" y="93"/>
      <point x="137" y="93" type="curve" smooth="yes"/>
      <point x="123" y="93"/>
      <point x="107" y="87"/>
      <point x="96" y="79" type="curve"/>
      <point x="76" y="35"/>
      <point x="60" y="-9"/>
      <point x="45" y="-53" type="curve"/>
      <point x="20" y="-45" type="line"/>
      <point x="40" y="38"/>
      <point x="64" y="114"/>
      <point x="92" y="194" type="curve"/>
      <point x="119" y="226"/>
      <point x="151" y="243"/>
      <point x="179" y="243" type="curve" smooth="yes"/>
      <point x="265" y="243"/>
      <point x="252" y="75"/>
      <point x="327" y="75" type="curve"/>
      <point x="394" y="224" type="line"/>
      <point x="426" y="227" type="line"/>
    </contour>
    <contour>
      <point x="426" y="227" type="line"/>
      <point x="531" y="238"/>
      <point x="646" y="261"/>
      <point x="768" y="300" type="curve"/>
      <point x="782" y="280" type="line"/>
      <point x="726" y="116" type="line"/>
      <point x="697" y="120" type="line"/>
      <point x="707" y="170" type="line"/>
      <point x="613" y="126"/>
      <point x="488" y="87"/>
      <point x="361" y="75" type="curve"/>
    </contour>
  </outline>
</glyph>
<glyph name="yeh-ar.fina.all1" format="1">
  <advance width="725"/>
  <outline>
    <component base="twodotshorizontalbelow-ar" xOffset="16" yOffset="-210"/>
    <component base="dotlessyeh-ar.fina.all1"/>
    <contour>
      <point x="418" y="254" type="move" name="entry"/>
    </contour>
  </outline>
</glyph>
